<svg width="127" height="127" viewBox="0 0 127 127" fill="none" xmlns="http://www.w3.org/2000/svg">
<path d="M18.0669 87.0399C24.9395 91.1305 31.3101 92.1676 34.5859 92.4063C34.8329 95.6821 35.8617 102.028 39.9277 108.876C39.1458 108.925 38.3474 108.95 37.5325 108.95C32.7258 108.95 27.2524 108.086 21.1534 105.839C18.5031 98.6699 17.7541 92.3898 18.0587 87.0399M15.0874 81.4347L14.7746 86.8505C14.4042 93.2952 15.5154 100.069 18.0669 106.983L18.5937 108.407L20.0176 108.934C25.9766 111.131 31.8698 112.242 37.5325 112.242C38.3968 112.242 39.2692 112.218 40.1252 112.16L45.5163 111.831L42.759 107.189C39.0141 100.884 38.084 95.0648 37.87 92.1594L37.656 89.328L34.8246 89.114C31.911 88.9 26.0672 87.9699 19.746 84.2003L15.0874 81.4183V81.4347Z" fill="#3B3953"/>
<path d="M14.7248 48.018C16.6837 55.7713 20.4616 61.0061 22.618 63.5C20.4698 65.9939 16.7001 71.2286 14.7248 78.982C10.7329 75.4181 6.81503 70.4385 3.62975 63.5C6.82327 56.5615 10.7329 51.5819 14.7248 48.018ZM16.5849 41.952L12.5354 45.5653C7.72041 49.8617 3.71205 55.4339 0.633765 62.1337L0 63.5082L0.633765 64.8828C3.71205 71.5826 7.71218 77.1548 12.5354 81.4512L16.5849 85.0562L17.9183 79.805C19.7373 72.6525 23.2024 67.8705 25.1119 65.6647L26.9638 63.5164L25.1119 61.3682C23.2024 59.1542 19.729 54.3721 17.9183 47.2279L16.5849 41.9684V41.952Z" fill="#3B3953"/>
<path d="M58.0426 65.7635L35.8444 87.97C33.4163 87.8876 26.2556 87.1963 18.6833 82.0685C20.42 73.0724 24.988 67.5249 26.6424 65.7635H58.0426ZM25.2185 62.4712L24.2391 63.5083C22.2225 65.6565 17.3252 71.7143 15.4486 81.443L15.0371 83.5748L16.8396 84.7929C25.0292 90.3322 32.7825 91.1635 35.7374 91.2622L37.1695 91.3116L65.9935 62.4712H25.2185Z" fill="#3B3953"/>
<path d="M63.5 104.398C65.9939 106.538 71.2122 110.3 78.9162 112.259C75.3523 116.284 70.4056 120.193 63.5 123.378C56.5615 120.185 51.5902 116.275 48.018 112.283C55.7632 110.325 61.0061 106.547 63.5 104.398ZM63.5 100.061L61.3518 101.905C59.1295 103.814 54.331 107.287 47.2032 109.09L41.9355 110.423L45.5571 114.473C49.87 119.296 55.4422 123.296 62.1173 126.366L63.4918 127L64.8663 126.366C71.5332 123.296 77.0889 119.28 81.3689 114.44L84.9493 110.399L79.7145 109.065C72.6197 107.263 67.8458 103.798 65.6318 101.896L63.4836 100.053L63.5 100.061Z" fill="#3B3953"/>
<path d="M61.2357 68.9487V100.349C59.4825 101.954 53.8692 106.506 44.8894 108.259C39.8029 100.703 39.1115 93.5833 39.0292 91.1552L61.2357 68.9487ZM64.5279 60.9979L35.6875 89.8383L35.7369 91.2704C35.8357 94.217 36.6587 101.937 42.1568 110.102L43.375 111.913L45.515 111.493C55.2025 109.6 61.2933 104.769 63.4579 102.777L64.5279 101.798V60.9979Z" fill="#3B3953"/>
<path d="M108.934 87.0399C109.239 92.3898 108.49 98.6699 105.84 105.839C99.6501 108.119 94.1273 108.991 89.3041 108.991C88.5304 108.991 87.7814 108.966 87.0407 108.925C91.1313 102.053 92.1684 95.6821 92.4071 92.4063C95.6911 92.1594 102.062 91.1305 108.926 87.0399M111.914 81.4348L107.255 84.2167C100.934 87.9864 95.0903 88.9165 92.1766 89.1305L89.3453 89.3445L89.1313 92.1758C88.9173 95.0895 87.9872 100.933 84.2175 107.255L81.4355 111.913L86.8514 112.226C87.658 112.275 88.481 112.3 89.3041 112.3C94.9915 112.3 100.942 111.172 106.984 108.942L108.408 108.415L108.934 106.991C111.486 100.077 112.597 93.3117 112.227 86.8588L111.914 81.443V81.4348Z" fill="#3B3953"/>
<path d="M65.7634 68.957L87.9617 91.1552C87.8629 93.5339 87.1139 100.711 81.9944 108.3C73.0476 106.555 67.5248 102.012 65.7634 100.357V68.957ZM62.4711 61.0143V101.789L63.5082 102.761C65.6482 104.769 71.6731 109.65 81.3606 111.534L83.5006 111.954L84.7188 110.144C90.2416 101.954 91.1223 94.2335 91.2457 91.2952L91.3033 89.8548L62.4629 61.0143H62.4711Z" fill="#3B3953"/>
<path d="M100.357 65.7635C102.019 67.5331 106.587 73.0806 108.316 82.0685C100.735 87.2045 93.5744 87.8876 91.1546 87.97L68.9563 65.7635H100.357ZM101.78 62.4712H61.0137L89.8377 91.3116L91.2698 91.2622C94.2246 91.1635 101.986 90.3322 110.168 84.7929L111.97 83.5748L111.559 81.443C109.682 71.7061 104.785 65.6565 102.76 63.5083L101.78 62.4712Z" fill="#3B3953"/>
<path d="M112.276 48.018C116.268 51.5819 120.185 56.5615 123.371 63.5C120.177 70.4385 116.268 75.4181 112.276 78.982C110.309 71.2287 106.539 65.9939 104.383 63.5C106.531 61.0061 110.3 55.7714 112.276 48.018ZM110.424 41.952L109.09 47.2032C107.271 54.3557 103.806 59.1377 101.897 61.3436L100.045 63.4918L101.897 65.64C103.806 67.8541 107.271 72.6279 109.09 79.7804L110.424 85.0316L114.473 81.4265C119.288 77.1301 123.297 71.5579 126.375 64.8581L127.009 63.4836L126.375 62.109C123.297 55.4092 119.297 49.837 114.473 45.5406L110.424 41.9355V41.952Z" fill="#3B3953"/>
<path d="M89.3119 18.0006C94.1434 18.0006 99.658 18.8731 105.847 21.153C108.498 28.3302 109.247 34.6102 108.942 39.9602C102.07 35.8695 95.699 34.8242 92.4231 34.5855C92.1762 31.3014 91.1474 24.9309 87.0567 18.0664C87.7975 18.0253 88.5465 18.0006 89.3202 18.0006M89.3119 14.7083C88.4971 14.7083 87.6658 14.733 86.8592 14.7824L81.4434 15.0952L84.2253 19.7537C87.995 26.0749 88.9251 31.9187 89.1391 34.8324L89.3531 37.6638L92.1844 37.8778C95.0981 38.0918 100.925 39.0219 107.263 42.7998L111.922 45.5817L112.234 40.1659C112.605 33.7213 111.502 26.9474 108.942 20.0254L108.415 18.6014L106.992 18.0747C100.95 15.8442 95.0076 14.7165 89.3202 14.7165L89.3119 14.7083Z" fill="#3B3953"/>
<path d="M91.1546 39.0383C93.5826 39.1206 100.735 39.812 108.316 44.9398C106.579 53.9359 102.011 59.4834 100.357 61.2448H68.9563L91.1546 39.0383ZM89.8377 35.6967L61.0137 64.5371H101.78L102.76 63.5C104.776 61.3518 109.674 55.294 111.55 45.5653L111.962 43.4335L110.159 42.2154C101.962 36.6761 94.2164 35.853 91.2616 35.7543L89.8294 35.7049L89.8377 35.6967Z" fill="#3B3953"/>
<path d="M35.8438 39.0383L58.0421 61.2448H26.6501C25.0286 59.4917 20.4935 53.8865 18.7404 44.8986C26.2962 39.812 33.4157 39.1206 35.8438 39.0383ZM37.1607 35.6967L35.7286 35.746C32.782 35.8448 25.0616 36.6679 16.8967 42.166L15.0859 43.3841L15.5057 45.5241C17.3988 55.2528 22.2384 61.3189 24.222 63.4753L25.2015 64.5371H65.9765L37.1525 35.6967H37.1607Z" fill="#3B3953"/>
<path d="M37.746 17.9924C38.5032 17.9924 39.2357 18.0171 39.96 18.05C35.8694 24.9309 34.8323 31.3014 34.5936 34.5773C31.3178 34.8242 24.9719 35.853 18.1157 39.919C17.8029 34.5608 18.5355 28.289 21.1611 21.1447C27.367 18.8566 32.9063 17.9841 37.746 17.9841M37.746 14.7001C32.0339 14.7001 26.0666 15.8359 20.017 18.0664L18.5931 18.5932L18.0663 20.0171C15.5313 26.898 14.4448 33.6554 14.8234 40.1248L15.1444 45.5241L19.7948 42.7668C26.1077 39.0136 31.9269 38.0918 34.8323 37.8778L37.6637 37.6638L37.8777 34.8324C38.0917 31.9187 39.0217 26.0749 42.7914 19.7455L45.5734 15.0787L40.1493 14.7741C39.3592 14.733 38.5526 14.7083 37.7542 14.7083L37.746 14.7001Z" fill="#3B3953"/>
<path d="M82.0598 18.6837C87.1958 26.2642 87.8789 33.4249 87.9612 35.8448L65.7548 58.043V26.6428C67.5244 24.9802 73.0719 20.4122 82.0598 18.6837ZM83.5743 15.0375L81.4425 15.4491C71.7056 17.3257 65.656 22.2229 63.5078 24.2477L62.4707 25.2189V65.9857L91.3111 37.1535L91.2618 35.7213C91.163 32.7665 90.3317 25.0049 84.7924 16.8236L83.5743 15.0211V15.0375Z" fill="#3B3953"/>
<path d="M63.4992 3.62152C70.4377 6.81504 75.4173 10.7246 78.9812 14.7165C71.2278 16.6837 65.9931 20.4533 63.4992 22.6098C61.0053 20.4616 55.7705 16.6919 48.0172 14.7165C51.5811 10.7246 56.5607 6.8068 63.4992 3.62152ZM63.4992 0L62.1247 0.633765C55.4249 3.71205 49.8527 7.71218 45.5562 12.5354L41.9512 16.5849L47.2024 17.9183C54.3631 19.7373 59.1369 23.2024 61.3427 25.1119L63.491 26.9638L65.6392 25.1119C67.845 23.2024 72.6271 19.7373 79.7796 17.9183L85.0308 16.5849L81.4257 12.5354C77.1293 7.72041 71.5571 3.71205 64.8573 0.633765L63.4827 0H63.4992Z" fill="#3B3953"/>
</svg>
