<svg width="125" height="125" viewBox="0 0 125 125" fill="none" xmlns="http://www.w3.org/2000/svg">
<path d="M60.6201 64.8604V124.584L60.5166 124.58C28.4169 123.437 2.46037 97.7225 0.931641 65.7207L0.900391 64.9639L0.896484 64.8604H60.6201ZM124.574 64.8604L124.571 64.9639C123.419 97.316 97.317 123.428 64.9648 124.58L64.8613 124.584V64.8604H124.574ZM68.6211 120.604L71.0371 120.261L72.2217 120.078C97.021 115.993 116.685 95.9957 120.262 71.0361L120.605 68.6104H68.6211V120.604ZM5.20898 71.0361L5.3916 72.2207C9.47653 97.0202 29.4748 116.684 54.4346 120.261H54.4336L56.8496 120.603V68.6104H4.86523L5.20898 71.0361ZM115.652 72.8604L115.629 72.9785C111.491 94.4386 94.4397 111.5 72.9795 115.638L72.8613 115.661V72.8604H115.652ZM52.6191 72.8496V115.651L52.5 115.628C31.0401 111.48 13.9885 94.4287 9.84082 72.9688L9.81836 72.8496H52.6191ZM15.4834 79.4463L15.7256 80.1162C20.893 94.1247 31.9158 104.995 46.0332 109.985L48.8594 110.988V76.6104H14.4805L15.4834 79.4463ZM76.6211 110.988L79.4473 109.985L80.1172 109.744C94.1355 104.577 105.006 93.5639 109.997 79.4463L111 76.6104H76.6211V110.988ZM44.6201 80.8496V104.873L44.4805 104.812C33.8975 100.191 25.2683 91.5733 20.6582 80.9902L20.5977 80.8496H44.6201ZM104.884 80.8496L104.822 80.9902C100.202 91.5731 91.584 100.201 81.001 104.812L80.8613 104.873V80.8496H104.884ZM29.3994 87.7402H29.4004L29.8506 88.3291C32.1275 91.2525 34.785 93.8636 37.7402 96.0801L40.4199 98.0986V85.0596H27.3809L29.3994 87.7402ZM85.0605 98.0986L87.7412 96.0801L88.3301 95.6299C91.2523 93.353 93.8551 90.6956 96.0811 87.7402L98.0918 85.0596H85.0605V98.0986ZM60.6201 60.6104H0.896484L0.900391 60.5068C2.05226 28.1544 28.1642 2.05226 60.5166 0.900391L60.6201 0.896484V60.6104ZM64.9648 0.900391C97.3271 2.05244 123.429 28.1545 124.571 60.5068L124.574 60.6104H64.8613V0.896484L64.9648 0.900391ZM68.6211 56.8604H120.607L120.262 54.4346C116.685 29.4748 97.0212 9.47653 72.2217 5.3916L71.0371 5.20898L68.6211 4.86426V56.8604ZM54.4336 5.21777L54.4346 5.21875C29.4845 8.78585 9.47688 28.4598 5.40137 53.2598L5.21875 54.4443L4.875 56.8604H56.8604V4.875L54.4336 5.21777ZM52.6191 52.6104H9.81836L9.84082 52.4912C13.9885 31.0312 31.0401 13.9897 52.5 9.8418L52.6191 9.81836V52.6104ZM72.9795 9.8418C94.4396 13.9795 111.491 31.0311 115.629 52.4912L115.652 52.6104H72.8613V9.81836L72.9795 9.8418ZM76.6211 48.8604H111.003L109.997 46.0234C105.006 31.906 94.1354 20.8935 80.1172 15.7168L79.4473 15.4746L76.6211 14.4707V48.8604ZM46.0332 15.4844C31.9158 20.4751 20.9023 31.3451 15.7256 45.3633L15.4834 46.0332L14.4805 48.8604H48.8594V14.4814L46.0332 15.4844ZM44.6201 44.6104H20.5977L20.6582 44.4697C25.2783 33.8867 33.8973 25.2585 44.4805 20.6484L44.6201 20.5869V44.6104ZM81.001 20.6484C91.5839 25.2685 100.212 33.8867 104.822 44.4697L104.884 44.6104H80.8613V20.5869L81.001 20.6484ZM85.0713 40.4102H98.1006L96.0908 37.7305C93.8554 34.7655 91.2522 32.1158 88.3379 29.8398L87.751 29.3896L85.0713 27.3799V40.4102ZM37.7402 29.3896C34.5776 31.7741 31.7646 34.5782 29.4004 37.7305H29.3994L27.3809 40.4102H40.4199V27.3799L37.7402 29.3896Z" fill="#3B3953" stroke="#3B3953" stroke-width="0.2"/>
</svg>
