<svg width="788" height="228" viewBox="0 0 788 228" fill="none" xmlns="http://www.w3.org/2000/svg">
<g clip-path="url(#clip0_1855_7316)">
<path d="M516.186 158.904C522.66 158.905 533.441 173.585 534.295 188.16C535.215 203.928 527.745 211.074 517.672 211.703L518.108 223.852H514.258L514.693 211.703C504.624 211.072 497.156 203.925 498.077 188.16C498.925 173.585 509.712 158.904 516.186 158.904Z" fill="#EEDCAC"/>
<path d="M267.365 0C270.88 3.62329e-05 273.728 2.84893 273.729 6.36328C273.729 9.8778 270.88 12.7275 267.365 12.7275H237.486C236.29 15.8785 237.643 19.5835 239.645 22.7275H282.82C286.335 22.7278 289.184 25.5765 289.184 29.0908C289.184 32.6052 286.335 35.4549 282.82 35.4551H263.821C261.77 39.0811 263.636 43.6568 266.16 47.2725H271.001C274.516 47.2725 277.364 50.1222 277.364 53.6367C277.364 57.1511 274.515 60 271.001 60H247.364C243.85 59.9998 241.001 57.151 241.001 53.6367C241.001 50.1223 243.85 47.2726 247.364 47.2725H252.252C254.905 42.4216 253.741 38.2502 251.798 35.4551H163.729C160.214 35.4548 157.365 32.6052 157.365 29.0908C157.365 25.5765 160.214 22.7278 163.729 22.7275H226.8C228.621 18.7564 227.921 15.2889 226.462 12.7275H203.729C200.214 12.7274 197.365 9.87775 197.365 6.36328C197.365 2.84898 200.214 0.00013155 203.729 0H267.365Z" fill="#FFF7E3"/>
<circle cx="146.455" cy="29.9995" r="5.45455" fill="#FFF7E3"/>
<path d="M551.812 172.853C551.863 172.854 551.915 172.857 551.967 172.859C551.993 172.861 552.02 172.862 552.046 172.863C555.276 173.041 558.099 174.749 559.798 177.277C560.596 177.069 561.435 176.955 562.302 176.955C567.716 176.955 572.104 181.343 572.104 186.758C572.104 188.417 571.69 189.978 570.963 191.348H570.96C573.757 193.149 575.68 196.182 575.962 199.682L575.964 199.681L575.963 199.683C575.987 199.977 576 200.274 576 200.574C576 206.634 571.087 211.544 565.03 211.544C564.427 211.544 563.837 211.495 563.26 211.4C562.367 213.655 560.315 215.326 557.837 215.67L558.363 224.64H554.063L554.608 215.344C553.337 214.894 552.236 214.082 551.435 213.028L551.194 212.691C550.748 212.919 550.281 213.11 549.797 213.264C549.793 213.265 549.79 213.268 549.786 213.269C549.783 213.27 549.78 213.27 549.776 213.271C548.908 213.544 547.984 213.692 547.024 213.692C541.952 213.692 537.842 209.581 537.842 204.509C537.842 203.955 537.894 203.414 537.988 202.889C535.788 201.154 534.373 198.468 534.373 195.449C534.373 190.84 537.669 186.999 542.034 186.158C541.676 185.125 541.477 184.017 541.477 182.859C541.477 177.33 545.959 172.848 551.488 172.848L551.812 172.853Z" fill="#EEDCAC"/>
<path d="M217.675 168.756C217.718 168.757 217.761 168.76 217.804 168.762C217.841 168.763 217.879 168.764 217.916 168.767C221.116 168.945 223.912 170.639 225.596 173.145C226.388 172.938 227.219 172.824 228.079 172.824C233.449 172.824 237.801 177.177 237.801 182.547C237.801 184.193 237.391 185.742 236.67 187.1H236.666C239.44 188.886 241.347 191.894 241.627 195.364L241.629 195.363L241.628 195.365C241.651 195.657 241.665 195.951 241.665 196.249C241.665 202.26 236.792 207.129 230.785 207.129C230.187 207.129 229.602 207.081 229.029 206.987C228.144 209.223 226.109 210.881 223.65 211.222L224.173 220.117H219.908L220.449 210.897C219.188 210.451 218.097 209.646 217.302 208.602L217.063 208.268C216.966 208.318 216.865 208.364 216.766 208.41C216.748 208.418 216.731 208.427 216.714 208.435C216.38 208.588 216.036 208.722 215.682 208.834C215.676 208.836 215.671 208.838 215.666 208.84C215.662 208.841 215.657 208.841 215.652 208.843C214.792 209.113 213.878 209.26 212.928 209.26C207.897 209.26 203.82 205.183 203.819 200.152C203.819 199.603 203.871 199.065 203.965 198.545C201.783 196.825 200.379 194.161 200.379 191.167C200.379 186.595 203.648 182.786 207.978 181.952C207.622 180.927 207.425 179.827 207.425 178.68C207.425 173.196 211.871 168.75 217.354 168.75L217.675 168.756Z" fill="#EEDCAC"/>
<path d="M267.343 163C270.755 163 273.767 164.705 275.57 167.307C275.821 167.279 276.071 167.263 276.325 167.263C280.067 167.263 283.102 170.298 283.103 174.04C283.103 174.803 282.972 175.534 282.737 176.222C285.526 178.002 287.377 181.12 287.377 184.672C287.377 186.364 286.956 187.961 286.213 189.359C289.161 191.039 291.174 194.165 291.277 197.776C291.28 197.876 291.282 197.975 291.282 198.075C291.282 203.089 287.6 207.24 282.793 207.976C281.053 211.94 277.096 214.71 272.487 214.71L272.098 214.703C271.934 214.698 271.772 214.686 271.61 214.674L271.875 224.3H268.769L269.048 214.172C266.363 213.31 264.118 211.467 262.734 209.064C261.658 209.593 260.45 209.898 259.171 209.898L258.755 209.888C254.487 209.671 251.09 206.14 251.09 201.818C251.09 199.22 252.322 196.911 254.229 195.434C252.036 193.594 250.641 190.837 250.641 187.754C250.641 182.919 254.069 178.883 258.622 177.941C257.8 176.487 257.327 174.807 257.327 173.016C257.327 172.863 257.331 172.711 257.338 172.561C257.339 172.53 257.34 172.499 257.342 172.469C257.35 172.318 257.361 172.168 257.376 172.02C257.378 171.997 257.38 171.975 257.383 171.952C257.398 171.805 257.417 171.659 257.438 171.514C257.444 171.476 257.452 171.439 257.458 171.402C257.477 171.285 257.497 171.168 257.521 171.052C257.526 171.022 257.532 170.992 257.538 170.963C257.566 170.828 257.597 170.694 257.631 170.561C257.64 170.526 257.649 170.491 257.658 170.456C257.693 170.324 257.729 170.192 257.77 170.062C257.778 170.034 257.788 170.006 257.797 169.978C257.884 169.702 257.984 169.432 258.094 169.167C258.105 169.14 258.116 169.113 258.127 169.087C258.311 168.656 258.524 168.24 258.765 167.843C258.774 167.827 258.784 167.812 258.794 167.796C258.87 167.672 258.948 167.549 259.029 167.429C259.037 167.418 259.044 167.407 259.051 167.396C259.401 166.88 259.799 166.398 260.237 165.957C260.264 165.93 260.292 165.904 260.319 165.877C260.398 165.8 260.478 165.724 260.559 165.649C260.581 165.629 260.603 165.607 260.626 165.587C260.727 165.496 260.83 165.406 260.935 165.319C260.96 165.298 260.985 165.278 261.011 165.257C261.102 165.182 261.194 165.109 261.288 165.038L261.287 165.039C262.969 163.76 265.067 163 267.343 163Z" fill="#EEDCAC"/>
<path d="M582.09 41C585.789 41.0001 588.789 43.9996 588.789 47.6992C588.789 51.399 585.79 54.3983 582.09 54.3984H567.838C566.923 56.6159 566.328 59.2892 566.765 61.9355H603.862C607.562 61.9357 610.562 64.935 610.562 68.6348C610.561 72.3345 607.562 75.3338 603.862 75.334H501.699C497.999 75.334 495 72.3346 495 68.6348C495 64.9349 497.999 61.9355 501.699 61.9355H556.387C557.254 59.8044 557.405 57.2055 555.855 54.3984H546.919C543.219 54.3984 540.22 51.3991 540.22 47.6992C540.22 43.9995 543.219 41 546.919 41H582.09Z" fill="#FFF7E3"/>
<rect x="589" y="153.539" width="65.0328" height="166.428" rx="32.5164" fill="#EEDCAC"/>
<rect x="593.195" y="159.77" width="56.6414" height="154.858" rx="28.3207" fill="#FAEBC6"/>
<rect x="597.391" y="165.109" width="47.5508" height="142.398" rx="23.7754" fill="#EEDCAC"/>
<rect x="602.287" y="171.338" width="38.4602" height="129.048" rx="19.2301" fill="#FAEBC6"/>
<rect x="607.182" y="178.459" width="27.9711" height="115.699" rx="13.9855" fill="#EEDCAC"/>
<rect x="612.775" y="185.578" width="17.4819" height="102.349" rx="8.74096" fill="#FAEBC6"/>
<rect x="616.971" y="192.699" width="9.0906" height="86.3289" rx="4.5453" fill="#EEDCAC"/>
<rect x="651.525" y="114" width="65.0328" height="166.428" rx="32.5164" fill="#EEDCAC"/>
<rect x="655.721" y="120.23" width="56.6414" height="154.858" rx="28.3207" fill="#FAEBC6"/>
<rect x="659.916" y="125.57" width="47.5508" height="142.398" rx="23.7754" fill="#EEDCAC"/>
<rect x="664.812" y="131.799" width="38.4602" height="129.048" rx="19.2301" fill="#FAEBC6"/>
<rect x="669.707" y="138.92" width="27.9711" height="115.699" rx="13.9855" fill="#EEDCAC"/>
<rect x="675.301" y="146.039" width="17.4819" height="102.349" rx="8.74096" fill="#FAEBC6"/>
<rect x="679.496" y="153.16" width="9.0906" height="86.3289" rx="4.5453" fill="#EEDCAC"/>
<rect x="716.809" y="164.572" width="65.0328" height="166.428" rx="32.5164" fill="#EEDCAC"/>
<rect x="721.004" y="170.803" width="56.6414" height="154.858" rx="28.3207" fill="#FAEBC6"/>
<rect x="725.199" y="176.143" width="47.5508" height="142.398" rx="23.7754" fill="#EEDCAC"/>
<rect x="730.094" y="182.371" width="38.4602" height="129.048" rx="19.2301" fill="#FAEBC6"/>
<rect x="734.99" y="189.492" width="27.9711" height="115.699" rx="13.9855" fill="#EEDCAC"/>
<rect x="740.584" y="196.611" width="17.4819" height="102.349" rx="8.74096" fill="#FAEBC6"/>
<rect x="744.779" y="203.732" width="9.0906" height="86.3289" rx="4.5453" fill="#EEDCAC"/>
<rect y="171" width="65.0328" height="166.428" rx="32.5164" fill="#EEDCAC"/>
<rect x="4.19531" y="177.23" width="56.6414" height="154.858" rx="28.3207" fill="#FAEBC6"/>
<rect x="8.39062" y="182.57" width="47.5508" height="142.398" rx="23.7754" fill="#EEDCAC"/>
<rect x="13.2871" y="188.799" width="38.4602" height="129.048" rx="19.2301" fill="#FAEBC6"/>
<rect x="18.1816" y="195.92" width="27.9711" height="115.699" rx="13.9855" fill="#EEDCAC"/>
<rect x="23.7754" y="203.039" width="17.4819" height="102.349" rx="8.74096" fill="#FAEBC6"/>
<rect x="27.9707" y="210.16" width="9.0906" height="86.3289" rx="4.5453" fill="#EEDCAC"/>
<rect x="62.5254" y="114" width="65.0328" height="166.428" rx="32.5164" fill="#EEDCAC"/>
<rect x="66.7207" y="120.23" width="56.6414" height="154.858" rx="28.3207" fill="#FAEBC6"/>
<rect x="70.916" y="125.57" width="47.5508" height="142.398" rx="23.7754" fill="#EEDCAC"/>
<rect x="75.8125" y="131.799" width="38.4602" height="129.048" rx="19.2301" fill="#FAEBC6"/>
<rect x="80.707" y="138.92" width="27.9711" height="115.699" rx="13.9855" fill="#EEDCAC"/>
<rect x="86.3008" y="146.039" width="17.4819" height="102.349" rx="8.74096" fill="#FAEBC6"/>
<rect x="90.4961" y="153.16" width="9.0906" height="86.3289" rx="4.5453" fill="#EEDCAC"/>
<rect x="127.809" y="144" width="65.0328" height="166.428" rx="32.5164" fill="#EEDCAC"/>
<rect x="132.004" y="150.23" width="56.6414" height="154.858" rx="28.3207" fill="#FAEBC6"/>
<rect x="136.199" y="155.57" width="47.5508" height="142.398" rx="23.7754" fill="#EEDCAC"/>
<rect x="141.094" y="161.799" width="38.4602" height="129.048" rx="19.2301" fill="#FAEBC6"/>
<rect x="145.99" y="168.92" width="27.9711" height="115.699" rx="13.9855" fill="#EEDCAC"/>
<rect x="151.584" y="176.039" width="17.4819" height="102.349" rx="8.74096" fill="#FAEBC6"/>
<rect x="155.779" y="183.16" width="9.0906" height="86.3289" rx="4.5453" fill="#EEDCAC"/>
</g>
<defs>
<clipPath id="clip0_1855_7316">
<rect width="788" height="228" fill="white"/>
</clipPath>
</defs>
</svg>
