<svg width="42" height="26" viewBox="0 0 42 26" fill="none" xmlns="http://www.w3.org/2000/svg">
<path d="M6.84766 16.5943V18.3203H34.6535V16.5943H6.84766Z" fill="#87333C" stroke="#87333C" stroke-width="2" stroke-linecap="round" stroke-linejoin="round"/>
<path d="M2.00089 5.44666C2.00089 5.44666 11.1495 3.83235 11.482 3.61339C11.8144 3.39443 13.145 1 13.145 1C13.145 1 19.5677 1.58952 20.9471 1.58952C22.3265 1.58952 28.5807 1 28.5807 1C28.5807 1 29.5789 2.99728 29.7783 3.22333C29.9778 3.44939 31.9077 3.99636 31.9077 3.99636C31.9077 3.99636 39.0936 5.36422 39.825 5.44666C39.825 5.44666 36.631 7.93594 35.6337 8.15491C34.6355 8.37387 7.67446 8.15491 7.67446 8.15491C7.67446 8.15491 5.82611 8.13452 4.89441 7.46078C3.9627 6.78705 2 5.44666 2 5.44666H2.00089Z" stroke="#87333C" stroke-width="2" stroke-linecap="round" stroke-linejoin="round"/>
<path d="M1 11.5923C1 11.5923 11.07 11.3704 11.4056 11.1554C11.7412 10.9414 13.0846 8.59375 13.0846 8.59375C13.0846 8.59375 19.6066 8.59375 20.9991 8.59375C22.3917 8.59375 28.6675 8.59375 28.6675 8.59375C28.6675 8.59375 29.6752 10.5509 29.8766 10.7728C30.078 10.9946 32.0263 11.5312 32.0263 11.5312C32.0263 11.5312 40.2599 11.8153 40.9991 11.8957C40.9991 11.8957 38.7644 14.918 37.1964 15.7692C37.0819 15.8314 35.113 16.5287 34.2494 16.5491C28.3167 16.6861 7.56181 16.4642 7.56181 16.4642C7.56181 16.4642 5.69582 16.4438 4.75523 15.7839C3.81463 15.124 1 11.5923 1 11.5923Z" stroke="#87333C" stroke-width="2" stroke-linecap="round" stroke-linejoin="round"/>
<path d="M24.3867 17.9863H22.3867V23.9863H24.3867V17.9863Z" fill="#87333C"/>
<path d="M8.16238 8.16992H6.76172V11.8817H8.16238V8.16992Z" fill="#87333C" stroke="#87333C" stroke-linecap="round" stroke-linejoin="round"/>
<path d="M35.4944 8.25195H34.0938V11.9637H35.4944V8.25195Z" fill="#87333C" stroke="#87333C" stroke-linecap="round" stroke-linejoin="round"/>
<path d="M8.38672 17.9863H6.38672V23.9863H8.38672V17.9863Z" fill="#87333C"/>
<path d="M12.3867 17.9863H10.3867V23.9863H12.3867V17.9863Z" fill="#87333C"/>
<path d="M18.3867 17.9863H16.3867V23.9863H18.3867V17.9863Z" fill="#87333C"/>
<path d="M31.3867 17.9863H29.3867V23.9863H31.3867V17.9863Z" fill="#87333C"/>
<path d="M35.3867 17.9863H33.3867V23.9863H35.3867V17.9863Z" fill="#87333C"/>
<path d="M16.9766 23.7051H23.799" stroke="#87333C" stroke-width="2" stroke-linecap="round" stroke-linejoin="round"/>
<path d="M34.1323 4.21457C34.1323 4.31741 34.1137 4.39985 34.0916 4.39985C34.0694 4.39985 34.0508 4.31652 34.0508 4.21457C34.0508 4.11263 34.0694 4.0293 34.0916 4.0293C34.1137 4.0293 34.1323 4.11263 34.1323 4.21457Z" stroke="#87333C" stroke-width="2" stroke-linecap="round" stroke-linejoin="round"/>
<path d="M8.20094 4.29829C8.22346 4.29829 8.24171 4.21534 8.24171 4.11301C8.24171 4.01069 8.22346 3.92773 8.20094 3.92773C8.17842 3.92773 8.16016 4.01069 8.16016 4.11301C8.16016 4.21534 8.17842 4.29829 8.20094 4.29829Z" stroke="#87333C" stroke-width="2" stroke-linecap="round" stroke-linejoin="round"/>
<path d="M6.33156 4.48606C6.33156 4.58889 6.31294 4.67134 6.29078 4.67134C6.26862 4.67134 6.25 4.58801 6.25 4.48606C6.25 4.38411 6.26862 4.30078 6.29078 4.30078C6.31294 4.30078 6.33156 4.38411 6.33156 4.48606Z" stroke="#87333C" stroke-width="2" stroke-linecap="round" stroke-linejoin="round"/>
<path d="M4.41359 4.77122C4.41359 4.87405 4.39497 4.95649 4.37281 4.95649C4.35065 4.95649 4.33203 4.87316 4.33203 4.77122C4.33203 4.66927 4.35065 4.58594 4.37281 4.58594C4.39497 4.58594 4.41359 4.66927 4.41359 4.77122Z" stroke="#87333C" stroke-width="2" stroke-linecap="round" stroke-linejoin="round"/>
<path d="M35.8611 4.76899C35.8836 4.76899 35.9019 4.68604 35.9019 4.58372C35.9019 4.48139 35.8836 4.39844 35.8611 4.39844C35.8386 4.39844 35.8203 4.48139 35.8203 4.58372C35.8203 4.68604 35.8386 4.76899 35.8611 4.76899Z" stroke="#87333C" stroke-width="2" stroke-linecap="round" stroke-linejoin="round"/>
<path d="M37.5877 5.16548C37.6102 5.16548 37.6284 5.08253 37.6284 4.9802C37.6284 4.87787 37.6102 4.79492 37.5877 4.79492C37.5651 4.79492 37.5469 4.87787 37.5469 4.9802C37.5469 5.08253 37.5651 5.16548 37.5877 5.16548Z" stroke="#87333C" stroke-width="2" stroke-linecap="round" stroke-linejoin="round"/>
<path d="M35.4743 23.9863H6V24.6863H35.4743V23.9863Z" stroke="#87333C" stroke-width="2" stroke-linecap="round" stroke-linejoin="round"/>
</svg>
