<svg width="42" height="19" viewBox="0 0 42 19" fill="none" xmlns="http://www.w3.org/2000/svg">
<path d="M6.55859 8.78925V10.582L36.6188 10.582V8.78925L6.55859 8.78925Z" fill="#B98F48" stroke="#B98F48" stroke-width="2" stroke-linecap="round" stroke-linejoin="round"/>
<path d="M6.55859 10.7789V14.7891L36.1081 14.7891V10.7789L6.55859 10.7789Z" stroke="#B98F48" stroke-width="2" stroke-linecap="round" stroke-linejoin="round"/>
<path d="M8.59933 10.1465H7.31641V11.0156H8.59933V10.1465Z" fill="#B98F48" stroke="#B98F48" stroke-width="2" stroke-linecap="round" stroke-linejoin="round"/>
<path d="M9.84543 10.1465H8.5625V11.0156H9.84543V10.1465Z" fill="#B98F48" stroke="#B98F48" stroke-width="2" stroke-linecap="round" stroke-linejoin="round"/>
<path d="M33.8845 10.1465H32.6016V11.0156H33.8845V10.1465Z" fill="#B98F48" stroke="#B98F48" stroke-width="2" stroke-linecap="round" stroke-linejoin="round"/>
<path d="M35.1306 10.1465H33.8477V11.0156H35.1306V10.1465Z" fill="#B98F48" stroke="#B98F48" stroke-width="2" stroke-linecap="round" stroke-linejoin="round"/>
<path d="M13.3404 10.1465H11.9102V11.0156H13.3404V10.1465Z" fill="#B98F48" stroke="#B98F48" stroke-width="2" stroke-linecap="round" stroke-linejoin="round"/>
<path d="M14.8521 10.1465H13.4219V11.0156H14.8521V10.1465Z" fill="#B98F48" stroke="#B98F48" stroke-width="2" stroke-linecap="round" stroke-linejoin="round"/>
<path d="M16.3599 10.1465H14.9297V11.0156H16.3599V10.1465Z" fill="#B98F48" stroke="#B98F48" stroke-width="2" stroke-linecap="round" stroke-linejoin="round"/>
<path d="M19.657 10.1465H17.875V11.0156H19.657V10.1465Z" fill="#B98F48" stroke="#B98F48" stroke-width="2" stroke-linecap="round" stroke-linejoin="round"/>
<path d="M21.5359 10.1465H19.7539V11.0156H21.5359V10.1465Z" fill="#B98F48" stroke="#B98F48" stroke-width="2" stroke-linecap="round" stroke-linejoin="round"/>
<path d="M23.4187 10.1465H21.6367V11.0156H23.4187V10.1465Z" fill="#B98F48" stroke="#B98F48" stroke-width="2" stroke-linecap="round" stroke-linejoin="round"/>
<path d="M26.8199 10.1465H25.0312V11.0156H26.8199V10.1465Z" fill="#B98F48" stroke="#B98F48" stroke-width="2" stroke-linecap="round" stroke-linejoin="round"/>
<path d="M28.7105 10.1465H26.9219V11.0156H28.7105V10.1465Z" fill="#B98F48" stroke="#B98F48" stroke-width="2" stroke-linecap="round" stroke-linejoin="round"/>
<path d="M30.5972 10.1465H28.8086V11.0156H30.5972V10.1465Z" fill="#B98F48" stroke="#B98F48" stroke-width="2" stroke-linecap="round" stroke-linejoin="round"/>
<path d="M24 9H23V15H24V9Z" stroke="#B98F48" stroke-width="1.5" stroke-linecap="round" stroke-linejoin="round"/>
<path d="M7 9H6V15H7V9Z" stroke="#B98F48" stroke-width="1.5" stroke-linecap="round" stroke-linejoin="round"/>
<path d="M11 9H10V15H11V9Z" stroke="#B98F48" stroke-width="1.5" stroke-linecap="round" stroke-linejoin="round"/>
<path d="M17 9H16V15H17V9Z" stroke="#B98F48" stroke-width="1.5" stroke-linecap="round" stroke-linejoin="round"/>
<path d="M32 9H31V15H32V9Z" stroke="#B98F48" stroke-width="1.5" stroke-linecap="round" stroke-linejoin="round"/>
<path d="M37 9H36V15H37V9Z" stroke="#B98F48" stroke-width="1.5" stroke-linecap="round" stroke-linejoin="round"/>
<path d="M3.19141 14.8736V17.168L39.8359 17.168V14.8736L3.19141 14.8736Z" stroke="#B98F48" stroke-width="2" stroke-linecap="round" stroke-linejoin="round"/>
<path d="M16.3594 14.8736V17.168H25.032V14.8736H16.3594Z" stroke="#B98F48" stroke-width="2" stroke-linecap="round" stroke-linejoin="round"/>
<path d="M1 5.39399C1 5.39399 8.02795 4.72438 10.9108 2.64852C11.2907 2.37538 12.6904 1.37305 12.6904 1.37305C12.6904 1.37305 19.561 2.16184 21.0368 2.16184C22.5126 2.16184 29.2029 1.37305 29.2029 1.37305C29.2029 1.37305 30.2706 1.82248 30.4841 2.12542C30.6977 2.42836 32.0121 3.45966 32.6709 3.73363C34.9496 4.67969 40.217 5.2839 41 5.39399C41 5.39399 37.815 8.43411 36.7473 8.72711C35.6796 9.02012 6.83856 8.72711 6.83856 8.72711C6.83856 8.72711 4.86119 8.6998 3.86465 7.79761C2.86811 6.89625 1 5.39399 1 5.39399Z" stroke="#B98F48" stroke-width="2" stroke-linecap="round" stroke-linejoin="round"/>
</svg>
