<svg width="34" height="35" viewBox="0 0 34 35" fill="none" xmlns="http://www.w3.org/2000/svg">
<g clip-path="url(#clip0_1736_21107)">
<path d="M12.7574 21.4848H21.2426V12.9995H12.7574V21.4848Z" stroke="#FDD253" stroke-width="3" stroke-linecap="round" stroke-linejoin="round"/>
<path d="M17 27.2412C22.5228 27.2412 27 22.7641 27 17.2412C27 11.7184 22.5228 7.24121 17 7.24121C11.4772 7.24121 7 11.7184 7 17.2412C7 22.7641 11.4772 27.2412 17 27.2412Z" stroke="#FDD253" stroke-width="3" stroke-linecap="round" stroke-linejoin="round"/>
<path d="M16.9999 31.4085C24.824 31.4085 31.1666 25.0659 31.1666 17.2419C31.1666 9.41783 24.824 3.0752 16.9999 3.0752C9.17588 3.0752 2.83325 9.41783 2.83325 17.2419C2.83325 25.0659 9.17588 31.4085 16.9999 31.4085Z" stroke="#FDD253" stroke-width="3" stroke-linecap="round" stroke-linejoin="round"/>
</g>
<defs>
<clipPath id="clip0_1736_21107">
<rect width="34" height="34" fill="white" transform="translate(0 0.241211)"/>
</clipPath>
</defs>
</svg>
