<svg width="28" height="28" viewBox="0 0 28 28" fill="none" xmlns="http://www.w3.org/2000/svg">
<path d="M10.6059 17.3952H17.3941V10.607H10.6059V17.3952Z" stroke="#333333" stroke-width="2.4" stroke-linecap="round" stroke-linejoin="round"/>
<path d="M14 22C18.4183 22 22 18.4183 22 14C22 9.58172 18.4183 6 14 6C9.58172 6 6 9.58172 6 14C6 18.4183 9.58172 22 14 22Z" stroke="#333333" stroke-width="2.4" stroke-linecap="round" stroke-linejoin="round"/>
<path d="M13.9974 25.3346C20.2566 25.3346 25.3307 20.2605 25.3307 14.0013C25.3307 7.74208 20.2566 2.66797 13.9974 2.66797C7.73817 2.66797 2.66406 7.74208 2.66406 14.0013C2.66406 20.2605 7.73817 25.3346 13.9974 25.3346Z" stroke="#333333" stroke-width="2.4" stroke-linecap="round" stroke-linejoin="round"/>
</svg>
