<svg width="42" height="19" viewBox="0 0 42 19" fill="none" xmlns="http://www.w3.org/2000/svg">
<path d="M39.8702 8.54492H1V9.77532H39.8702V8.54492Z" fill="#2E8389" stroke="#2E8389" stroke-width="1.5" stroke-linecap="round" stroke-linejoin="round"/>
<path d="M13 5L21.0003 1L29 5H13Z" stroke="#2E8389" stroke-width="2" stroke-linecap="round" stroke-linejoin="round"/>
<path d="M14 6H1V8H14V6Z" stroke="#2E8389" stroke-width="2" stroke-linecap="round" stroke-linejoin="round"/>
<path d="M40 6H27V8H40V6Z" stroke="#2E8389" stroke-width="2" stroke-linecap="round" stroke-linejoin="round"/>
<path d="M2.69777 10.4824H1.69531V13.4898H2.69777V10.4824Z" stroke="#2E8389" stroke-width="1.5" stroke-linecap="round" stroke-linejoin="round"/>
<path d="M9.7173 10.4824H8.71484V13.4898H9.7173V10.4824Z" stroke="#2E8389" stroke-width="1.5" stroke-linecap="round" stroke-linejoin="round"/>
<path d="M15.7329 9.48047H14.7305V13.4903H15.7329V9.48047Z" stroke="#2E8389" stroke-width="1.5" stroke-linecap="round" stroke-linejoin="round"/>
<path d="M26.7603 9.48047H25.7578V13.4903H26.7603V9.48047Z" stroke="#2E8389" stroke-width="1.5" stroke-linecap="round" stroke-linejoin="round"/>
<path d="M32.772 10.4824H31.7695V13.4898H32.772V10.4824Z" stroke="#2E8389" stroke-width="1.5" stroke-linecap="round" stroke-linejoin="round"/>
<path d="M39.7915 10.4824H38.7891V13.4898H39.7915V10.4824Z" stroke="#2E8389" stroke-width="1.5" stroke-linecap="round" stroke-linejoin="round"/>
<path d="M13.0714 14H1V17.2591H13.0714V14Z" stroke="#2E8389" stroke-width="2" stroke-linecap="round" stroke-linejoin="round"/>
<path d="M40.8839 14H28.8125V17.2591H40.8839V14Z" stroke="#2E8389" stroke-width="2" stroke-linecap="round" stroke-linejoin="round"/>
<path d="M28.8487 14H13.1484V17.2591H28.8487V14Z" stroke="#2E8389" stroke-width="2" stroke-linecap="round" stroke-linejoin="round"/>
</svg>
