<svg width="832" height="200" viewBox="0 0 832 200" fill="none" xmlns="http://www.w3.org/2000/svg">
<path d="M51.7181 44.9346C52.8751 44.5511 61.5906 47.9252 63.3646 48.6153C75.4738 53.6763 86.1176 61.6513 96.3758 69.6263L83.1867 61.1145C76.5537 57.4338 69.7663 54.0598 62.6704 51.2992C60.5108 50.4557 52.9522 48.692 51.7953 47.8485C50.7926 47.1583 50.6383 45.2413 51.7953 44.9346H51.7181Z" fill="#6CBACD"/>
<path d="M71.461 37.5726C73.0036 37.4959 88.5836 52.5256 90.589 54.6727C95.9109 60.2705 103.315 68.7056 107.403 75.0702C107.557 75.3769 108.483 76.4505 108.02 76.6805C97.2221 62.7244 84.1101 50.7619 70.304 39.7197C70.0727 38.9528 70.6126 37.6492 71.3839 37.6492L71.461 37.5726Z" fill="#65A1B7"/>
<path d="M63.0555 67.7857C64.6752 67.1723 74.9334 69.166 77.1701 69.7795C82.8005 71.2365 88.8937 73.8437 94.3699 76.0674C86.1942 73.3069 77.8643 71.3898 69.303 70.3163C68.0689 70.1629 62.8241 70.623 62.5156 69.2427C62.5156 68.936 62.8241 68.0158 63.1327 67.8624L63.0555 67.7857Z" fill="#F7C85A"/>
<path d="M397.105 168.773C399.187 168.62 400.344 170.767 398.802 171.994C398.03 172.608 387.464 175.675 385.458 176.442C368.644 182.806 352.293 190.398 336.867 199.676C350.056 190.168 364.248 181.809 379.288 175.445C382.296 174.141 394.714 169.003 397.105 168.773Z" fill="#EC9F52"/>
<path d="M380.29 163.633C381.292 163.633 381.524 163.709 382.141 164.476C365.327 175.289 346.97 184.03 332.238 197.91C342.342 187.481 353.68 178.049 366.252 170.764C367.949 169.767 379.287 163.709 380.367 163.633H380.29Z" fill="#6CBACD"/>
<path d="M349.282 161.948C349.282 161.948 350.053 161.948 350.131 161.948C352.83 158.881 355.221 155.66 357.458 152.363C357.458 152.363 358.538 150.753 358.692 151.52C356.147 158.651 350.593 163.635 346.351 169.693C340.027 178.742 334.088 188.097 329.383 198.066C334.088 186.027 340.567 171.84 349.282 161.948Z" fill="#EC9F52"/>
<path d="M343.622 132.136C345.634 131.829 346.282 135.376 346.657 135.513C347.05 135.666 347.936 135.41 348.431 135.683C350.375 136.723 346.998 138.412 346.913 138.616C346.657 139.298 347.374 142.18 346.998 142.453C346.282 142.402 344.492 140.322 344.321 140.322C343.98 140.288 342.377 142.539 341.286 142.095C340.194 141.652 341.32 139.588 341.2 139.162C341.115 138.855 339.188 138.326 339.069 137.559C338.813 136.109 341.388 136.229 341.917 135.598C342.377 135.035 342.377 132.324 343.605 132.119L343.622 132.136Z" fill="#FABD25"/>
<path d="M31.9461 15.6829C33.9584 15.3759 34.6064 18.923 34.9816 19.0594C35.3738 19.2129 36.2606 18.9571 36.7551 19.23C38.6992 20.2702 35.3226 21.9585 35.2374 22.1631C34.9816 22.8453 35.6978 25.7273 35.3226 26.0001C34.6064 25.949 32.8158 23.8685 32.6452 23.8685C32.3042 23.8344 30.7012 26.0854 29.6098 25.642C28.5183 25.1986 29.6439 23.1352 29.5245 22.7089C29.4392 22.4019 27.5122 21.8732 27.3928 21.1058C27.137 19.6563 29.7121 19.7757 30.2407 19.1447C30.7012 18.582 30.7012 15.8705 31.929 15.6658L31.9461 15.6829Z" fill="#FABD25"/>
<path d="M409.991 161.195C410.609 161.226 410.547 163.482 410.872 163.853C411.134 164.162 413.035 164.038 412.973 164.826C412.958 165.073 411.134 166.17 411.042 166.433C410.903 166.834 411.212 168.565 410.965 168.766C409.08 167.916 408.493 167.344 406.608 168.766C406.252 168.086 407.272 166.912 407.179 166.263C407.087 165.614 403.749 163.281 406.453 163.281C406.608 163.281 407.828 163.775 407.905 163.76C408.338 163.667 409.064 161.195 410.007 161.18L409.991 161.195Z" fill="#CDE96E"/>
<path d="M63.3193 27.6287C63.9373 27.6596 63.8755 29.9153 64.1999 30.2861C64.4626 30.5951 66.3629 30.4715 66.3011 31.2595C66.2857 31.5067 64.4626 32.6036 64.3699 32.8663C64.2308 33.268 64.5398 34.9984 64.2926 35.1992C62.4077 34.3495 61.8206 33.7778 59.9357 35.1992C59.5804 34.5194 60.6001 33.3452 60.5074 32.6963C60.4147 32.0474 57.0775 29.7145 59.7812 29.7145C59.9357 29.7145 61.1563 30.2089 61.2335 30.1934C61.6661 30.1007 62.3923 27.6287 63.3347 27.6133L63.3193 27.6287Z" fill="#CDE96E"/>
<path d="M361.829 135.032C363.635 133.956 365.31 131.613 365.31 129.458C365.31 127.35 363.186 124.385 361.389 126.803C360.573 127.903 361.734 130.135 362.725 130.671C364.372 131.562 367.249 131.385 368.404 129.81C369.72 128.015 369.596 125.411 368.791 123.48" stroke="#FFE3B4" stroke-width="3" stroke-linecap="round"/>
<path d="M29.7896 102.192C31.5962 101.116 33.2708 98.7729 33.2708 96.6184C33.2708 94.5098 31.1467 91.5451 29.3501 93.9636C28.5335 95.0628 29.6953 97.2954 30.6863 97.8315C32.3333 98.7225 35.2099 98.5454 36.3652 96.97C37.6812 95.1755 37.5565 92.5716 36.752 90.6406" stroke="#FFE3B4" stroke-width="3" stroke-linecap="round"/>
<path d="M406.301 182.015C408.614 179.187 413.777 180.407 416.248 182.672C417.905 184.191 419.606 187.174 419.691 189.419C419.727 190.377 420.109 192.608 419.206 193.346C418.493 193.93 415.341 193.724 414.587 193.329C413.418 192.716 412.976 191.273 413.152 190.042C413.423 188.138 418.511 186.564 420.175 186.409C422.625 186.181 424.856 187.491 426.542 189.177" stroke="#FFE3B4" stroke-width="3" stroke-linecap="round"/>
<path d="M66.8798 15.4208C66.0534 14.5943 65.3118 13.9735 64.948 12.8338C64.2057 10.5079 64.7187 8.07266 67.0832 6.99325C68.307 6.43453 69.9091 5.96275 71.263 6.0669C72.2381 6.1419 72.6068 8.28611 72.2346 8.95892C71.2196 10.7937 68.9133 11.3131 68.9133 8.58612C68.9133 7.25766 68.1495 5.19189 69.2974 4.19161C70.7825 2.89745 72.8408 2 74.8103 2" stroke="#9ABDC7" stroke-width="3" stroke-linecap="round"/>
<path d="M334.013 111.249C334.013 109.39 334.288 107.783 333.129 106.238" stroke="#9ABDC7" stroke-width="3" stroke-linecap="round"/>
<path d="M332.835 105.943C332.387 105.782 332.054 105.592 331.656 105.354" stroke="#9ABDC7" stroke-width="3" stroke-linecap="round"/>
<path d="M330.475 104.469C328.531 104.69 327.527 105.873 327.527 107.711" stroke="#9ABDC7" stroke-width="3" stroke-linecap="round"/>
<path d="M327.527 108.006H327.822" stroke="#9ABDC7" stroke-width="3" stroke-linecap="round"/>
<path d="M328.414 108.007C328.662 107.731 328.814 107.439 329.004 107.123" stroke="#9ABDC7" stroke-width="3" stroke-linecap="round"/>
<path d="M329.002 107.122C331.246 106.863 331.453 103.775 330.705 102.112C330.108 100.786 327.368 100.344 326.055 100.344" stroke="#9ABDC7" stroke-width="3" stroke-linecap="round"/>
<path d="M33.2158 61.3438C33.8868 61.8203 35.4205 65.7277 35.7081 65.9183C36.475 66.4901 40.8845 65.9183 41.0762 66.9666C37.6253 70.3022 38.8714 71.7318 39.3507 75.6392C35.804 73.6378 33.5034 74.2096 30.4359 76.8781C29.8608 72.0177 30.2442 70.3975 25.3555 68.2055C30.5318 66.5854 31.2987 66.6807 33.2158 61.3438Z" fill="#6CBACD"/>
<path d="M405.114 112.285C405.785 112.762 407.319 116.669 407.607 116.86C408.373 117.432 412.783 116.86 412.975 117.908C409.524 121.244 410.77 122.673 411.249 126.581C407.702 124.579 405.402 125.151 402.334 127.82C401.759 122.959 402.143 121.339 397.254 119.147C402.43 117.527 403.197 117.622 405.114 112.285Z" fill="#EEAD63"/>
<path d="M7.86034 30.2773C8.53135 30.7539 10.0651 34.6613 10.3526 34.8519C11.1195 35.4237 15.529 34.8519 15.7207 35.9002C12.2698 39.2358 13.516 40.6653 13.9953 44.5728C10.4485 42.5714 8.14793 43.1432 5.08047 45.8117C4.50533 40.9513 4.88875 39.3311 0 37.1391C5.17633 35.519 5.94318 35.6143 7.86034 30.2773Z" fill="#EEAD63"/>
<path d="M382.141 138.812C382.681 139.196 383.915 142.34 384.146 142.493C384.763 142.953 388.311 142.493 388.466 143.337C385.689 146.021 386.692 147.171 387.077 150.315C384.223 148.705 382.372 149.165 379.904 151.312C379.441 147.401 379.75 146.097 375.816 144.334C379.981 143.03 380.598 143.107 382.141 138.812Z" fill="#6CBACD"/>
<path d="M81.5633 18.2497C82.7202 18.0197 84.3399 21.317 84.8798 22.3139C87.8878 27.3749 91.2044 34.353 93.7496 39.7975C97.6061 47.9258 101.077 56.3609 103.776 65.026C100.768 58.3546 97.8375 51.5299 94.5209 45.0119C92.747 41.5612 80.8691 21.3937 80.7148 19.9368C80.7148 19.63 80.7148 19.2466 80.7148 18.9399C80.7148 18.7865 81.4861 18.3264 81.5633 18.3264V18.2497Z" fill="#F7C85A"/>
<path d="M777.119 88.5311C777.423 88.6828 778.257 88.9483 778.561 88.9483L778.662 89.9849C781.911 89.3149 784.743 91.6284 781.241 94.119C780.204 93.6259 779.395 92.21 778.042 91.8434C776.854 91.5273 775.615 91.7549 774.427 91.5273C774.275 91.3377 776.171 88.2909 777.107 88.5311H777.119Z" fill="#F6EBD3"/>
<path d="M749.852 98.0195L750.055 98.2218C749.941 98.285 749.739 98.3609 749.637 98.4241C749.245 98.7022 748.866 98.816 749.22 99.2458C745.023 101.167 741.432 105.023 742.204 109.992H742.001C741.711 109.145 742.153 108.222 741.281 107.716C739.422 106.654 735.933 109.082 735.604 111.13L736.123 113.924C733.19 110.788 738.31 105.719 741.698 107.729C742.545 103.418 745.187 101.294 748.512 98.8539C744.34 100.194 738.424 100.851 734.884 103.393C734.125 103.936 733.341 104.985 732.507 105.668H732.305C739.953 99.6504 741.382 101.13 749.865 98.0322L749.852 98.0195Z" fill="#455567"/>
<path d="M782.897 86.4727C781.709 87.0037 781.001 88.1668 780.419 89.2667C781.001 88.9254 783.302 87.5347 783.516 87.0922L783.934 87.7117C783.453 87.7749 780.824 89.2035 780.836 89.469C782.101 89.3931 783.428 92.225 783.63 92.2629C783.744 92.2882 784.857 91.6814 785.906 91.8458C787.12 92.0354 788.106 92.7813 789.104 93.287L788.902 93.4893C788.776 93.4134 788.624 93.3502 788.485 93.287C788.245 93.1606 788.118 92.9709 787.865 92.8698C785.615 91.9722 782.733 91.7573 781.468 94.311C781.228 94.3489 781.279 94.1087 781.266 94.1087C784.768 91.6182 781.936 89.3173 778.687 89.9747L778.586 88.938C780.47 88.938 781.165 87.6611 782.505 86.2578L782.922 86.4601L782.897 86.4727Z" fill="#546574"/>
<path d="M741.997 110.011C742.857 112.502 742.68 112.691 745.095 113.93C745.36 114.069 745.284 114.132 745.297 114.132C743.868 114.992 742.693 113.791 741.264 114.335L742.402 114.651L742.2 115.371C741.934 115.574 741.163 117.394 740.025 117.647C736.738 118.38 731.997 115.346 730.733 112.274C730.189 112.16 728.306 113.968 727.939 114.448C727.117 115.548 726.371 116.876 725.663 117.862L725.246 117.66C726.359 115.119 724.854 111.692 728.242 108.987C729.646 107.862 731.062 106.838 732.478 105.687C733.312 105.017 734.096 103.968 734.854 103.412C738.394 100.871 744.323 100.213 748.483 98.873C745.158 101.326 742.516 103.45 741.669 107.748C738.28 105.738 733.16 110.807 736.093 113.943L735.575 111.149C735.904 109.113 739.393 106.686 741.251 107.735C742.124 108.228 741.681 109.164 741.972 110.011H741.997Z" fill="#E2D1AF"/>
<path d="M774.638 127.152C775.195 130.894 769.303 132.765 767.205 129.945C766.067 128.416 765.991 126.203 767.407 124.889C769.948 122.524 774.095 123.548 774.638 127.164V127.152Z" fill="#E2D1AF"/>
<path d="M788.265 105.248V105.451C784.877 106.829 786.837 106.158 786.609 109.269C786.344 113.049 783.158 115.489 779.997 116.905C780.756 117.41 781.641 117.183 782.475 117.221V117.84C778.366 118.51 777.532 124.591 782.058 124.97C777.759 125.539 777.696 118.978 781.641 117.739C781.502 117.233 777.014 117.334 776.369 117.221C774.877 116.955 774.321 116.348 773.17 115.779V115.577C775.395 117.233 778.151 117.183 780.604 116.197C786.331 113.883 788.531 106.677 783.183 102.568C778.227 98.75 771.16 100.849 766.761 104.528C767.873 105.855 770.187 107.853 772.032 107.322C772.26 107.258 772.943 106.26 773.271 106.083C775.901 104.692 776.596 104.464 779.567 105.261L779.365 105.463C776.306 103.782 771.716 106.753 771.312 110.002C771.097 111.671 771.565 113.921 772.753 115.16L772.336 115.362C771.843 114.275 769.466 112.568 768.417 111.949C768.67 111.127 771.198 113.782 771.514 113.807C770.844 111.835 770.92 109.686 771.716 107.815C767.152 107.157 765.206 102.517 761.59 100.065V99.8626C765.218 101.354 768.733 95.5768 768.101 92.2266C768.91 96.2089 766.609 99.4833 762.829 100.596L766.445 104.212C771.16 100.697 777.949 98.4466 783.17 102.151C785.623 103.883 784.852 105.956 788.227 105.248H788.265Z" fill="#546574"/>
<path d="M789.088 93.2811C788.09 92.7628 787.104 92.0295 785.89 91.8399C784.841 91.6755 783.728 92.2697 783.614 92.2571C783.412 92.2192 782.085 89.3873 780.82 89.4631C780.82 89.1976 783.437 87.7691 783.918 87.7058C788.064 87.2001 790.985 90.9802 791.25 94.7224C790.656 94.0397 789.86 93.673 789.076 93.2811H789.088Z" fill="#F6EBD3"/>
<path d="M763.275 120.334C762.972 120.499 763.136 120.499 763.073 120.752C762.871 121.561 763.503 121.434 763.895 122.193C762.428 121.826 761.783 121.902 761.316 120.132C760.785 121.219 760.721 121.283 759.558 121.169C758.041 113.116 768.724 115.96 766.79 120.031C765.816 122.066 763.92 119.98 763.275 120.347V120.334Z" fill="#E2D1AF"/>
<path d="M778.559 132.526C777.206 131.831 774.703 129.34 775.664 127.773C777.079 128.86 776.207 127.823 776.599 127.773C777.168 127.697 776.675 128.468 776.7 128.493C779.267 131.907 784.88 131.907 788.066 129.315C787.8 129.442 785.398 131.287 786.511 131.49C786.801 131.54 787.408 130.794 787.446 131.389C784.867 133.475 781.694 133.298 778.571 132.526H778.559Z" fill="#E2D1AF"/>
<path d="M769.069 123.631C768.841 123.782 767.526 124.617 767.413 124.667C764.72 125.729 763.051 125.616 761.016 123.428C761.167 121.899 761.939 123.542 761.951 122.189C763.911 123.947 766.995 124.465 769.183 122.809L769.081 123.631H769.069Z" fill="#E2D1AF"/>
<path d="M745.314 114.131C745.453 114.207 745.58 114.308 745.731 114.333C745.984 114.624 745.921 114.725 745.934 114.75C744.96 115.547 743.443 114.46 742.217 115.37L742.419 114.649L741.281 114.333C742.71 113.79 743.886 114.978 745.314 114.131Z" fill="#82817C"/>
<path d="M749.648 98.4415C749.75 98.3783 749.939 98.2898 750.066 98.2392C750.432 98.0622 751.052 97.7082 751.406 97.6197C751.456 97.6071 753.239 97.2405 752.442 97.822L749.648 98.4415Z" fill="#E2D1AF"/>
<path d="M774.019 91.6254C773.93 91.853 773.779 91.9794 773.602 92.1438C773.994 92.5104 774.196 92.0426 774.221 92.0426C775.94 91.9541 777.47 91.676 779.076 92.6621C782.274 94.609 779.291 99.6913 783.614 100.298C786.459 100.703 789.202 97.2386 786.092 95.7595C788.532 97.8581 785.928 100.475 783.197 99.8935C780.96 99.4131 780.593 96.025 781.44 94.3182C782.717 91.7518 785.599 91.9794 787.837 92.877C784.778 92.9276 780.707 93.9516 781.541 97.8328L781.642 96.2778C783.02 93.408 785.599 93.1425 788.456 93.2816C788.596 93.3448 788.735 93.4206 788.874 93.4839C794.651 96.695 794.917 103.863 788.254 105.254C784.866 105.962 785.637 103.889 783.197 102.157C777.976 98.4523 771.187 100.703 766.471 104.217L762.856 100.602C766.623 99.489 768.937 96.2146 768.127 92.2323C768.76 95.5825 765.245 101.373 761.617 99.8683C759.657 99.0591 758.848 97.8708 756.143 97.3903C753.665 96.9479 752.678 98.781 752.11 94.8113C749.834 78.9072 774.474 78.8187 772.148 93.7746C772.565 94.1792 772.755 92.5989 772.767 92.5357C773.526 85.1272 766.636 82.27 760.378 82.2068C764.095 73.8376 777.597 77.9337 776.484 86.7455C776.294 88.1993 774.575 90.121 774.006 91.6001L774.019 91.6254Z" fill="#F6EBD3"/>
<path d="M777.122 88.5277C776.174 88.2874 774.29 91.3343 774.442 91.5239C775.63 91.7388 776.869 91.5239 778.057 91.84C779.41 92.2066 780.219 93.6225 781.256 94.1156C781.268 94.1156 781.218 94.3558 781.458 94.3179C780.611 96.0246 780.965 99.4128 783.215 99.8932C785.946 100.475 788.538 97.8704 786.11 95.7591C789.22 97.2509 786.477 100.702 783.633 100.298C779.309 99.6909 782.292 94.6086 779.094 92.6617C777.488 91.6756 775.959 91.9537 774.239 92.0422L774.037 91.625C774.606 90.1585 776.338 88.2242 776.515 86.7704C777.627 77.9586 764.125 73.8625 760.408 82.2317C766.666 82.2823 773.569 85.1521 772.798 92.5606C772.798 92.6238 772.596 94.2041 772.179 93.7995C774.505 78.8436 749.877 78.9321 752.14 94.8362C752.709 98.8059 753.683 96.9728 756.173 97.4153C758.879 97.8957 759.688 99.084 761.647 99.8932V100.095C757.324 97.1624 753.923 97.1245 749.258 99.2737C748.904 98.8312 749.283 98.7174 749.675 98.4519L752.469 97.8325C753.278 97.2509 751.496 97.6175 751.432 97.6302C751.078 97.7187 750.459 98.0727 750.092 98.2497L749.89 98.0474C750.535 97.8072 752.254 97.352 752.368 96.8084C752.343 96.1384 752.014 95.6453 751.951 94.95C751.534 89.9436 752.343 86.7198 756.603 83.7994C757.463 83.2052 758.891 83.0156 759.701 82.3582C760.952 81.3341 761.306 79.7033 763 78.6413C769.625 74.4946 779.309 80.7399 776.11 88.4518C777.804 87.6427 776.894 88.4265 777.147 88.5529L777.122 88.5277Z" fill="#878C91"/>
<path d="M774.229 92.0344C774.229 92.0344 774.001 92.5022 773.609 92.1355C773.786 91.9712 773.938 91.8574 774.027 91.6172L774.229 92.0344Z" fill="#455567"/>
<path d="M787.852 92.8672C788.104 92.9683 788.231 93.158 788.471 93.2844C785.614 93.1453 783.035 93.4108 781.657 96.2806L781.556 97.8356C780.721 93.9544 784.792 92.9304 787.852 92.8798V92.8672Z" fill="#A5A297"/>
<path d="M767.415 90.582C764.065 86.1193 755.67 88.6098 757.503 94.1977C759.336 99.7857 768.06 94.4 762.358 90.3797L761.018 90.2786C766.72 89.4063 764.962 99.1915 759.058 96.3722C752.282 93.1358 762.358 82.8322 767.428 90.5947L767.415 90.582Z" fill="#A5A297"/>
<path d="M767.41 90.5938C767.676 90.9983 768.232 91.3144 768.131 92.035C767.537 91.9465 767.6 90.8466 767.41 90.5938Z" fill="#A5A297"/>
<path d="M760.28 90.3877C760.963 90.3624 760.154 90.8302 759.863 91.0072C759.496 90.7417 760.242 90.3877 760.28 90.3877Z" fill="#DDD5C2"/>
<path d="M761.62 100.097C765.224 102.549 767.17 107.176 771.747 107.846C770.938 109.717 770.875 111.867 771.545 113.839C771.229 113.801 768.7 111.159 768.447 111.98C769.497 112.587 771.873 114.294 772.366 115.394C773.871 118.706 771.772 121.829 769.067 123.649L769.168 122.828C766.993 124.484 763.896 123.965 761.937 122.208C761.937 123.561 761.153 121.917 761.001 123.447C760.483 122.891 759.686 121.905 759.56 121.171C760.723 121.298 760.786 121.222 761.317 120.135C761.785 121.905 762.43 121.829 763.896 122.195C765.881 122.689 767.992 123.371 769.269 121.159C769.294 121.108 769.964 120.893 769.585 120.539C769.256 120.653 769.307 121.134 769.269 121.159C769.105 121.273 768.801 121.601 768.65 121.475C769.522 120.059 769.509 118.972 769.067 117.442C768.89 116.835 768.852 116.456 768.447 115.887L767.512 115.166C767.866 116.14 768.574 116.57 768.852 117.644C769.927 121.791 765.653 124.319 763.074 120.742C763.138 120.489 762.973 120.501 763.277 120.324C766.791 123.308 768.877 118.112 765.451 116.19C762.025 114.269 760.925 117.366 758.017 116.81C758.915 115.331 762.139 115.154 762.354 113.295L761.317 114.332L761.216 113.915C761.469 113.586 761.431 113.624 761.633 113.295C763.289 110.425 763.846 108.934 762.05 105.862C761.835 105.356 761.747 105.419 761.633 105.242C761.519 105.065 761.532 104.597 761.115 104.42C760.748 104.85 761.532 105.103 761.633 105.242C761.709 105.356 762 105.786 762.05 105.862C763.15 108.453 763.062 110.843 761.633 113.295C761.583 113.371 761.165 113.384 761.216 113.915C757.853 118.163 749.952 118.731 745.931 114.736C745.919 114.724 745.982 114.61 745.729 114.319C745.704 114.294 745.501 113.94 745.312 113.7C739.345 105.912 750.015 99.5656 757.297 103.371C757.562 103.548 759.168 105.002 759.357 105.229C761.899 109.25 760.407 112.309 756.564 114.522C760.811 113.055 762.366 108.845 759.357 105.229C758.612 104.041 758.447 103.978 757.297 103.371C751.102 99.161 742.139 103.801 743.251 111.525L743.871 112.764C743.137 112.511 742.316 110.628 742.214 109.97C741.443 105.014 745.034 101.159 749.231 99.2242C753.896 97.0877 757.297 97.113 761.62 100.046V100.097Z" fill="#E2D1AF"/>
<path d="M757.281 103.396C750.011 99.5907 739.329 105.937 745.296 113.725L745.093 113.927C742.679 112.688 742.856 112.486 741.996 110.008H742.198C742.3 110.665 743.121 112.549 743.855 112.802L743.235 111.563C742.123 103.839 751.086 99.1988 757.281 103.409V103.396Z" fill="#908D81"/>
<path d="M745.927 106.704C745.56 107.589 744.928 108.613 744.991 109.599C746.003 104.428 755.131 103.215 756.041 108.461C757.179 114.947 747.103 113.253 751.388 107.943C748.241 115.288 759.088 112.456 755.004 107.007C752.223 103.303 745.75 106.021 745.093 110.307C744.953 111.23 745.535 112.026 745.194 112.684C744.574 110.282 744.321 108.689 745.914 106.691L745.927 106.704Z" fill="#A5A297"/>
<path d="M752.637 102.99C757.656 104.002 760.728 111.815 754.394 113.003C757.732 111.84 758.591 108.957 756.67 105.986L752.637 102.99Z" fill="#A5A297"/>
<path d="M769.262 121.159C767.985 123.372 765.873 122.689 763.889 122.196C763.484 121.425 762.865 121.551 763.067 120.755C765.646 124.333 769.919 121.804 768.844 117.657L769.047 117.455C769.489 118.972 769.502 120.072 768.63 121.488C768.781 121.614 769.085 121.298 769.249 121.172L769.262 121.159Z" fill="#82817C"/>
<path d="M759.349 105.254C762.358 108.87 760.815 113.08 756.555 114.546C760.398 112.334 761.877 109.274 759.349 105.254Z" fill="#A5A297"/>
<path d="M757.375 104.637C760.156 107.469 760.144 112.349 755.934 113.727C759.916 111.464 759.436 108.126 757.375 104.637Z" fill="#BCB8A8"/>
<path d="M762.965 105.674C764.356 107.608 764.444 110.212 763.382 112.286L763.698 107.848L762.977 105.674H762.965Z" fill="#A5A297"/>
<path d="M761.613 113.301C763.042 110.848 763.13 108.459 762.03 105.867C763.826 108.939 763.269 110.444 761.613 113.301Z" fill="#102E47"/>
<path d="M769.058 117.442L768.856 117.644C768.578 116.569 767.857 116.139 767.516 115.166L768.451 115.887C768.856 116.456 768.894 116.822 769.071 117.442H769.058Z" fill="#404861"/>
<path d="M759.354 105.255C759.164 105.027 757.546 103.573 757.293 103.396C758.456 104.003 758.608 104.067 759.354 105.255Z" fill="#A5A297"/>
<path d="M761.611 105.255C761.51 105.116 760.726 104.851 761.093 104.434C761.51 104.611 761.498 105.091 761.611 105.255Z" fill="#102E47"/>
<path d="M745.709 114.339C745.558 114.314 745.431 114.2 745.292 114.137C745.279 114.137 745.355 114.061 745.09 113.935L745.292 113.732C745.469 113.973 745.684 114.327 745.709 114.352V114.339Z" fill="#455567"/>
<path d="M745.93 106.709C745.93 106.709 745.917 106.216 746.246 106.09C746.625 106.444 745.955 106.671 745.93 106.709Z" fill="#A5A297"/>
<path d="M762.03 105.873C761.993 105.798 761.689 105.368 761.613 105.254C761.714 105.431 761.803 105.368 762.03 105.873Z" fill="#102E47"/>
<path d="M769.262 121.16C769.262 121.16 769.249 120.655 769.578 120.541C769.957 120.895 769.3 121.11 769.262 121.16Z" fill="#82817C"/>
<path d="M761.213 113.932C761.15 113.401 761.58 113.388 761.631 113.312C761.441 113.641 761.479 113.603 761.213 113.932Z" fill="#102E47"/>
<path d="M782.478 117.234C781.644 117.196 780.759 117.424 780 116.918C783.161 115.489 786.334 113.05 786.612 109.282C786.84 106.172 784.867 106.842 788.268 105.464C790.999 104.352 791.77 103.479 794.779 104.225C800.569 105.666 800.594 110.496 805.31 112.076C810.999 113.985 816.878 111.065 822.655 112.076C825.854 112.632 829.533 115.11 831.644 117.55C823.604 110.736 815.892 118.739 808.407 120.546C798.9 122.835 791.719 117.651 782.491 117.247L782.478 117.234Z" fill="#E2D1AF"/>
<path d="M795.6 112.487C795.84 112.449 798.799 114.598 799.734 114.965C803.072 116.28 806.713 116.545 810.265 116.001C811.024 115.888 822.301 111.867 822.352 113.422C816.22 113.625 811.239 117.089 804.905 116.621C801.428 116.368 798.432 114.585 795.411 113.106C795.132 112.929 795.499 112.499 795.613 112.487H795.6Z" fill="#A5A297"/>
<path d="M821.212 113.719C821.553 113.731 821.92 113.656 821.629 114.136C813.386 115.438 805.434 120.192 797.355 115.071C800.959 116.5 804.688 117.385 808.607 117.031C812.311 116.702 817.937 113.592 821.212 113.731V113.719Z" fill="#A5A297"/>
<path d="M819.556 112.288C819.922 112.617 819.1 112.857 818.936 112.908C811.995 114.943 803.993 116.422 797.355 112.591C804.739 115.676 812.147 114.753 819.556 112.275V112.288Z" fill="#455567"/>
<path d="M792.086 113.108C798.432 117.596 805.032 119.113 812.642 116.926C807.775 118.962 802.25 118.608 797.459 116.61L792.086 113.096V113.108Z" fill="#A5A297"/>
<path d="M813.05 117.862C812.974 117.9 812.557 118.481 812.114 118.683C806.666 121.25 799.472 119.581 794.668 116.307C800.989 119.568 806.261 120.58 813.05 117.862Z" fill="#908D81"/>
<path d="M787.953 115.166L796.727 119.818C794.274 119.553 792.606 118.605 790.633 117.442C791.948 116.772 788.535 115.899 787.953 115.166Z" fill="#BCB8A8"/>
<path d="M811.904 114.764C812.055 114.764 812.751 114.663 812.523 114.967C809.552 115.801 806.404 116.18 803.332 115.485C805.317 115.156 807.416 115.535 809.426 115.384C810.083 115.333 811.297 114.815 811.904 114.764Z" fill="#A5A297"/>
<path d="M813.047 117.865C813.982 117.372 815.108 116.184 816.347 116.31C815.259 116.879 814.185 117.397 813.047 117.865Z" fill="#908D81"/>
<path d="M817.697 115.379C818.468 115.556 816.838 116.264 816.762 115.897L817.697 115.379Z" fill="#908D81"/>
<path d="M795.906 114.141C795.767 114.053 795.223 114.343 795.286 113.825C795.64 113.446 795.868 114.116 795.906 114.141Z" fill="#A5A297"/>
<path d="M795.902 114.148C795.991 114.199 796.383 114.123 796.522 114.464C796.168 114.844 795.94 114.174 795.902 114.148Z" fill="#A5A297"/>
<path d="M773.184 115.788C774.347 116.37 774.891 116.964 776.383 117.229C777.015 117.343 781.516 117.229 781.655 117.748C777.71 118.987 777.773 125.548 782.072 124.979C777.546 124.6 778.38 118.519 782.489 117.849C789.569 116.698 794.461 126.029 788.785 131.073C786.143 133.412 781.718 134.145 778.557 132.514C781.68 133.285 784.866 133.462 787.432 131.376C787.394 130.795 786.8 131.528 786.497 131.477C785.372 131.275 787.786 129.442 788.052 129.303C784.878 131.895 779.265 131.895 776.686 128.481C776.661 128.456 777.154 127.685 776.585 127.761C776.193 127.811 777.078 128.848 775.65 127.761C775.207 127.432 775.346 127.634 775.03 127.141C773.652 125.042 773.88 122.919 770.074 123.323C772.565 121.629 773.728 118.532 772.552 115.687C772.767 115.434 772.944 115.687 773.172 115.788H773.184Z" fill="#E2D1AF"/>
<path d="M773.185 115.579V115.782C772.957 115.668 772.78 115.428 772.565 115.68C773.741 118.525 772.565 121.635 770.087 123.316C773.893 122.912 773.678 125.036 775.043 127.134H774.626C774.082 123.531 769.936 122.495 767.395 124.859V124.657C767.508 124.619 768.823 123.772 769.051 123.62C771.756 121.799 773.867 118.677 772.35 115.364L772.768 115.162C772.843 115.251 773.159 115.554 773.185 115.579Z" fill="#82817C"/>
<path d="M782.996 121.992C788.584 120.69 787.901 130.69 781.959 129.628C783.691 129.337 786.245 128.263 786.611 126.215C787.18 122.966 783.527 120.677 781.453 123.737C781.441 123.206 782.68 122.055 783.008 121.98L782.996 121.992Z" fill="#82817C"/>
<path d="M780.616 116.208C778.164 117.195 775.408 117.245 773.182 115.589C773.157 115.576 772.854 115.26 772.765 115.172C771.577 113.933 771.109 111.67 771.324 110.014L772.045 110.835L772.563 110.317C773.081 112.213 774.03 114.122 775.762 115.172C777.494 116.221 777.696 115.753 779.276 115.791C779.352 115.791 780.098 116.373 780.616 116.208Z" fill="#E2D1AF"/>
<path d="M780.62 116.2C780.102 116.365 779.343 115.783 779.28 115.783C777.699 115.745 777.56 116.251 775.765 115.164C773.97 114.076 773.085 112.205 772.567 110.309L772.048 110.827L771.328 110.006C771.732 106.756 776.321 103.786 779.381 105.467C782.44 107.148 780.367 113.179 776.802 111.245C775.904 110.764 775.057 109.108 775.462 108.147C775.487 108.071 776.574 107.667 776.701 107.212C775.841 106.959 775.715 107.806 775.462 108.147C775.373 108.261 774.88 108.362 774.842 108.463C774.589 109.234 775.854 111.055 776.6 111.459C780.304 113.432 782.428 108.299 780.215 105.783C780.241 105.732 781.201 106.061 781.252 106.099C782.782 107.148 783.098 110.397 781.353 111.472C780.506 111.99 779.596 111.687 778.875 112.294C782.643 112.509 784.526 108.628 781.252 106.099C780.455 105.492 780.582 105.53 779.596 105.277C776.625 104.481 775.93 104.708 773.3 106.099C772.971 106.276 772.289 107.275 772.061 107.338C770.215 107.869 767.902 105.872 766.789 104.544C771.189 100.865 778.256 98.7665 783.212 102.585C788.559 106.706 786.359 113.899 780.632 116.213L780.62 116.2Z" fill="#E2D1AF"/>
<path d="M781.241 106.094C781.241 106.094 780.229 105.728 780.204 105.778C782.416 108.307 780.292 113.439 776.588 111.455C775.842 111.05 774.591 109.229 774.831 108.458C774.869 108.357 775.362 108.269 775.45 108.142C775.058 109.103 775.893 110.759 776.79 111.24C780.356 113.161 782.328 107.08 779.37 105.462L779.572 105.26C780.558 105.525 780.432 105.475 781.228 106.082L781.241 106.094Z" fill="#A5A297"/>
<path d="M781.24 106.094C784.514 108.622 782.631 112.503 778.863 112.289C779.584 111.682 780.494 111.985 781.341 111.467C783.086 110.392 782.77 107.143 781.24 106.094Z" fill="#A5A297"/>
<path d="M783.934 111.047C784.376 110.2 784.186 109.012 784.869 108.367C785.223 109.442 784.515 110.289 783.934 111.047Z" fill="#BCB8A8"/>
<path d="M782.077 112.906C781.091 113.614 780.004 114.196 778.777 113.842C779.865 113.538 781.053 113.412 782.077 112.906Z" fill="#BCB8A8"/>
<path d="M782.078 112.907C782.179 112.831 783.861 111.15 783.937 111.049C783.33 112.225 783.241 112.338 782.078 112.907Z" fill="#BCB8A8"/>
<path d="M775.465 108.146C775.718 107.805 775.844 106.958 776.704 107.21C776.577 107.666 775.49 108.07 775.465 108.146Z" fill="#A5A297"/>
<path d="M679.489 159.27C680.82 159.361 681.627 158.877 683.029 159.925C684.532 161.044 683.725 162.323 683.856 162.394C683.967 162.454 684.986 161.638 686.246 161.9C686.478 161.95 688.586 163.411 688.717 163.633C690.664 166.746 685.197 169.346 682.293 168.651C682.263 168.651 681.859 168.51 681.799 168.49C681.768 168.48 681.405 168.228 681.304 168.157C678.975 166.646 679.55 163.583 682.131 163.22C686.962 162.545 685.581 168.167 683.039 166.837C682.505 166.555 682.303 165.024 682.131 165.769C681.799 167.19 684.875 167.935 685.591 165.93C686.458 163.522 683.836 162.887 681.97 163.049C681.728 163.069 681.062 163.311 680.982 163.129C681.607 160.882 678.773 159.149 677.522 161.487C681.536 158.242 682.283 166.243 677.27 164.701C676.947 164.6 676.11 163.976 675.868 163.714C674.819 162.575 674.648 160.902 675.707 159.683C676.766 158.464 677.916 159.159 679.499 159.27H679.489Z" fill="#E2D1AF"/>
<path d="M682.134 163.218L681.973 163.057C683.839 162.896 686.461 163.53 685.593 165.938C684.877 167.944 681.801 167.198 682.134 165.777C682.305 165.042 682.497 166.563 683.042 166.845C685.583 168.175 686.965 162.543 682.134 163.228V163.218Z" fill="#82817C"/>
<path d="M691.025 153.996C692.063 154.067 693.435 154.661 694.242 155.316C695.785 156.576 695.412 157.946 697.54 158.772C702.3 160.616 706.405 157.231 711.377 159.921C712.225 160.384 713.213 161.311 713.929 161.976C708.826 157.996 704.993 162.631 700.334 163.871C694.635 165.382 691.771 162.833 686.415 161.734C685.629 161.573 684.61 161.765 684.519 161.734C684.398 161.694 683.813 160.142 683.037 159.598C682.452 159.185 681.806 159.064 681.141 158.853C683.198 157.664 684.469 156.475 684.439 153.996C684.439 153.724 684.469 153.432 684.439 153.17C685.75 155.074 689.542 156.112 691.025 153.996Z" fill="#E2D1AF"/>
<path d="M686.407 161.734L686.246 161.896C684.985 161.634 683.966 162.45 683.855 162.389C683.734 162.319 684.531 161.039 683.028 159.921C681.616 158.863 680.82 159.356 679.488 159.266V158.933C680.527 158.843 681.122 158.5 681.959 157.946C683.371 157.019 684.319 155.769 684.269 153.996H684.43C684.461 156.475 683.19 157.664 681.132 158.853C681.788 159.064 682.443 159.185 683.028 159.598C683.805 160.142 684.39 161.704 684.511 161.734C684.602 161.765 685.62 161.573 686.407 161.734Z" fill="#455567"/>
<path d="M705.61 159.76C706.003 159.71 706.931 159.67 707.254 159.921C705.499 160.194 705.116 160.194 703.714 161.483L706.84 160.335C706.689 160.456 706.578 160.637 706.427 160.748C704.228 162.309 699.397 164.032 697.198 163.378C696.966 163.307 695.807 163.317 696.049 162.884C697.188 163.619 703.26 162.763 703.542 161.644C703.714 160.979 701.092 162.138 700.496 162.219C697.38 162.652 694.879 162.299 692.176 160.657C695.998 162.199 700.305 162.894 703.956 160.576C700.527 161.796 696.492 162.551 693.245 160.415C695.161 161.06 697.118 161.685 699.175 161.564C701.354 161.443 703.583 160.032 705.6 159.75L705.61 159.76Z" fill="#A5A297"/>
<path d="M692.922 158.945C697.188 161.102 701.555 160.275 706.023 159.358C702.473 160.628 698.59 161.021 694.899 160.104L692.922 158.955V158.945Z" fill="#455567"/>
<path d="M682.294 153.344L682.788 154.171C683.363 156.82 682.415 157.143 680.065 157.788L678.502 157.707C679.228 158.433 680.963 157.818 681.8 157.455L681.961 157.949C681.124 158.503 680.529 158.846 679.49 158.936C677.987 159.067 676.938 158.795 675.698 157.949C675.93 157.667 674.639 155.763 674.951 155.642C676.363 157.486 674.649 153.717 675.607 153.012C675.768 153.596 675.415 154.13 675.526 154.745C675.789 156.166 679.198 158.302 678.159 156.145C680.327 157.264 681.487 155.48 680.388 153.516C680.166 154.563 681.195 156.528 679.066 156.317C675.425 155.954 678.461 148.981 682.284 153.354L682.294 153.344Z" fill="#E2D1AF"/>
<path d="M691.028 153.999C689.546 156.115 685.743 155.077 684.442 153.173C684.331 152.216 682.95 151.178 684.694 150.211C685.995 149.485 687.72 149.888 688.487 151.198L687.992 150.211C687.165 149.556 685.612 149.425 684.694 149.878C684.301 150.07 683.625 151.178 683.545 151.198C683.393 151.218 681.78 149.233 680.993 149.798C682.798 150.412 684.23 152.004 684.291 153.999C684.341 155.773 683.403 157.022 681.981 157.949L681.82 157.455C683.524 156.73 682.879 156.911 683.141 155.229C683.212 154.775 683.635 154.604 683.303 153.415C682.798 151.621 682.536 152.861 682.233 152.841C681.649 152.81 680.569 150.956 678.28 152.186C675.99 153.415 677.644 154.987 678.199 156.135C679.238 158.302 675.819 156.166 675.567 154.735C675.456 154.12 675.809 153.586 675.648 153.002C674.689 153.717 676.404 157.475 674.992 155.632C674.669 155.753 675.97 157.657 675.738 157.939C675.537 157.798 675.052 157.435 674.911 157.284C673.035 155.067 674.084 153.526 675.738 151.601L674.498 152.669L674.911 151.269C673.751 151.561 674.528 153.344 673.671 153.818C672.692 148.79 677.493 143.621 682.566 144.598C684.039 144.881 685.572 146.896 683.716 147.893C687.196 145.737 693.701 150.201 691.048 153.979L691.028 153.999Z" fill="#E2D1AF"/>
<path d="M684.432 153.184C684.462 153.446 684.432 153.739 684.432 154.011H684.271C684.21 152.026 682.778 150.434 680.973 149.809C681.759 149.245 683.373 151.23 683.524 151.209C683.615 151.199 684.281 150.091 684.674 149.889C685.592 149.436 687.145 149.557 687.972 150.222L688.466 151.209C687.7 149.9 685.985 149.497 684.674 150.222C682.939 151.189 684.321 152.227 684.422 153.184H684.432Z" fill="#878C91"/>
<path d="M681.798 157.466C680.961 157.829 679.227 158.433 678.5 157.718L680.064 157.798C682.404 157.154 683.362 156.831 682.787 154.181C682.615 153.395 682.636 153.748 682.293 153.355C678.47 148.982 675.434 155.955 679.075 156.317C681.203 156.529 680.175 154.574 680.397 153.516C681.506 155.481 680.336 157.264 678.168 156.146C677.613 154.997 676.05 153.375 678.248 152.196C680.447 151.017 681.627 152.821 682.202 152.851C682.504 152.871 682.777 151.632 683.271 153.425C683.604 154.604 683.18 154.786 683.11 155.239C682.857 156.912 683.493 156.73 681.788 157.466H681.798Z" fill="#A5A297"/>
<path d="M688.475 151.369C689.322 152.075 687.769 153.233 686.992 153.012C687.204 152.427 687.728 152.901 688.313 152.186C688.505 151.944 688.283 151.601 688.475 151.359V151.369Z" fill="#A5A297"/>
<path d="M674.547 157.623C674.749 157.855 675.859 158.923 675.869 159.024C675.889 159.225 674.588 160.696 674.547 160.837C674.517 160.938 674.89 160.898 674.88 160.999C674.689 162.238 674.467 162.651 675.536 163.719C673.73 163.739 672.298 163.094 670.675 162.399C670.846 165.472 666.973 166.591 664.744 165.029C663.433 164.112 663.776 162.399 661.618 162.722C659.177 163.084 659.217 166.45 658.985 166.51C656.847 162.772 659.943 161.533 661.87 159.346C665.823 154.862 669.212 151.406 674.558 157.613L674.547 157.623Z" fill="#E2D1AF"/>
<path d="M675.697 157.958C676.937 158.804 677.986 159.076 679.489 158.945V159.278C677.905 159.167 676.736 158.492 675.697 159.691C674.658 160.89 674.809 162.583 675.858 163.721C675.606 163.973 675.545 163.721 675.525 163.721C674.456 162.653 674.668 162.24 674.87 161.001C674.89 160.89 674.507 160.94 674.537 160.84C674.577 160.699 675.878 159.228 675.858 159.026C675.848 158.935 674.739 157.857 674.537 157.625L674.87 157.293C675.001 157.454 675.495 157.817 675.697 157.948V157.958Z" fill="#616A70"/>
<path d="M671.996 158.45C672.259 158.37 672.571 158.873 672.329 158.944C672.299 158.944 671.855 158.561 671.996 158.45Z" fill="#BCB8A8"/>
<path d="M682.787 154.172L682.293 153.346C682.636 153.739 682.616 153.376 682.787 154.172Z" fill="#989493"/>
</svg>
