<svg width="127" height="127" viewBox="0 0 127 127" fill="none" xmlns="http://www.w3.org/2000/svg">
<path d="M18.0647 87.0396C24.9367 91.1302 31.3068 92.1673 34.5823 92.406C34.8292 95.6818 35.858 102.028 39.9236 108.876C39.1417 108.925 38.3434 108.95 37.5287 108.95C32.7223 108.95 27.2494 108.085 21.1509 105.839C18.5008 98.6696 17.7519 92.3895 18.0564 87.0396M15.0854 81.4344L14.7726 86.8502C14.4023 93.2949 15.5133 100.069 18.0647 106.983L18.5914 108.407L20.0152 108.933C25.9737 111.131 31.8664 112.242 37.5287 112.242C38.3928 112.242 39.2652 112.217 40.1211 112.16L45.5118 111.83L42.7547 107.188C39.0101 100.884 38.0801 95.0645 37.8661 92.1591L37.6521 89.3277L34.821 89.1137C31.9076 88.8997 26.0642 87.9696 19.7436 84.2L15.0854 81.418V81.4344Z" fill="#C9A076"/>
<path d="M16.584 41.9678L17.917 47.2275C19.7275 54.3711 23.2 59.153 25.1094 61.3672L26.9619 63.5156L25.1094 65.6641C23.2 67.87 19.7357 72.6525 17.917 79.8047L16.584 85.0557L12.5342 81.4502C7.71147 77.1538 3.71178 71.5816 0.633789 64.8818L0 63.5078L0.633789 62.1328C3.7118 55.4331 7.71967 49.8609 12.5342 45.5645L16.584 41.9512V41.9678ZM14.7236 48.0176C10.7322 51.5814 6.82308 56.5608 3.62988 63.499C6.8149 70.4375 10.7321 75.4175 14.7236 78.9814C16.6988 71.2281 20.4682 65.9929 22.6162 63.499C20.46 61.0051 16.6824 55.7707 14.7236 48.0176Z" fill="#C9A076"/>
<path d="M16.584 41.9678L17.917 47.2275C19.7275 54.3711 23.2 59.153 25.1094 61.3672L26.9619 63.5156L25.1094 65.6641C23.2 67.87 19.7357 72.6525 17.917 79.8047L16.584 85.0557L12.5342 81.4502C7.71147 77.1538 3.71178 71.5816 0.633789 64.8818L0 63.5078L0.633789 62.1328C3.7118 55.4331 7.71967 49.8609 12.5342 45.5645L16.584 41.9512V41.9678ZM14.7236 48.0176C10.7322 51.5814 6.82308 56.5608 3.62988 63.499C6.8149 70.4375 10.7321 75.4175 14.7236 78.9814C16.6988 71.2281 20.4682 65.9929 22.6162 63.499C20.46 61.0051 16.6824 55.7707 14.7236 48.0176Z" stroke="#FBB874"/>
<path d="M65.9912 62.4707L60.3779 68.0928L38.1816 90.2988L37.1699 91.3115L35.7373 91.2617C32.7825 91.1629 25.0304 90.3311 16.8418 84.792L15.0391 83.5742L15.4502 81.4424C17.3266 71.7137 22.2239 65.656 24.2402 63.5078L25.2197 62.4707H65.9912ZM26.6436 65.7627C24.9893 67.5241 20.4211 73.0722 18.6846 82.0684C26.2562 87.1961 33.4169 87.8874 35.8447 87.9697L58.041 65.7627H26.6436Z" fill="#C9A076"/>
<path d="M65.9912 62.4707L60.3779 68.0928L38.1816 90.2988L37.1699 91.3115L35.7373 91.2617C32.7825 91.1629 25.0304 90.3311 16.8418 84.792L15.0391 83.5742L15.4502 81.4424C17.3266 71.7137 22.2239 65.656 24.2402 63.5078L25.2197 62.4707H65.9912ZM26.6436 65.7627C24.9893 67.5241 20.4211 73.0722 18.6846 82.0684C26.2562 87.1961 33.4169 87.8874 35.8447 87.9697L58.041 65.7627H26.6436Z" stroke="#FBB874"/>
<path d="M63.4922 100.063L61.3486 101.904C59.1266 103.814 54.3282 107.287 47.2012 109.09L41.9336 110.424L45.5547 114.473C49.8672 119.296 55.4389 123.296 62.1133 126.366L63.4883 127L64.8623 126.366C71.5284 123.296 77.0837 119.28 81.3633 114.44L84.9434 110.398L79.709 109.065C72.615 107.263 67.8418 103.798 65.6279 101.896L63.4922 100.063ZM63.4922 100.063L63.4961 100.061L63.4795 100.053L63.4922 100.063ZM63.4961 104.398C61.0024 106.547 55.76 110.324 48.0156 112.283C51.5875 116.275 56.5582 120.185 63.4961 123.379C70.4011 120.194 75.3475 116.284 78.9111 112.259C71.2078 110.3 65.9898 106.538 63.4961 104.398Z" fill="#C9A076"/>
<path d="M63.4922 100.063L61.3486 101.904C59.1266 103.814 54.3282 107.287 47.2012 109.09L41.9336 110.424L45.5547 114.473C49.8672 119.296 55.4389 123.296 62.1133 126.366L63.4883 127L64.8623 126.366C71.5284 123.296 77.0837 119.28 81.3633 114.44L84.9434 110.398L79.709 109.065C72.615 107.263 67.8418 103.798 65.6279 101.896L63.4922 100.063ZM63.4922 100.063L63.4961 100.061L63.4795 100.053L63.4922 100.063ZM63.4961 104.398C61.0024 106.547 55.76 110.324 48.0156 112.283C51.5875 116.275 56.5582 120.185 63.4961 123.379C70.4011 120.194 75.3475 116.284 78.9111 112.259C71.2078 110.3 65.9898 106.538 63.4961 104.398Z" stroke="#FBB874"/>
<path d="M64.5215 101.798L63.4521 102.777C61.2877 104.769 55.1965 109.6 45.5098 111.493L43.3701 111.913L42.1523 110.103C36.6547 101.938 35.8322 94.2171 35.7334 91.2705L35.6836 89.8389L36.6963 88.8262L58.9004 66.6201L64.5215 60.998V101.798ZM39.0254 91.1553C39.1077 93.5833 39.7986 100.703 44.8848 108.259C53.8637 106.506 59.4765 101.954 61.2295 100.349V68.9492L39.0254 91.1553Z" fill="#C9A076"/>
<path d="M64.5215 101.798L63.4521 102.777C61.2877 104.769 55.1965 109.6 45.5098 111.493L43.3701 111.913L42.1523 110.103C36.6547 101.938 35.8322 94.2171 35.7334 91.2705L35.6836 89.8389L36.6963 88.8262L58.9004 66.6201L64.5215 60.998V101.798ZM39.0254 91.1553C39.1077 93.5833 39.7986 100.703 44.8848 108.259C53.8637 106.506 59.4765 101.954 61.2295 100.349V68.9492L39.0254 91.1553Z" stroke="#FBB874"/>
<path d="M108.926 87.0407C109.231 92.3906 108.482 98.6707 105.832 105.84C99.6427 108.12 94.1204 108.992 89.2976 108.992C88.524 108.992 87.775 108.967 87.0343 108.926C91.1247 102.053 92.1616 95.6829 92.4003 92.4071C95.6841 92.1602 102.054 91.1313 108.918 87.0407M111.905 81.4355L107.247 84.2175C100.927 87.9872 95.0833 88.9173 92.1699 89.1313L89.3387 89.3453L89.1248 92.1766C88.9108 95.0903 87.9808 100.934 84.2114 107.255L81.4297 111.914L86.845 112.227C87.6516 112.276 88.4746 112.301 89.2976 112.301C94.9845 112.301 100.935 111.173 106.976 108.943L108.399 108.416L108.926 106.992C111.478 100.078 112.589 93.3125 112.218 86.8596L111.905 81.4438V81.4355Z" fill="#C9A076"/>
<path d="M62.4648 61.0215V101.789L63.502 102.76C65.6418 104.768 71.6668 109.649 81.3535 111.534L83.4932 111.953L84.7109 110.143C90.2329 101.953 91.1138 94.2336 91.2373 91.2949L91.2949 89.8545L90.2744 88.834L68.0781 66.6357L62.4648 61.0215ZM62.4648 61.0215L62.457 61.0137H62.4648V61.0215ZM65.7568 100.356C67.5181 102.011 73.0413 106.554 81.9873 108.299C87.1061 100.71 87.8553 93.5329 87.9541 91.1543L65.7568 68.9561V100.356Z" fill="#C9A076"/>
<path d="M62.4648 61.0215V101.789L63.502 102.76C65.6418 104.768 71.6668 109.649 81.3535 111.534L83.4932 111.953L84.7109 110.143C90.2329 101.953 91.1138 94.2336 91.2373 91.2949L91.2949 89.8545L90.2744 88.834L68.0781 66.6357L62.4648 61.0215ZM62.4648 61.0215L62.457 61.0137H62.4648V61.0215ZM65.7568 100.356C67.5181 102.011 73.0413 106.554 81.9873 108.299C87.1061 100.71 87.8553 93.5329 87.9541 91.1543L65.7568 68.9561V100.356Z" stroke="#FBB874"/>
<path d="M101.775 62.4707L102.755 63.5078C104.78 65.6563 109.676 71.7059 111.553 81.4424L111.964 83.5742L110.161 84.792C101.981 90.3311 94.2205 91.1629 91.2656 91.2617L89.833 91.3115L88.8213 90.2988L66.625 68.0928L61.0117 62.4707H101.775ZM68.9541 65.7627L91.1504 87.9697C93.5703 87.8874 100.73 87.204 108.31 82.0684C106.581 73.0804 102.014 67.5323 100.352 65.7627H68.9541Z" fill="#C9A076"/>
<path d="M101.775 62.4707L102.755 63.5078C104.78 65.6563 109.676 71.7059 111.553 81.4424L111.964 83.5742L110.161 84.792C101.981 90.3311 94.2205 91.1629 91.2656 91.2617L89.833 91.3115L88.8213 90.2988L66.625 68.0928L61.0117 62.4707H101.775ZM68.9541 65.7627L91.1504 87.9697C93.5703 87.8874 100.73 87.204 108.31 82.0684C106.581 73.0804 102.014 67.5323 100.352 65.7627H68.9541Z" stroke="#FBB874"/>
<path d="M114.466 45.541C119.289 49.8375 123.289 55.4096 126.367 62.1094L127.001 63.4834L126.367 64.8584C123.289 71.5581 119.28 77.1304 114.466 81.4268L110.417 85.0312L109.084 79.7803C107.265 72.6278 103.8 67.8537 101.891 65.6396L100.039 63.4922L101.891 61.3438C103.8 59.1379 107.265 54.3556 109.084 47.2031L110.417 41.9521V41.9355L114.466 45.541ZM112.269 48.0176C110.293 55.7709 106.524 61.0061 104.376 63.5C106.532 65.9939 110.302 71.2291 112.269 78.9824C116.26 75.4185 120.17 70.4385 123.363 63.5C120.178 56.5615 116.26 51.5815 112.269 48.0176Z" fill="#C9A076"/>
<path d="M114.466 45.541C119.289 49.8375 123.289 55.4096 126.367 62.1094L127.001 63.4834L126.367 64.8584C123.289 71.5581 119.28 77.1304 114.466 81.4268L110.417 85.0312L109.084 79.7803C107.265 72.6278 103.8 67.8537 101.891 65.6396L100.039 63.4922L101.891 61.3438C103.8 59.1379 107.265 54.3556 109.084 47.2031L110.417 41.9521V41.9355L114.466 45.541ZM112.269 48.0176C110.293 55.7709 106.524 61.0061 104.376 63.5C106.532 65.9939 110.302 71.2291 112.269 78.9824C116.26 75.4185 120.17 70.4385 123.363 63.5C120.178 56.5615 116.26 51.5815 112.269 48.0176Z" stroke="#FBB874"/>
<path d="M89.3054 18.0013C94.1364 18.0013 99.6506 18.8737 105.84 21.1536C108.49 28.3308 109.239 34.6109 108.934 39.9608C102.062 35.8702 95.6919 34.8249 92.4164 34.5862C92.1695 31.3021 91.1407 24.9315 87.0504 18.0671C87.7911 18.026 88.54 18.0013 89.3136 18.0013M89.3054 14.709C88.4906 14.709 87.6594 14.7337 86.8529 14.7831L81.4375 15.0958L84.2193 19.7544C87.9886 26.0756 88.9186 31.9194 89.1326 34.8331L89.3466 37.6645L92.1777 37.8785C95.0911 38.0925 100.918 39.0225 107.255 42.8004L111.913 45.5824L112.226 40.1666C112.596 33.7219 111.494 26.9481 108.934 20.026L108.407 18.6021L106.984 18.0753C100.943 15.8448 95.0006 14.7172 89.3136 14.7172L89.3054 14.709Z" fill="#C9A076"/>
<path d="M89.8252 35.7051L91.2568 35.7549C94.2114 35.8537 101.956 36.6765 110.153 42.2158L111.956 43.4346L111.544 45.5654C109.668 55.2941 104.771 61.3527 102.755 63.501L101.775 64.5381H61.0117L66.625 58.916L88.8213 36.71L89.8252 35.7051ZM68.9541 61.2451H100.352C102.006 59.4834 106.573 53.936 108.31 44.9404C100.73 39.8129 93.5786 39.1214 91.1504 39.0391L68.9541 61.2451Z" fill="#C9A076"/>
<path d="M89.8252 35.7051L91.2568 35.7549C94.2114 35.8537 101.956 36.6765 110.153 42.2158L111.956 43.4346L111.544 45.5654C109.668 55.2941 104.771 61.3527 102.755 63.501L101.775 64.5381H61.0117L66.625 58.916L88.8213 36.71L89.8252 35.7051ZM68.9541 61.2451H100.352C102.006 59.4834 106.573 53.936 108.31 44.9404C100.73 39.8129 93.5786 39.1214 91.1504 39.0391L68.9541 61.2451Z" stroke="#FBB874"/>
<path d="M38.1631 36.71L60.3594 58.916L65.9727 64.5381H25.2002L24.2217 63.4756C22.2382 61.3191 17.3988 55.2531 15.5059 45.5244L15.0859 43.3848L16.8965 42.167C25.0604 36.6691 32.78 35.8459 35.7266 35.7471L37.1504 35.6973L38.1631 36.71ZM35.8418 39.0391C33.4137 39.1214 26.2951 39.813 18.7402 44.8994C20.4933 53.8872 25.0281 59.492 26.6494 61.2451H58.0381L35.8418 39.0391Z" fill="#C9A076"/>
<path d="M38.1631 36.71L60.3594 58.916L65.9727 64.5381H25.2002L24.2217 63.4756C22.2382 61.3191 17.3988 55.2531 15.5059 45.5244L15.0859 43.3848L16.8965 42.167C25.0604 36.6691 32.78 35.8459 35.7266 35.7471L37.1504 35.6973L38.1631 36.71ZM35.8418 39.0391C33.4137 39.1214 26.2951 39.813 18.7402 44.8994C20.4933 53.8872 25.0281 59.492 26.6494 61.2451H58.0381L35.8418 39.0391Z" stroke="#FBB874"/>
<path d="M37.744 17.9915C38.5012 17.9915 39.2337 18.0162 39.9579 18.0491C35.8676 24.93 34.8306 31.3006 34.5919 34.5764C31.3164 34.8233 24.971 35.8522 18.1154 39.9181C17.8027 34.5599 18.5352 28.2881 21.1605 21.1439C27.366 18.8557 32.9048 17.9833 37.744 17.9833M37.744 14.6992C32.0324 14.6992 26.0656 15.8351 20.0166 18.0656L18.5928 18.5923L18.066 20.0163C15.5312 26.8971 14.4448 33.6546 14.8234 40.1239L15.1444 45.5233L19.7943 42.766C26.1068 39.0128 31.9254 38.0909 34.8306 37.8769L37.6617 37.6629L37.8757 34.8316C38.0897 31.9179 39.0197 26.0741 42.789 19.7446L45.5708 15.0778L40.1472 14.7733C39.3571 14.7321 38.5506 14.7074 37.7523 14.7074L37.744 14.6992Z" fill="#C9A076"/>
<path d="M84.7852 16.8242C90.3237 25.0054 91.1551 32.7669 91.2539 35.7217L91.3027 37.1543L90.291 38.166L68.0859 60.3643L62.4648 65.9863V25.2197L63.502 24.248C65.65 22.2233 71.6988 17.3259 81.4346 15.4492L83.5664 15.0381V15.0215L84.7852 16.8242ZM82.0527 18.6846C73.0657 20.413 67.5186 24.9809 65.749 26.6436V58.043L87.9531 35.8447C87.8708 33.4245 87.1876 26.2644 82.0527 18.6846Z" fill="#C9A076"/>
<path d="M84.7852 16.8242C90.3237 25.0054 91.1551 32.7669 91.2539 35.7217L91.3027 37.1543L90.291 38.166L68.0859 60.3643L62.4648 65.9863V25.2197L63.502 24.248C65.65 22.2233 71.6988 17.3259 81.4346 15.4492L83.5664 15.0381V15.0215L84.7852 16.8242ZM82.0527 18.6846C73.0657 20.413 67.5186 24.9809 65.749 26.6436V58.043L87.9531 35.8447C87.8708 33.4245 87.1876 26.2644 82.0527 18.6846Z" stroke="#FBB874"/>
<path d="M63.4863 0.00292969L62.1211 0.633789C55.4219 3.71208 49.8498 7.71195 45.5537 12.5352L41.9492 16.585L47.2002 17.918C54.3602 19.737 59.1332 23.2028 61.3389 25.1123L63.4873 26.9639L65.6348 25.1123C67.8404 23.2028 72.6225 19.737 79.7744 17.918L85.0254 16.585L81.4209 12.5352C77.1249 7.72021 71.5527 3.71207 64.8535 0.633789L63.4863 0.00292969ZM63.4863 0.00292969L63.4785 0H63.4951L63.4863 0.00292969ZM63.4951 3.62109C56.5573 6.80637 51.5782 10.7249 48.0146 14.7168C55.7669 16.6921 61.0013 20.4611 63.4951 22.6094C65.9888 20.4529 71.2239 16.6839 78.9766 14.7168C75.413 10.7249 70.433 6.81461 63.4951 3.62109Z" fill="#C9A076"/>
<path d="M63.4863 0.00292969L62.1211 0.633789C55.4219 3.71208 49.8498 7.71195 45.5537 12.5352L41.9492 16.585L47.2002 17.918C54.3602 19.737 59.1332 23.2028 61.3389 25.1123L63.4873 26.9639L65.6348 25.1123C67.8404 23.2028 72.6225 19.737 79.7744 17.918L85.0254 16.585L81.4209 12.5352C77.1249 7.72021 71.5527 3.71207 64.8535 0.633789L63.4863 0.00292969ZM63.4863 0.00292969L63.4785 0H63.4951L63.4863 0.00292969ZM63.4951 3.62109C56.5573 6.80637 51.5782 10.7249 48.0146 14.7168C55.7669 16.6921 61.0013 20.4611 63.4951 22.6094C65.9888 20.4529 71.2239 16.6839 78.9766 14.7168C75.413 10.7249 70.433 6.81461 63.4951 3.62109Z" stroke="#FBB874"/>
</svg>
