<svg width="125" height="125" viewBox="0 0 125 125" fill="none" xmlns="http://www.w3.org/2000/svg">
<g opacity="0.8">
<path d="M64.9648 0.900391C97.3271 2.05244 123.429 28.1545 124.571 60.5068L124.574 60.6104H64.8613V0.896484L64.9648 0.900391ZM68.6211 56.8604H120.607L120.262 54.4346C116.685 29.4748 97.0212 9.47653 72.2217 5.3916L71.0371 5.20898L68.6211 4.86426V56.8604Z" fill="#C9A076" stroke="#C9A076" stroke-width="0.2"/>
<path d="M124.574 64.8613L124.571 64.9648C123.428 97.0643 97.7232 123.021 65.7217 124.55L64.9648 124.581L64.8613 124.585V64.8613H124.574ZM68.6211 120.605L71.0371 120.262L72.2217 120.079C97.021 115.994 116.685 95.9967 120.262 71.0371L120.605 68.6113H68.6211V120.605Z" fill="#C9A076" stroke="#C9A076" stroke-width="0.2"/>
<path d="M72.9795 9.84082C94.4395 13.9785 111.491 31.0302 115.629 52.4902L115.652 52.6094H72.8613V9.81836L72.9795 9.84082ZM76.6211 48.8594H111.003L109.997 46.0225C105.006 31.905 94.1355 20.8924 80.1172 15.7158L79.4473 15.4736L76.6211 14.4707V48.8594Z" fill="#C9A076" stroke="#C9A076" stroke-width="0.2"/>
<path d="M115.652 72.8613L115.629 72.9795C111.491 94.4396 94.4397 111.501 72.9795 115.639L72.8613 115.662V72.8613H115.652ZM76.6211 110.989L79.4473 109.986L80.1172 109.745C94.1355 104.578 105.006 93.5648 109.997 79.4473L111 76.6113H76.6211V110.989Z" fill="#C9A076" stroke="#C9A076" stroke-width="0.2"/>
<path d="M81.001 20.6484L81.9873 21.0938C92.1193 25.8096 100.356 34.2183 104.822 44.4707L104.884 44.6104H80.8613V20.5879L81.001 20.6484ZM85.0713 40.4102H98.1006L96.0908 37.7305C93.7064 34.5679 90.9035 31.764 87.751 29.3896V29.3906L85.0713 27.3799V40.4102Z" fill="#C9A076" stroke="#C9A076" stroke-width="0.2"/>
<path d="M104.884 80.8496L104.822 80.9893C100.202 91.5722 91.584 100.2 81.001 104.811L80.8613 104.872V80.8496H104.884ZM85.0605 98.0986L87.7412 96.0791L88.3301 95.6289C91.2523 93.352 93.8551 90.6947 96.0811 87.7393L98.0908 85.0596H85.0605V98.0986Z" fill="#C9A076" stroke="#C9A076" stroke-width="0.2"/>
<path d="M60.6201 64.8613V124.585L60.5166 124.581C28.1643 123.429 2.05244 97.3171 0.900391 64.9648L0.896484 64.8613H60.6201ZM5.20898 71.0371L5.3916 72.2217C9.47653 97.0212 29.4748 116.685 54.4346 120.262H54.4336L56.8496 120.604V68.6113H4.86523L5.20898 71.0371Z" fill="#C9A076" stroke="#C9A076" stroke-width="0.2"/>
<path d="M52.6172 72.8496V115.65L52.498 115.627C31.0382 111.479 13.9866 94.4277 9.83887 72.9678L9.81641 72.8496H52.6172ZM15.4814 79.4463L15.7236 80.1152C20.8911 94.1238 31.9138 104.995 46.0312 109.985L48.8574 110.987V76.6094H14.4785L15.4814 79.4463Z" fill="#C9A076" stroke="#C9A076" stroke-width="0.2"/>
<path d="M52.6172 52.6094H9.81641L9.83887 52.4902C13.9866 31.0303 31.0382 13.9887 52.498 9.84082L52.6172 9.81836V52.6094ZM46.0312 15.4834C31.9137 20.4742 20.9002 31.3449 15.7236 45.3633L15.4814 46.0332L14.4795 48.8594H48.8574V14.4805L46.0312 15.4834Z" fill="#C9A076" stroke="#C9A076" stroke-width="0.2"/>
<path d="M44.6201 80.8496V104.872L44.4805 104.811C33.8974 100.19 25.2683 91.5725 20.6582 80.9893L20.5977 80.8496H44.6201ZM29.3994 87.7393H29.4004L29.8506 88.3281C32.1276 91.2516 34.7849 93.8626 37.7402 96.0791L40.4199 98.0986V85.0596H27.3809L29.3994 87.7393Z" fill="#C9A076" stroke="#C9A076" stroke-width="0.2"/>
<path d="M44.6201 44.6104H20.5977L20.6582 44.4707L21.1035 43.4834C25.8194 33.3516 34.2282 25.1144 44.4805 20.6484L44.6201 20.5879V44.6104ZM37.7402 29.3906L37.7393 29.3896C34.5767 31.7741 31.7645 34.5783 29.4004 37.7305H29.3994L27.3809 40.4102H40.4199V27.3799L37.7402 29.3906Z" fill="#C9A076" stroke="#C9A076" stroke-width="0.2"/>
<path d="M60.6201 60.6104H0.896484L0.900391 60.5068C2.05226 28.1544 28.1642 2.05226 60.5166 0.900391L60.6201 0.896484V60.6104ZM54.4336 5.21777L54.4346 5.21875C29.4845 8.78585 9.47688 28.4598 5.40137 53.2598L5.21875 54.4443L4.875 56.8604H56.8604V4.875L54.4336 5.21777Z" fill="#C9A076" stroke="#C9A076" stroke-width="0.2"/>
</g>
</svg>
