<svg width="350" height="148" viewBox="0 0 350 148" fill="none" xmlns="http://www.w3.org/2000/svg">
<path d="M246.051 49.7127C244.123 51.3783 236.31 61.2187 239.311 64.2708C239.94 64.91 253.065 68.0521 254.856 68.3672C259.012 69.0875 267.906 68.4032 271.091 69.7357C277.333 72.3286 269.745 82.088 267.29 84.7529C264.836 87.4179 247.227 100.247 247.076 101.814L256.23 116.606L286.636 116.147L304.95 144.363C315.252 144.489 325.574 144.192 335.876 144.363C338.159 144.399 347.949 143.778 349.179 144.363C350.512 144.993 350.102 147.415 348.831 148H0.911058C0.00870324 147.55 -0.421966 144.93 0.562421 144.363C1.54681 143.796 17.7755 144.39 20.4279 144.363C28.5423 144.282 36.6703 144.417 44.7847 144.363L62.7497 116.606H93.4982L102.652 101.814C98.1057 95.8808 74.8085 82.5742 76.3944 72.6887C76.5243 71.8875 78.0283 69.9428 78.6435 69.7267C82.9297 68.2682 92.0558 68.9344 97.299 67.9081C98.8986 67.593 110.602 64.5409 110.944 63.5866C110.821 62.4882 111.115 60.9396 110.944 59.9493C110.376 56.6631 99.0217 43.5005 96.4308 41.0607C93.6212 37.1623 89.5811 28.4653 94.5304 25.1341C99.924 25.2242 115.975 26.2325 120.097 22.8563C121.581 21.6409 125.586 11.4044 126.14 8.97351C126.284 8.35229 125.504 5.8044 126.14 3.5086C126.742 1.34785 130.221 -1.74923 130.98 1.23081C131.739 4.21085 128.396 4.51695 133.571 7.37095C145.09 13.7362 206.231 14.1053 217.182 6.91179C221.346 4.17483 218.262 3.43658 218.734 1.2218C220.122 -1.74023 223.465 1.46489 223.916 3.94976C224.176 5.36325 223.519 8.28027 223.567 8.49634C227.573 26.6197 233.76 24.657 246.201 25.5573C253.133 26.0615 261.897 21.893 255.703 37.1623C253.516 42.5552 248.956 45.1661 246.03 49.6767L246.051 49.7127Z" fill="#020404"/>
<path d="M128.402 10.5761C129.407 10.1529 139.51 13.4301 141.534 13.7632C157.516 16.3831 178.571 16.6982 194.745 15.5818C203.66 14.9696 212.553 12.3587 221.351 10.5761C223.593 15.5818 225.138 24.3959 229.643 26.9618C235.262 30.1489 245.421 27.7271 251.58 29.9238C223.163 41.853 191.423 44.1308 161.577 42.8884C140.228 42.0061 118.428 38.7829 98.1729 29.9238C105.713 27.1509 118.859 31.8415 124.088 22.6403C125.093 20.8757 127.923 10.7832 128.409 10.5851L128.402 10.5761Z" fill="#153C6A"/>
<path d="M124.253 65.6394C138.896 64.9371 154.742 66.6117 169.514 66.5487C189.318 66.4677 213.066 63.8568 232.399 66.0895C238.579 66.8008 245.469 70.312 251.745 71.5544C257.829 72.7609 264.097 72.9769 270.229 73.5982C264.576 76.1551 258.656 77.9017 252.784 79.2881C245.36 81.0438 236.794 82.3672 229.979 83.3846C190.084 89.3447 157.305 88.0752 118.032 82.0161C117.055 81.863 116.754 82.9434 116.651 82.9254C104.326 80.9537 92.0415 78.3788 80.0306 74.2824C79.5111 73.13 80.222 73.4901 80.7211 73.3731C87.0444 71.8786 95.0152 72.0316 101.797 70.6451C109.822 68.9976 115.544 66.0535 124.253 65.6394Z" fill="#153C6A"/>
<path d="M198.541 103.858H244.151L270.237 143.67L223.424 144.354C223.082 137.421 223.253 129.976 218.242 125.699C208.973 117.777 198.254 130.21 201.487 143.67C201.268 144.525 198.917 144.57 198.548 144.354C197.146 143.526 198.172 108.296 198.548 103.858H198.541Z" fill="#FFF2B5"/>
<path d="M105.598 103.858H151.208C151.201 108.566 152.295 142.427 151.379 144.129C151.167 144.525 148.542 144.669 148.268 143.67C151.454 130.192 140.872 117.723 131.513 125.699C126.325 130.12 126.981 137.403 126.332 144.354H80.0313L79.6826 143.444L105.598 103.858Z" fill="#FFF2B5"/>
<path d="M159.841 103.858L190.07 104.083C189.981 108.746 191.293 143.535 189.899 144.354C184.717 147.397 187.212 138.538 186.959 135.027C186.46 127.923 181.996 120.946 176.418 120.234C166.369 118.956 160.743 131.884 163.464 143.67H159.314L159.834 103.858H159.841Z" fill="#FFF2B5"/>
<path d="M259.003 120.243H285.609L300.635 144.129L274.207 144.363L259.003 120.243Z" fill="#FEE792"/>
<path d="M64.1359 120.243L90.9126 120.928L75.5384 144.363H49.6231L49.2812 143.454L64.1359 120.243Z" fill="#FEE792"/>
<path d="M173.322 123.881C182.086 122.332 186.844 134.991 182.995 144.354C180.677 143.895 167.163 145.236 166.24 143.67C165.433 142.301 165.481 134.252 165.891 132.29C166.623 128.832 170.683 124.34 173.322 123.872V123.881Z" fill="#153C6A"/>
<path d="M135.312 127.068C141.861 125.267 147.22 132.425 146.195 140.951C146.099 141.761 145.669 144.03 144.985 144.363C144.09 144.804 130.042 144.516 129.611 143.679C128.086 138.061 130.575 128.373 135.312 127.068Z" fill="#153C6A"/>
<path d="M209.942 127.068C217.851 125.195 222.267 135.099 219.964 144.363C217.715 143.904 205.205 145.254 204.241 143.679C203.277 142.103 203.639 135.747 204.241 133.667C204.979 131.128 207.946 127.545 209.942 127.068Z" fill="#153C6A"/>
<path d="M267.297 78.3787C267.604 78.3607 268.035 78.2527 268.158 78.6038L263.838 83.3844L243.624 99.5361L244.143 84.2938C248.279 83.6996 252.504 83.0513 256.585 82.016C259.217 81.3497 265.321 78.5137 267.297 78.3787Z" fill="#FDD253"/>
<path d="M81.7588 78.3788L105.945 84.753L106.116 99.5362L81.7588 78.3788Z" fill="#FDD253"/>
<path d="M253.823 32.877C254.623 33.4802 253.235 35.785 252.962 36.2891C249.735 42.1682 242.332 47.8762 238.62 53.8093L238.1 39.0171L253.823 32.877Z" fill="#FDD253"/>
<path d="M95.9237 32.877L111.298 39.0171L110.778 53.8093C110.84 51.3784 93.3739 34.6146 95.9237 32.877Z" fill="#FDD253"/>
<path d="M238.621 85.2032C239.181 85.1762 241.341 85.0231 241.56 85.4282V99.5362L233.439 100.22L232.919 86.7967C233.09 86.2925 237.964 85.2302 238.621 85.2032Z" fill="#FDD253"/>
<path d="M108.366 85.2031L116.829 86.7967L116.31 100.22L108.537 99.9953L108.366 85.2031Z" fill="#FDD253"/>
<path d="M230.328 86.5715L230.848 99.5361L222.727 100.22L222.207 88.1651L230.328 86.5715Z" fill="#FDD253"/>
<path d="M119.418 87.0217C120.738 87.1208 127.478 87.3909 127.881 88.6153L127.362 100.22L119.241 99.5361L119.412 87.0217H119.418Z" fill="#FDD253"/>
<path d="M193.009 103.858C193.173 103.705 195.333 103.642 195.6 104.542C194.308 109.125 196.454 143.517 195.08 144.354C194.698 144.588 193.098 144.462 192.831 143.67C193.583 138.961 191.779 105.01 193.002 103.858H193.009Z" fill="white"/>
<path d="M217.194 88.3902C217.933 88.4082 219.778 88.0211 220.134 89.0744V99.5361L211.671 100.22C210.994 99.8242 210.919 89.9657 211.151 89.5246C211.329 89.2005 216.634 88.3722 217.194 88.3902Z" fill="#FDD253"/>
<path d="M130.132 88.3903C131.328 88.5703 138.26 88.7054 138.595 89.5246C138.786 89.9928 138.752 99.9053 138.424 100.22L129.961 99.5361L130.132 88.3903Z" fill="#FDD253"/>
<path d="M154.317 103.858C154.433 103.75 156.395 103.768 156.566 104.083C156.06 108.728 157.434 143.507 156.046 144.354C155.827 144.489 154.31 144.426 154.146 144.129C154.911 139.366 153.072 105.028 154.317 103.858Z" fill="white"/>
<path d="M208.562 89.2996V100.22C201.008 100.382 198.417 102.165 200.618 90.2089L208.562 89.2996Z" fill="#FDD253"/>
<path d="M141.185 89.2996C142.354 90.2629 148.861 89.6327 149.477 90.2089C149.935 90.632 149.49 98.5728 149.648 99.9953L141.185 100.22V89.2996Z" fill="#FDD253"/>
<path d="M160.19 91.1183C160.586 90.8842 168.475 91.2443 168.831 91.5775C169.077 91.8115 169.138 99.1401 169.002 99.5362C168.523 100.959 161.475 99.8784 160.19 100.22V91.1183Z" fill="#FDD253"/>
<path d="M182.995 91.1182C184.896 90.623 187.862 91.4873 189.906 91.1182L190.077 99.9953L181.266 100.22C181.409 96.277 179.632 92.0005 182.995 91.1182Z" fill="#FDD253"/>
<path d="M171.244 91.5774H178.497C180.644 101.895 177.984 100.373 171.586 100.22L171.237 91.5774H171.244Z" fill="#FDD253"/>
<path d="M192.669 90.668C192.984 90.488 197.871 90.605 198.022 90.8931C198.022 98.2757 199.444 102.471 192.15 99.5361C192.382 98.0596 191.616 91.2802 192.669 90.659V90.668Z" fill="#FDD253"/>
<path d="M152.239 90.6681C153.257 90.9382 157.147 90.0198 157.591 91.3523C157.803 91.9825 157.749 99.8333 157.072 100.229C156.757 100.409 152.205 100.274 152.061 100.004L152.232 90.6771L152.239 90.6681Z" fill="#FDD253"/>
<path d="M114.238 39.7013C154.126 49.1095 195.607 49.0375 235.509 39.7013L236.029 62.6773L113.89 62.9024L114.238 39.6923V39.7013Z" fill="#FFF2B5"/>
<path d="M218.234 46.0754C218.945 45.7243 225.494 45.9134 226.007 46.7597C226.602 47.741 226.581 59.22 225.836 59.7242L217.373 59.4991V46.7597C217.694 46.6696 218.084 46.1565 218.234 46.0754Z" fill="#020404"/>
<path d="M224.455 47.4349L224.626 57.6715C216.99 59.4271 218.904 56.0329 218.753 48.1192L224.455 47.4349Z" fill="#153C6A"/>
<path d="M123.91 46.0755C125.298 46.4086 131.293 45.5353 132.031 46.3005C132.53 46.8227 132.715 59.22 131.86 59.7242L123.397 59.04L123.917 46.0755H123.91Z" fill="#020404"/>
<path d="M128.403 47.4349C129.101 47.4619 130.646 47.0838 130.994 48.1191V57.2213C130.694 58.1216 125.737 58.1667 125.293 57.9056C124.603 57.5004 124.562 48.5243 124.774 48.1191C124.876 47.9211 128.219 47.4259 128.403 47.4349Z" fill="#153C6A"/>
<path d="M194.377 48.8059L193.86 59.4979L201.979 60.1819L202.495 49.4898L194.377 48.8059Z" fill="#020404"/>
<path d="M195.428 50.622C196.48 50.9011 200.671 49.9558 201.129 51.3062C201.32 51.8734 201.293 57.9596 200.609 58.3557C200.295 58.5358 195.407 58.4187 195.257 58.1306L195.428 50.622Z" fill="#153C6A"/>
<path d="M148.096 48.3443C148.458 48.1643 155.643 48.6054 155.869 49.0286L155.349 60.1745C146.025 60.8767 146.975 60.7326 147.228 49.0286C147.549 48.9385 147.939 48.4254 148.089 48.3443H148.096Z" fill="#020404"/>
<path d="M149.136 50.1629C149.566 49.9108 154.188 49.9469 154.488 50.8472C154.981 58.2928 154.523 59.9133 148.616 57.6716C148.828 56.2851 148.11 50.7661 149.136 50.1629Z" fill="#153C6A"/>
<path d="M170.903 49.2535L179.366 49.4876L179.195 60.6335L170.383 60.4084L170.903 49.2535Z" fill="#020404"/>
<path d="M171.934 51.0721H177.806C178.558 58.7788 178.387 59.8502 172.275 59.265L171.927 51.0721H171.934Z" fill="#153C6A"/>
</svg>
