<svg width="455" height="283" viewBox="0 0 455 283" fill="none" xmlns="http://www.w3.org/2000/svg">
<path d="M74.8867 189.35V208.82L388.547 208.82V189.35L74.8867 189.35Z" fill="#726A67" stroke="black" stroke-width="4" stroke-linecap="round" stroke-linejoin="round"/>
<path d="M74.8867 210.95V254.52H192.967V210.95H74.8867Z" fill="#999290" stroke="black" stroke-width="4" stroke-linecap="round" stroke-linejoin="round"/>
<path d="M257.348 210.95V254.52H375.428V210.95H257.348Z" fill="#999290" stroke="black" stroke-width="4" stroke-linecap="round" stroke-linejoin="round"/>
<path d="M96.1791 204.1H82.7891V213.54H96.1791V204.1Z" fill="#C9C1BC" stroke="black" stroke-width="4" stroke-linecap="round" stroke-linejoin="round"/>
<path d="M109.179 204.1H95.7891V213.54H109.179V204.1Z" fill="#C9C1BC" stroke="black" stroke-width="4" stroke-linecap="round" stroke-linejoin="round"/>
<path d="M360.019 204.1H346.629V213.54H360.019V204.1Z" fill="#C9C1BC" stroke="black" stroke-width="4" stroke-linecap="round" stroke-linejoin="round"/>
<path d="M373.007 204.1H359.617V213.54H373.007V204.1Z" fill="#C9C1BC" stroke="black" stroke-width="4" stroke-linecap="round" stroke-linejoin="round"/>
<path d="M145.658 204.1H130.738V213.54H145.658V204.1Z" fill="#C9C1BC" stroke="black" stroke-width="4" stroke-linecap="round" stroke-linejoin="round"/>
<path d="M161.42 204.1H146.5V213.54H161.42V204.1Z" fill="#C9C1BC" stroke="black" stroke-width="4" stroke-linecap="round" stroke-linejoin="round"/>
<path d="M177.17 204.1H162.25V213.54H177.17V204.1Z" fill="#C9C1BC" stroke="black" stroke-width="4" stroke-linecap="round" stroke-linejoin="round"/>
<path d="M211.559 204.1H192.969V213.54H211.559V204.1Z" fill="#C9C1BC" stroke="black" stroke-width="4" stroke-linecap="round" stroke-linejoin="round"/>
<path d="M231.188 204.1H212.598V213.54H231.188V204.1Z" fill="#C9C1BC" stroke="black" stroke-width="4" stroke-linecap="round" stroke-linejoin="round"/>
<path d="M250.809 204.1H232.219V213.54H250.809V204.1Z" fill="#C9C1BC" stroke="black" stroke-width="4" stroke-linecap="round" stroke-linejoin="round"/>
<path d="M286.316 204.1H267.656V213.54H286.316V204.1Z" fill="#C9C1BC" stroke="black" stroke-width="4" stroke-linecap="round" stroke-linejoin="round"/>
<path d="M306.019 204.1H287.359V213.54H306.019V204.1Z" fill="#C9C1BC" stroke="black" stroke-width="4" stroke-linecap="round" stroke-linejoin="round"/>
<path d="M325.719 204.1H307.059V213.54H325.719V204.1Z" fill="#C9C1BC" stroke="black" stroke-width="4" stroke-linecap="round" stroke-linejoin="round"/>
<path d="M96.1791 245.859H82.7891V255.299H96.1791V245.859Z" fill="#C9C1BC" stroke="black" stroke-width="4" stroke-linecap="round" stroke-linejoin="round"/>
<path d="M109.179 245.859H95.7891V255.299H109.179V245.859Z" fill="#C9C1BC" stroke="black" stroke-width="4" stroke-linecap="round" stroke-linejoin="round"/>
<path d="M360.019 245.859H346.629V255.299H360.019V245.859Z" fill="#C9C1BC" stroke="black" stroke-width="4" stroke-linecap="round" stroke-linejoin="round"/>
<path d="M373.007 245.859H359.617V255.299H373.007V245.859Z" fill="#C9C1BC" stroke="black" stroke-width="4" stroke-linecap="round" stroke-linejoin="round"/>
<path d="M145.658 245.859H130.738V255.299H145.658V245.859Z" fill="#C9C1BC" stroke="black" stroke-width="4" stroke-linecap="round" stroke-linejoin="round"/>
<path d="M161.42 245.859H146.5V255.299H161.42V245.859Z" fill="#C9C1BC" stroke="black" stroke-width="4" stroke-linecap="round" stroke-linejoin="round"/>
<path d="M177.17 245.859H162.25V255.299H177.17V245.859Z" fill="#C9C1BC" stroke="black" stroke-width="4" stroke-linecap="round" stroke-linejoin="round"/>
<path d="M286.316 245.859H267.656V255.299H286.316V245.859Z" fill="#C9C1BC" stroke="black" stroke-width="4" stroke-linecap="round" stroke-linejoin="round"/>
<path d="M306.019 245.859H287.359V255.299H306.019V245.859Z" fill="#C9C1BC" stroke="black" stroke-width="4" stroke-linecap="round" stroke-linejoin="round"/>
<path d="M325.719 245.859H307.059V255.299H325.719V245.859Z" fill="#C9C1BC" stroke="black" stroke-width="4" stroke-linecap="round" stroke-linejoin="round"/>
<path d="M13.0569 68.0194C13.0569 68.0194 116.257 49.8094 120.007 47.3394C123.757 44.8694 138.767 17.8594 138.767 17.8594C138.767 17.8594 211.217 24.5094 226.777 24.5094C242.337 24.5094 312.887 17.8594 312.887 17.8594C312.887 17.8594 324.147 40.3894 326.397 42.9394C328.647 45.4894 350.417 51.6594 350.417 51.6594C350.417 51.6594 431.477 67.0894 439.727 68.0194C439.727 68.0194 403.697 96.0994 392.447 98.5694C381.187 101.039 77.0569 98.5694 77.0569 98.5694C77.0569 98.5694 56.2068 98.3394 45.6968 90.7394C35.1868 83.1394 13.0469 68.0194 13.0469 68.0194H13.0569Z" fill="#413936" stroke="black" stroke-width="4" stroke-linecap="round" stroke-linejoin="round"/>
<path d="M15.5 67.8591C15.5 67.8591 51.09 80.8191 66.32 83.2891C81.55 85.7591 222 86.9891 222 86.9891C222 86.9891 361.5 86.9891 374.26 84.5191C387.02 82.0491 437.31 67.8591 437.31 67.8591C437.31 67.8591 366.01 53.6591 353.25 51.1991C340.49 48.7291 321.73 24.0391 321.73 24.0391C321.73 24.0391 262.44 32.6791 239.92 32.6791C217.4 32.6791 162.61 35.7691 129.59 24.0391C129.59 24.0391 118.33 43.7891 101.82 49.9591C85.31 56.1291 15.5099 67.8591 15.5099 67.8591H15.5Z" fill="#16457D" stroke="black" stroke-width="4" stroke-linecap="round" stroke-linejoin="round"/>
<path d="M3.04907 144.26C3.04907 144.26 115.569 142.3 119.319 140.4C123.069 138.51 138.079 117.77 138.079 117.77C138.079 117.77 210.529 122.87 226.089 122.87C241.649 122.87 312.199 117.77 312.199 117.77C312.199 117.77 323.459 135.06 325.709 137.02C327.959 138.98 349.729 143.72 349.729 143.72C349.729 143.72 441.729 146.23 449.989 146.94C449.989 146.94 425.019 173.64 407.499 181.16C406.219 181.71 384.219 187.87 374.569 188.05C308.279 189.26 76.3691 187.3 76.3691 187.3C76.3691 187.3 55.519 187.12 45.009 181.29C34.499 175.46 3.03906 144.26 3.03906 144.26H3.04907Z" fill="#413936" stroke="black" stroke-width="4" stroke-linecap="round" stroke-linejoin="round"/>
<path d="M3.04688 145.901C3.04688 145.901 50.3969 165.591 65.6269 168.061C80.8569 170.531 221.307 171.761 221.307 171.761C221.307 171.761 360.807 171.761 373.567 169.291C386.327 166.821 449.997 148.731 449.997 148.731C449.997 148.731 365.317 138.431 352.557 135.961C339.797 133.491 321.037 108.801 321.037 108.801C321.037 108.801 261.747 117.441 239.227 117.441C216.707 117.441 161.917 120.531 128.897 108.801C128.897 108.801 117.637 128.551 101.127 134.721C84.6169 140.891 3.05688 145.891 3.05688 145.891L3.04688 145.901Z" fill="#16457D" stroke="black" stroke-width="4" stroke-linecap="round" stroke-linejoin="round"/>
<path d="M151.247 17.8594C151.247 17.8594 233.427 30.8194 305.487 17.8594L308.867 25.7294V34.5294C308.867 34.5294 257.087 38.6994 224.717 39.6194C192.347 40.5494 147.878 35.9194 143.938 34.5294L151.257 17.8694L151.247 17.8594Z" fill="white" stroke="black" stroke-width="4" stroke-linecap="round" stroke-linejoin="round"/>
<path d="M132.026 8.88C132.026 8.88 130.336 2 141.036 2C151.166 2 151.166 19.39 143.286 29.39C135.406 39.39 114.016 53.67 103.316 49.81C92.6162 45.95 108.386 39 108.386 39C108.386 39 132.586 25.48 132.026 8.88Z" fill="white" stroke="black" stroke-width="4" stroke-linecap="round" stroke-linejoin="round"/>
<path d="M320.759 8.88C320.759 8.88 322.449 2 311.749 2C301.619 2 301.619 19.39 309.499 29.39C317.379 39.39 338.769 53.67 349.469 49.81C360.169 45.95 344.399 39 344.399 39C344.399 39 320.199 25.48 320.759 8.88Z" fill="white" stroke="black" stroke-width="4" stroke-linecap="round" stroke-linejoin="round"/>
<path d="M165.687 37.7891L158.797 58.7691" stroke="black" stroke-width="4" stroke-linecap="round" stroke-linejoin="round"/>
<path d="M184.367 39.7793L182.207 60.0993" stroke="black" stroke-width="4" stroke-linecap="round" stroke-linejoin="round"/>
<path d="M206.798 39.7793L204.648 60.0993" stroke="black" stroke-width="4" stroke-linecap="round" stroke-linejoin="round"/>
<path d="M227.477 42.1602L225.707 58.7702" stroke="black" stroke-width="4" stroke-linecap="round" stroke-linejoin="round"/>
<path d="M246.52 38.6992L244.68 60.5792" stroke="black" stroke-width="4" stroke-linecap="round" stroke-linejoin="round"/>
<path d="M264.43 40.2695L266.82 60.5795" stroke="black" stroke-width="4" stroke-linecap="round" stroke-linejoin="round"/>
<path d="M283.34 37.5391L288.29 58.7691" stroke="black" stroke-width="4" stroke-linecap="round" stroke-linejoin="round"/>
<path d="M390.88 98.2598H65.6797V141.54H390.88V98.2598Z" fill="white" stroke="black" stroke-width="4" stroke-linecap="round" stroke-linejoin="round"/>
<path d="M74.8867 100.631V132.561L388.547 132.561V100.631L74.8867 100.631Z" fill="#E2DDDC" stroke="black" stroke-width="4" stroke-linecap="round" stroke-linejoin="round"/>
<path d="M266.609 189.34H250.809V254.52H266.609V189.34Z" fill="#413936" stroke="black" stroke-width="4" stroke-linecap="round" stroke-linejoin="round"/>
<path d="M82.7883 98.7402H66.9883V140.61H82.7883V98.7402Z" fill="#413936" stroke="black" stroke-width="4" stroke-linecap="round" stroke-linejoin="round"/>
<path d="M127.609 99.6699H111.809V141.54H127.609V99.6699Z" fill="#413936" stroke="black" stroke-width="4" stroke-linecap="round" stroke-linejoin="round"/>
<path d="M192.968 99.6699H177.168V141.54H192.968V99.6699Z" fill="#413936" stroke="black" stroke-width="4" stroke-linecap="round" stroke-linejoin="round"/>
<path d="M266.609 98.7402H250.809V140.61H266.609V98.7402Z" fill="#413936" stroke="black" stroke-width="4" stroke-linecap="round" stroke-linejoin="round"/>
<path d="M344.32 99.6699H328.52V141.54H344.32V99.6699Z" fill="#413936" stroke="black" stroke-width="4" stroke-linecap="round" stroke-linejoin="round"/>
<path d="M391.116 99.6699H375.316V141.54H391.116V99.6699Z" fill="#413936" stroke="black" stroke-width="4" stroke-linecap="round" stroke-linejoin="round"/>
<path d="M82.7883 186.859H66.9883V254.519H82.7883V186.859Z" fill="#413936" stroke="black" stroke-width="4" stroke-linecap="round" stroke-linejoin="round"/>
<path d="M127.609 188.369H111.809V256.029H127.609V188.369Z" fill="#413936" stroke="black" stroke-width="4" stroke-linecap="round" stroke-linejoin="round"/>
<path d="M192.968 188.369H177.168V256.029H192.968V188.369Z" fill="#413936" stroke="black" stroke-width="4" stroke-linecap="round" stroke-linejoin="round"/>
<path d="M344.32 188.369H328.52V256.029H344.32V188.369Z" fill="#413936" stroke="black" stroke-width="4" stroke-linecap="round" stroke-linejoin="round"/>
<path d="M391.116 188.369H375.316V256.029H391.116V188.369Z" fill="#413936" stroke="black" stroke-width="4" stroke-linecap="round" stroke-linejoin="round"/>
<path d="M96.1791 124.811H82.7891V140.291H96.1791V124.811Z" fill="#99918C" stroke="black" stroke-width="4" stroke-linecap="round" stroke-linejoin="round"/>
<path d="M109.179 124.811H95.7891V140.291H109.179V124.811Z" fill="#99918C" stroke="black" stroke-width="4" stroke-linecap="round" stroke-linejoin="round"/>
<path d="M360.019 124.811H346.629V140.291H360.019V124.811Z" fill="#99918C" stroke="black" stroke-width="4" stroke-linecap="round" stroke-linejoin="round"/>
<path d="M373.007 124.811H359.617V140.291H373.007V124.811Z" fill="#99918C" stroke="black" stroke-width="4" stroke-linecap="round" stroke-linejoin="round"/>
<path d="M145.658 124.811H130.738V140.291H145.658V124.811Z" fill="#99918C" stroke="black" stroke-width="4" stroke-linecap="round" stroke-linejoin="round"/>
<path d="M161.42 124.811H146.5V140.291H161.42V124.811Z" fill="#99918C" stroke="black" stroke-width="4" stroke-linecap="round" stroke-linejoin="round"/>
<path d="M177.17 124.811H162.25V140.291H177.17V124.811Z" fill="#99918C" stroke="black" stroke-width="4" stroke-linecap="round" stroke-linejoin="round"/>
<path d="M211.559 124.811H192.969V140.291H211.559V124.811Z" fill="#99918C" stroke="black" stroke-width="4" stroke-linecap="round" stroke-linejoin="round"/>
<path d="M231.188 124.811H212.598V140.291H231.188V124.811Z" fill="#99918C" stroke="black" stroke-width="4" stroke-linecap="round" stroke-linejoin="round"/>
<path d="M250.809 124.811H232.219V140.291H250.809V124.811Z" fill="#99918C" stroke="black" stroke-width="4" stroke-linecap="round" stroke-linejoin="round"/>
<path d="M286.316 124.811H267.656V140.291H286.316V124.811Z" fill="#99918C" stroke="black" stroke-width="4" stroke-linecap="round" stroke-linejoin="round"/>
<path d="M306.019 124.811H287.359V140.291H306.019V124.811Z" fill="#99918C" stroke="black" stroke-width="4" stroke-linecap="round" stroke-linejoin="round"/>
<path d="M325.719 124.811H307.059V140.291H325.719V124.811Z" fill="#99918C" stroke="black" stroke-width="4" stroke-linecap="round" stroke-linejoin="round"/>
<path d="M24.2997 56.4309L96.7804 42.1714C99.8613 41.5652 102.846 43.577 103.45 46.6481L103.514 46.9719C104.12 50.0528 102.108 53.0373 99.0369 53.6415L26.5563 67.901C23.4754 68.5072 20.4909 66.4954 19.8867 63.4243L19.823 63.1005C19.2169 60.0196 21.2286 57.0351 24.2997 56.4309Z" fill="white" stroke="black" stroke-width="4" stroke-linecap="round" stroke-linejoin="round"/>
<path d="M7.17921 135.538L61.2629 128.734C64.1204 128.375 66.7342 130.405 67.0936 133.262L67.2509 134.512C67.6104 137.37 65.5807 139.983 62.7232 140.343L8.63953 147.146C5.78206 147.506 3.16826 145.476 2.80879 142.619L2.65153 141.369C2.29206 138.511 4.32173 135.897 7.17921 135.538Z" fill="white" stroke="black" stroke-width="4" stroke-linecap="round" stroke-linejoin="round"/>
<path d="M397.317 129.623L448.033 134.507C450.899 134.783 453.004 137.336 452.728 140.203L452.607 141.457C452.331 144.324 449.778 146.429 446.911 146.153L396.196 141.269C393.329 140.993 391.224 138.44 391.5 135.573L391.621 134.319C391.897 131.452 394.45 129.347 397.317 129.623Z" fill="white" stroke="black" stroke-width="4" stroke-linecap="round" stroke-linejoin="round"/>
<path d="M426.369 56.8423L353.123 41.6738C350.3 41.0892 347.538 42.9038 346.953 45.7268L346.698 46.9606C346.113 49.7836 347.928 52.5461 350.751 53.1307L423.997 68.2992C426.82 68.8838 429.582 67.0692 430.167 64.2462L430.422 63.0124C431.007 60.1893 429.192 57.4269 426.369 56.8423Z" fill="white" stroke="black" stroke-width="4" stroke-linecap="round" stroke-linejoin="round"/>
<path d="M39.75 255.42V280.35H422.11V255.42L39.75 255.42Z" fill="#C6C4C4" stroke="black" stroke-width="4" stroke-linecap="round" stroke-linejoin="round"/>
<path d="M177.168 255.429V280.359H267.658V255.429H177.168Z" fill="#C6C4C4" stroke="black" stroke-width="4" stroke-linecap="round" stroke-linejoin="round"/>
<path d="M182.227 262.221H259.187" stroke="black" stroke-width="4" stroke-linecap="round" stroke-linejoin="round"/>
<path d="M182.227 267.93H259.187" stroke="black" stroke-width="4" stroke-linecap="round" stroke-linejoin="round"/>
<path d="M182.227 273.971H259.187" stroke="black" stroke-width="4" stroke-linecap="round" stroke-linejoin="round"/>
<path d="M182.208 33.1802C184.125 33.1802 185.678 31.6267 185.678 29.7102C185.678 27.7938 184.125 26.2402 182.208 26.2402C180.292 26.2402 178.738 27.7938 178.738 29.7102C178.738 31.6267 180.292 33.1802 182.208 33.1802Z" fill="black" stroke="black" stroke-width="4" stroke-miterlimit="10"/>
<path d="M211.708 34.4498C213.625 34.4498 215.178 32.8962 215.178 30.9798C215.178 29.0633 213.625 27.5098 211.708 27.5098C209.792 27.5098 208.238 29.0633 208.238 30.9798C208.238 32.8962 209.792 34.4498 211.708 34.4498Z" fill="black" stroke="black" stroke-width="4" stroke-miterlimit="10"/>
<path d="M244.47 34.4498C246.386 34.4498 247.94 32.8962 247.94 30.9798C247.94 29.0633 246.386 27.5098 244.47 27.5098C242.554 27.5098 241 29.0633 241 30.9798C241 32.8962 242.554 34.4498 244.47 34.4498Z" fill="black" stroke="black" stroke-width="4" stroke-miterlimit="10"/>
<path d="M277.228 33.1802C279.144 33.1802 280.698 31.6267 280.698 29.7102C280.698 27.7938 279.144 26.2402 277.228 26.2402C275.311 26.2402 273.758 27.7938 273.758 29.7102C273.758 31.6267 275.311 33.1802 277.228 33.1802Z" fill="black" stroke="black" stroke-width="4" stroke-miterlimit="10"/>
<path d="M375.779 42.8302C375.779 43.9902 375.569 44.9202 375.319 44.9202C375.069 44.9202 374.859 43.9802 374.859 42.8302C374.859 41.6802 375.069 40.7402 375.319 40.7402C375.569 40.7402 375.779 41.6802 375.779 42.8302Z" fill="white" stroke="black" stroke-width="4" stroke-linecap="round" stroke-linejoin="round"/>
<path d="M83.2491 43.7894C83.5031 43.7894 83.709 42.8537 83.709 41.6994C83.709 40.5451 83.5031 39.6094 83.2491 39.6094C82.995 39.6094 82.7891 40.5451 82.7891 41.6994C82.7891 42.8537 82.995 43.7894 83.2491 43.7894Z" fill="white" stroke="black" stroke-width="4" stroke-linecap="round" stroke-linejoin="round"/>
<path d="M62.1387 45.8908C62.1387 47.0508 61.9288 47.9808 61.6788 47.9808C61.4288 47.9808 61.2188 47.0408 61.2188 45.8908C61.2188 44.7408 61.4288 43.8008 61.6788 43.8008C61.9288 43.8008 62.1387 44.7408 62.1387 45.8908Z" fill="white" stroke="black" stroke-width="4" stroke-linecap="round" stroke-linejoin="round"/>
<path d="M40.5059 49.1095C40.5059 50.2695 40.296 51.1995 40.046 51.1995C39.796 51.1995 39.5859 50.2595 39.5859 49.1095C39.5859 47.9595 39.796 47.0195 40.046 47.0195C40.296 47.0195 40.5059 47.9595 40.5059 49.1095Z" fill="white" stroke="black" stroke-width="4" stroke-linecap="round" stroke-linejoin="round"/>
<path d="M395.249 49.1097C395.503 49.1097 395.709 48.174 395.709 47.0197C395.709 45.8654 395.503 44.9297 395.249 44.9297C394.995 44.9297 394.789 45.8654 394.789 47.0197C394.789 48.174 394.995 49.1097 395.249 49.1097Z" fill="white" stroke="black" stroke-width="4" stroke-linecap="round" stroke-linejoin="round"/>
<path d="M414.687 53.5491C414.941 53.5491 415.147 52.6134 415.147 51.4591C415.147 50.3049 414.941 49.3691 414.687 49.3691C414.433 49.3691 414.227 50.3049 414.227 51.4591C414.227 52.6134 414.433 53.5491 414.687 53.5491Z" fill="white" stroke="black" stroke-width="4" stroke-linecap="round" stroke-linejoin="round"/>
</svg>
