<svg width="584" height="234" viewBox="0 0 584 234" fill="none" xmlns="http://www.w3.org/2000/svg">
<path d="M399.349 84.5697V60.4297H190.759V84.5697H60.7891V179.32H524.219V84.5697H399.349Z" fill="#828282" stroke="black" stroke-width="4" stroke-linecap="round" stroke-linejoin="round"/>
<path d="M571.552 110.99H10.1719V128.76H571.552V110.99Z" fill="#998376" stroke="black" stroke-width="4" stroke-linecap="round" stroke-linejoin="round"/>
<path d="M178.441 44.05L292.511 2L406.571 44.05H178.441Z" fill="#16457D" stroke="black" stroke-width="4" stroke-linecap="round" stroke-linejoin="round"/>
<path d="M193.841 70.4608H393.821L406.571 44.0508H178.441L193.841 70.4608Z" fill="#6B6B6B" stroke="black" stroke-width="4" stroke-linecap="round" stroke-linejoin="round"/>
<path d="M196.09 51.0996H387.3" stroke="#3D3D3D" stroke-width="4" stroke-linecap="round" stroke-linejoin="round"/>
<path d="M196.09 57.8008H387.3" stroke="#3D3D3D" stroke-width="4" stroke-linecap="round" stroke-linejoin="round"/>
<path d="M196.09 64.5H387.3" stroke="#3D3D3D" stroke-width="4" stroke-linecap="round" stroke-linejoin="round"/>
<path d="M193.188 63.8301H3.39844V84.5601H193.188V63.8301Z" fill="#C9C1BC" stroke="black" stroke-width="4" stroke-linecap="round" stroke-linejoin="round"/>
<path d="M193.188 70.3301H3.39844V78.0601H193.188V70.3301Z" fill="#A0A0A0" stroke="black" stroke-width="4" stroke-linecap="round" stroke-linejoin="round"/>
<path d="M581.118 63.8301H391.328V84.5601H581.118V63.8301Z" fill="#C9C1BC" stroke="black" stroke-width="4" stroke-linecap="round" stroke-linejoin="round"/>
<path d="M581.118 70.3301H391.328V78.0601H581.118V70.3301Z" fill="#A0A0A0" stroke="black" stroke-width="4" stroke-linecap="round" stroke-linejoin="round"/>
<path d="M146.911 56.1995C149.054 56.1995 150.791 54.4623 150.791 52.3195C150.791 50.1766 149.054 48.4395 146.911 48.4395C144.768 48.4395 143.031 50.1766 143.031 52.3195C143.031 54.4623 144.768 56.1995 146.911 56.1995Z" fill="black"/>
<path d="M151.902 56.1992H141.922V64.6692H151.902V56.1992Z" fill="black"/>
<path d="M107.31 56.1995C109.453 56.1995 111.19 54.4623 111.19 52.3195C111.19 50.1766 109.453 48.4395 107.31 48.4395C105.167 48.4395 103.43 50.1766 103.43 52.3195C103.43 54.4623 105.167 56.1995 107.31 56.1995Z" fill="black"/>
<path d="M112.3 56.1992H102.32V64.6692H112.3V56.1992Z" fill="black"/>
<path d="M67.7081 56.1995C69.851 56.1995 71.5881 54.4623 71.5881 52.3195C71.5881 50.1766 69.851 48.4395 67.7081 48.4395C65.5653 48.4395 63.8281 50.1766 63.8281 52.3195C63.8281 54.4623 65.5653 56.1995 67.7081 56.1995Z" fill="black"/>
<path d="M72.6987 56.1992H62.7188V64.6692H72.6987V56.1992Z" fill="black"/>
<path d="M28.1105 56.1995C30.2533 56.1995 31.9905 54.4623 31.9905 52.3195C31.9905 50.1766 30.2533 48.4395 28.1105 48.4395C25.9676 48.4395 24.2305 50.1766 24.2305 52.3195C24.2305 54.4623 25.9676 56.1995 28.1105 56.1995Z" fill="black"/>
<path d="M33.1011 56.1992H23.1211V64.6692H33.1011V56.1992Z" fill="black"/>
<path d="M557.173 56.1995C559.316 56.1995 561.053 54.4623 561.053 52.3195C561.053 50.1766 559.316 48.4395 557.173 48.4395C555.03 48.4395 553.293 50.1766 553.293 52.3195C553.293 54.4623 555.03 56.1995 557.173 56.1995Z" fill="black"/>
<path d="M562.171 56.1992H552.191V64.6692H562.171V56.1992Z" fill="black"/>
<path d="M517.572 56.1995C519.714 56.1995 521.451 54.4623 521.451 52.3195C521.451 50.1766 519.714 48.4395 517.572 48.4395C515.429 48.4395 513.691 50.1766 513.691 52.3195C513.691 54.4623 515.429 56.1995 517.572 56.1995Z" fill="black"/>
<path d="M522.57 56.1992H512.59V64.6692H522.57V56.1992Z" fill="black"/>
<path d="M477.97 56.1995C480.113 56.1995 481.85 54.4623 481.85 52.3195C481.85 50.1766 480.113 48.4395 477.97 48.4395C475.827 48.4395 474.09 50.1766 474.09 52.3195C474.09 54.4623 475.827 56.1995 477.97 56.1995Z" fill="black"/>
<path d="M482.968 56.1992H472.988V64.6692H482.968V56.1992Z" fill="black"/>
<path d="M438.372 56.1995C440.515 56.1995 442.252 54.4623 442.252 52.3195C442.252 50.1766 440.515 48.4395 438.372 48.4395C436.229 48.4395 434.492 50.1766 434.492 52.3195C434.492 54.4623 436.229 56.1995 438.372 56.1995Z" fill="black"/>
<path d="M443.371 56.1992H433.391V64.6692H443.371V56.1992Z" fill="black"/>
<path d="M24.0889 84.4102H10.1289V182.39H24.0889V84.4102Z" fill="#413936" stroke="black" stroke-width="4" stroke-linecap="round" stroke-linejoin="round"/>
<path d="M74.6906 84.4102H60.7305V182.39H74.6906V84.4102Z" fill="#413936" stroke="black" stroke-width="4" stroke-linecap="round" stroke-linejoin="round"/>
<path d="M125.288 84.4102H111.328V182.39H125.288V84.4102Z" fill="#413936" stroke="black" stroke-width="4" stroke-linecap="round" stroke-linejoin="round"/>
<path d="M175.89 84.4102H161.93V182.39H175.89V84.4102Z" fill="#413936" stroke="black" stroke-width="4" stroke-linecap="round" stroke-linejoin="round"/>
<path d="M224.769 70.3301H210.809V182.39H224.769V70.3301Z" fill="#413936" stroke="black" stroke-width="4" stroke-linecap="round" stroke-linejoin="round"/>
<path d="M273.659 70.3301H259.699V182.39H273.659V70.3301Z" fill="#413936" stroke="black" stroke-width="4" stroke-linecap="round" stroke-linejoin="round"/>
<path d="M322.538 70.3301H308.578V182.39H322.538V70.3301Z" fill="#413936" stroke="black" stroke-width="4" stroke-linecap="round" stroke-linejoin="round"/>
<path d="M371.429 70.3301H357.469V182.39H371.429V70.3301Z" fill="#413936" stroke="black" stroke-width="4" stroke-linecap="round" stroke-linejoin="round"/>
<path d="M420.312 84.4102H406.352V182.39H420.312V84.4102Z" fill="#413936" stroke="black" stroke-width="4" stroke-linecap="round" stroke-linejoin="round"/>
<path d="M469.198 84.4102H455.238V182.39H469.198V84.4102Z" fill="#413936" stroke="black" stroke-width="4" stroke-linecap="round" stroke-linejoin="round"/>
<path d="M518.081 84.4102H504.121V182.39H518.081V84.4102Z" fill="#413936" stroke="black" stroke-width="4" stroke-linecap="round" stroke-linejoin="round"/>
<path d="M566.972 84.4102H553.012V182.39H566.972V84.4102Z" fill="#413936" stroke="black" stroke-width="4" stroke-linecap="round" stroke-linejoin="round"/>
<path d="M579.72 169.07H2V184.41H579.72V169.07Z" fill="#A0A0A0" stroke="black" stroke-width="4" stroke-linecap="round" stroke-linejoin="round"/>
<path d="M178.02 184.711H3.67969V231.781H178.02V184.711Z" fill="#C9C8C7" stroke="black" stroke-width="4" stroke-linecap="round" stroke-linejoin="round"/>
<path d="M579.719 184.711H405.379V231.781H579.719V184.711Z" fill="#C9C8C7" stroke="black" stroke-width="4" stroke-linecap="round" stroke-linejoin="round"/>
<path d="M405.879 184.711H179.129V231.781H405.879V184.711Z" fill="#EAEAEA" stroke="black" stroke-width="4" stroke-linecap="round" stroke-linejoin="round"/>
<path d="M193.191 203.391H394.481" stroke="#595857" stroke-width="4" stroke-linecap="round" stroke-linejoin="round"/>
<path d="M193.191 212.689H394.481" stroke="#595857" stroke-width="4" stroke-linecap="round" stroke-linejoin="round"/>
<path d="M193.191 222H394.481" stroke="#595857" stroke-width="4" stroke-linecap="round" stroke-linejoin="round"/>
<path d="M193.191 194.49H394.481" stroke="#595857" stroke-width="4" stroke-linecap="round" stroke-linejoin="round"/>
</svg>
