<svg width="488" height="224" viewBox="0 0 488 224" fill="none" xmlns="http://www.w3.org/2000/svg">
<path d="M69.1484 120.28V141.939L432.328 141.939V120.28L69.1484 120.28Z" fill="#726A67" stroke="black" stroke-width="4" stroke-linecap="round" stroke-linejoin="round"/>
<path d="M69.1484 144.319V192.77L426.158 192.77V144.319L69.1484 144.319Z" fill="#999290" stroke="black" stroke-width="4" stroke-linecap="round" stroke-linejoin="round"/>
<path d="M93.8008 136.68H78.3008V147.18H93.8008V136.68Z" fill="#C9C1BC" stroke="black" stroke-width="4" stroke-linecap="round" stroke-linejoin="round"/>
<path d="M108.852 136.68H93.3516V147.18H108.852V136.68Z" fill="#C9C1BC" stroke="black" stroke-width="4" stroke-linecap="round" stroke-linejoin="round"/>
<path d="M399.289 136.68H383.789V147.18H399.289V136.68Z" fill="#C9C1BC" stroke="black" stroke-width="4" stroke-linecap="round" stroke-linejoin="round"/>
<path d="M414.34 136.68H398.84V147.18H414.34V136.68Z" fill="#C9C1BC" stroke="black" stroke-width="4" stroke-linecap="round" stroke-linejoin="round"/>
<path d="M151.1 136.68H133.82V147.18H151.1V136.68Z" fill="#C9C1BC" stroke="black" stroke-width="4" stroke-linecap="round" stroke-linejoin="round"/>
<path d="M169.339 136.68H152.059V147.18H169.339V136.68Z" fill="#C9C1BC" stroke="black" stroke-width="4" stroke-linecap="round" stroke-linejoin="round"/>
<path d="M187.581 136.68H170.301V147.18H187.581V136.68Z" fill="#C9C1BC" stroke="black" stroke-width="4" stroke-linecap="round" stroke-linejoin="round"/>
<path d="M227.409 136.68H205.879V147.18H227.409V136.68Z" fill="#C9C1BC" stroke="black" stroke-width="4" stroke-linecap="round" stroke-linejoin="round"/>
<path d="M250.132 136.68H228.602V147.18H250.132V136.68Z" fill="#C9C1BC" stroke="black" stroke-width="4" stroke-linecap="round" stroke-linejoin="round"/>
<path d="M272.85 136.68H251.32V147.18H272.85V136.68Z" fill="#C9C1BC" stroke="black" stroke-width="4" stroke-linecap="round" stroke-linejoin="round"/>
<path d="M313.969 136.68H292.359V147.18H313.969V136.68Z" fill="#C9C1BC" stroke="black" stroke-width="4" stroke-linecap="round" stroke-linejoin="round"/>
<path d="M336.782 136.68H315.172V147.18H336.782V136.68Z" fill="#C9C1BC" stroke="black" stroke-width="4" stroke-linecap="round" stroke-linejoin="round"/>
<path d="M359.59 136.68H337.98V147.18H359.59V136.68Z" fill="#C9C1BC" stroke="black" stroke-width="4" stroke-linecap="round" stroke-linejoin="round"/>
<path d="M291.142 120.279H272.852V192.769H291.142V120.279Z" fill="#413936" stroke="black" stroke-width="4" stroke-linecap="round" stroke-linejoin="round"/>
<path d="M78.29 117.52H60V192.77H78.29V117.52Z" fill="#413936" stroke="black" stroke-width="4" stroke-linecap="round" stroke-linejoin="round"/>
<path d="M130.188 119.189H111.898V194.439H130.188V119.189Z" fill="#413936" stroke="black" stroke-width="4" stroke-linecap="round" stroke-linejoin="round"/>
<path d="M205.868 119.189H187.578V194.439H205.868V119.189Z" fill="#413936" stroke="black" stroke-width="4" stroke-linecap="round" stroke-linejoin="round"/>
<path d="M381.11 119.189H362.82V194.439H381.11V119.189Z" fill="#413936" stroke="black" stroke-width="4" stroke-linecap="round" stroke-linejoin="round"/>
<path d="M435.302 119.189H417.012V194.439H435.302V119.189Z" fill="#413936" stroke="black" stroke-width="4" stroke-linecap="round" stroke-linejoin="round"/>
<path d="M28.4609 193.78V221.5L471.191 221.5V193.78L28.4609 193.78Z" fill="#C6C4C4" stroke="black" stroke-width="4" stroke-linecap="round" stroke-linejoin="round"/>
<path d="M187.578 193.77V221.49H292.358V193.77H187.578Z" fill="#C6C4C4" stroke="black" stroke-width="4" stroke-linecap="round" stroke-linejoin="round"/>
<path d="M193.43 201.32H282.54" stroke="#595857" stroke-width="4" stroke-linecap="round" stroke-linejoin="round"/>
<path d="M193.43 207.67H282.54" stroke="#595857" stroke-width="4" stroke-linecap="round" stroke-linejoin="round"/>
<path d="M193.43 214.391H282.54" stroke="#595857" stroke-width="4" stroke-linecap="round" stroke-linejoin="round"/>
<path d="M2 79.2402C2 79.2402 86.91 71.1502 121.74 46.0702C126.33 42.7702 143.24 30.6602 143.24 30.6602C143.24 30.6602 226.25 40.1902 244.08 40.1902C261.91 40.1902 342.74 30.6602 342.74 30.6602C342.74 30.6602 355.64 36.0902 358.22 39.7502C360.8 43.4102 376.68 55.8702 384.64 59.1802C412.17 70.6102 475.81 77.9101 485.27 79.2402C485.27 79.2402 446.79 115.97 433.89 119.51C420.99 123.05 72.54 119.51 72.54 119.51C72.54 119.51 48.65 119.18 36.61 108.28C24.57 97.3902 2 79.2302 2 79.2302V79.2402Z" fill="#413936" stroke="black" stroke-width="4" stroke-linecap="round" stroke-linejoin="round"/>
<path d="M2 78.0408C2 78.0408 42.36 93.2708 59.64 96.1708C76.92 99.0708 236.22 100.521 236.22 100.521C236.22 100.521 394.46 100.521 408.93 97.6208C423.4 94.7208 480.44 78.0408 480.44 78.0408C480.44 78.0408 399.56 61.3608 385.09 58.4608C370.62 55.5608 349.33 26.5508 349.33 26.5508C349.33 26.5508 282.08 36.7008 256.54 36.7008C231 36.7008 168.85 40.3308 131.4 26.5508C131.4 26.5508 118.63 49.7608 99.9 57.0108C81.17 64.2608 2 78.0408 2 78.0408Z" fill="#16457D" stroke="black" stroke-width="4" stroke-linecap="round" stroke-linejoin="round"/>
<path d="M159.249 19C159.249 19 251.938 34.4022 333.186 19L337 28.3525V38.8059C337 38.8059 278.603 43.7547 242.098 44.8556C205.594 45.9566 155.435 40.452 151 38.8059L159.249 19Z" fill="white" stroke="black" stroke-width="4" stroke-linecap="round" stroke-linejoin="round"/>
<path d="M138.21 9.65C138.21 9.65 136.4 2 147.85 2C158.7 2 158.7 21.34 150.26 32.46C141.82 43.58 118.93 59.47 107.48 55.17C96.0303 50.88 112.9 43.15 112.9 43.15C112.9 43.15 138.81 28.12 138.21 9.65Z" fill="white" stroke="black" stroke-width="4" stroke-linecap="round" stroke-linejoin="round"/>
<path d="M345.232 9.65C345.232 9.65 347.042 2 335.592 2C324.742 2 324.742 21.34 333.182 32.46C341.622 43.58 364.512 59.47 375.962 55.17C387.412 50.88 370.542 43.15 370.542 43.15C370.542 43.15 344.632 28.12 345.232 9.65Z" fill="white" stroke="black" stroke-width="4" stroke-linecap="round" stroke-linejoin="round"/>
<path d="M174.239 45.8105L166.859 69.1305" stroke="black" stroke-width="4" stroke-linecap="round" stroke-linejoin="round"/>
<path d="M194.232 48.0195L191.922 70.6095" stroke="black" stroke-width="4" stroke-linecap="round" stroke-linejoin="round"/>
<path d="M218.251 48.0195L215.941 70.6095" stroke="black" stroke-width="4" stroke-linecap="round" stroke-linejoin="round"/>
<path d="M240.368 50.6699L238.488 69.1299" stroke="black" stroke-width="4" stroke-linecap="round" stroke-linejoin="round"/>
<path d="M260.759 46.8203L258.789 71.1503" stroke="black" stroke-width="4" stroke-linecap="round" stroke-linejoin="round"/>
<path d="M279.93 48.5605L282.49 71.1505" stroke="black" stroke-width="4" stroke-linecap="round" stroke-linejoin="round"/>
<path d="M300.172 45.5293L305.472 69.1293" stroke="black" stroke-width="4" stroke-linecap="round" stroke-linejoin="round"/>
<path d="M456.299 71.7401C456.631 71.7401 456.899 70.6969 456.899 69.4101C456.899 68.1233 456.631 67.0801 456.299 67.0801C455.968 67.0801 455.699 68.1233 455.699 69.4101C455.699 70.6969 455.968 71.7401 456.299 71.7401Z" fill="white" stroke="black" stroke-width="4" stroke-linecap="round" stroke-linejoin="round"/>
<path d="M441.272 68.2108C441.603 68.2108 441.872 67.1676 441.872 65.8808C441.872 64.594 441.603 63.5508 441.272 63.5508C440.94 63.5508 440.672 64.594 440.672 65.8808C440.672 67.1676 440.94 68.2108 441.272 68.2108Z" fill="white" stroke="black" stroke-width="4" stroke-linecap="round" stroke-linejoin="round"/>
<path d="M427.391 62.2812C427.391 63.5712 427.122 64.6112 426.792 64.6112C426.462 64.6112 426.191 63.5712 426.191 62.2812C426.191 60.9912 426.462 59.9512 426.792 59.9512C427.122 59.9512 427.391 60.9912 427.391 62.2812Z" fill="white" stroke="black" stroke-width="4" stroke-linecap="round" stroke-linejoin="round"/>
<path d="M411.151 61.2303C411.482 61.2303 411.751 60.1871 411.751 58.9003C411.751 57.6135 411.482 56.5703 411.151 56.5703C410.82 56.5703 410.551 57.6135 410.551 58.9003C410.551 60.1871 410.82 61.2303 411.151 61.2303Z" fill="white" stroke="black" stroke-width="4" stroke-linecap="round" stroke-linejoin="round"/>
<path d="M68.6493 60.9999C68.6493 62.2899 68.3792 63.3299 68.0492 63.3299C67.7192 63.3299 67.4492 62.2899 67.4492 60.9999C67.4492 59.7099 67.7192 58.6699 68.0492 58.6699C68.3792 58.6699 68.6493 59.7099 68.6493 60.9999Z" fill="white" stroke="black" stroke-width="4" stroke-linecap="round" stroke-linejoin="round"/>
<path d="M52.6195 66.2596C52.9509 66.2596 53.2195 65.2164 53.2195 63.9296C53.2195 62.6428 52.9509 61.5996 52.6195 61.5996C52.2881 61.5996 52.0195 62.6428 52.0195 63.9296C52.0195 65.2164 52.2881 66.2596 52.6195 66.2596Z" fill="white" stroke="black" stroke-width="4" stroke-linecap="round" stroke-linejoin="round"/>
<path d="M36.3484 67.5507C36.3484 68.8407 36.0784 69.8807 35.7484 69.8807C35.4184 69.8807 35.1484 68.8407 35.1484 67.5507C35.1484 66.2607 35.4184 65.2207 35.7484 65.2207C36.0784 65.2207 36.3484 66.2607 36.3484 67.5507Z" fill="white" stroke="black" stroke-width="4" stroke-linecap="round" stroke-linejoin="round"/>
<path d="M19.4711 73.8495C19.8024 73.8495 20.071 72.8063 20.071 71.5195C20.071 70.2326 19.8024 69.1895 19.4711 69.1895C19.1397 69.1895 18.8711 70.2326 18.8711 71.5195C18.8711 72.8063 19.1397 73.8495 19.4711 73.8495Z" fill="white" stroke="black" stroke-width="4" stroke-linecap="round" stroke-linejoin="round"/>
<path d="M67.8516 96.4004L68.6915 96.9504" stroke="black" stroke-width="4" stroke-linecap="round" stroke-linejoin="round"/>
<path d="M71.1211 98.5508L74.7511 100.941" stroke="black" stroke-width="4" stroke-linecap="round" stroke-linejoin="round" stroke-dasharray="2.9 2.9"/>
<path d="M75.9727 101.74L101.443 118.5" stroke="black" stroke-width="4" stroke-linecap="round" stroke-linejoin="round" stroke-dasharray="1.94 2.9 2.9 2.9"/>
<path d="M102.66 119.301L103.49 119.851" stroke="black" stroke-width="4" stroke-linecap="round" stroke-linejoin="round"/>
<path d="M398.73 97.4492L398.32 97.7292" stroke="black" stroke-width="4" stroke-linecap="round" stroke-linejoin="round"/>
<path d="M396.7 98.8398L395.09 99.9398" stroke="black" stroke-width="4" stroke-linecap="round" stroke-linejoin="round" stroke-dasharray="0.98 1.96"/>
<path d="M394.28 100.5L366.02 119.85" stroke="black" stroke-width="4" stroke-linecap="round" stroke-linejoin="round" stroke-dasharray="0.98 1.96 0.98 1.96"/>
<path d="M365.211 120.398L364.801 120.678" stroke="black" stroke-width="4" stroke-linecap="round" stroke-linejoin="round"/>
<path d="M130.52 100.52V101.52" stroke="black" stroke-width="4" stroke-linecap="round" stroke-linejoin="round"/>
<path d="M130.52 104.16V108.11" stroke="black" stroke-width="4" stroke-linecap="round" stroke-linejoin="round" stroke-dasharray="2.64 2.64"/>
<path d="M130.52 109.43V117.77" stroke="black" stroke-width="4" stroke-linecap="round" stroke-linejoin="round" stroke-dasharray="1.76 2.64 2.64 2.64"/>
<path d="M130.52 119.09V120.09" stroke="black" stroke-width="4" stroke-linecap="round" stroke-linejoin="round"/>
<path d="M163.52 100.93V101.93" stroke="black" stroke-width="4" stroke-linecap="round" stroke-linejoin="round"/>
<path d="M163.52 104.609V108.609" stroke="black" stroke-width="4" stroke-linecap="round" stroke-linejoin="round" stroke-dasharray="2.67 2.67"/>
<path d="M163.52 109.949V118.419" stroke="black" stroke-width="4" stroke-linecap="round" stroke-linejoin="round" stroke-dasharray="1.78 2.67 2.67 2.67"/>
<path d="M163.52 119.75V120.75" stroke="black" stroke-width="4" stroke-linecap="round" stroke-linejoin="round"/>
<path d="M195.359 101.6V102.6" stroke="black" stroke-width="4" stroke-linecap="round" stroke-linejoin="round"/>
<path d="M195.359 105.17V109.03" stroke="black" stroke-width="4" stroke-linecap="round" stroke-linejoin="round" stroke-dasharray="2.57 2.57"/>
<path d="M195.359 110.32V118.47" stroke="black" stroke-width="4" stroke-linecap="round" stroke-linejoin="round" stroke-dasharray="1.72 2.57 2.57 2.57"/>
<path d="M195.359 119.75V120.75" stroke="black" stroke-width="4" stroke-linecap="round" stroke-linejoin="round"/>
<path d="M281.352 101.461V102.461" stroke="black" stroke-width="4" stroke-linecap="round" stroke-linejoin="round"/>
<path d="M281.352 105.051V108.941" stroke="black" stroke-width="4" stroke-linecap="round" stroke-linejoin="round" stroke-dasharray="2.59 2.59"/>
<path d="M281.352 110.24V118.46" stroke="black" stroke-width="4" stroke-linecap="round" stroke-linejoin="round" stroke-dasharray="1.73 2.59 2.59 2.59"/>
<path d="M281.352 119.75V120.75" stroke="black" stroke-width="4" stroke-linecap="round" stroke-linejoin="round"/>
<path d="M314.109 101.6V102.1" stroke="black" stroke-width="4" stroke-linecap="round" stroke-linejoin="round"/>
<path d="M314.109 104.23V106.37" stroke="black" stroke-width="4" stroke-linecap="round" stroke-linejoin="round" stroke-dasharray="1.07 2.14"/>
<path d="M314.109 107.439V119.189" stroke="black" stroke-width="4" stroke-linecap="round" stroke-linejoin="round" stroke-dasharray="1.07 2.14 1.07 2.14"/>
<path d="M314.109 120.25V120.75" stroke="black" stroke-width="4" stroke-linecap="round" stroke-linejoin="round"/>
<path d="M344.84 101.039V101.539" stroke="black" stroke-width="4" stroke-linecap="round" stroke-linejoin="round"/>
<path d="M344.84 103.738V105.938" stroke="black" stroke-width="4" stroke-linecap="round" stroke-linejoin="round" stroke-dasharray="1.1 2.2"/>
<path d="M344.84 107.039V119.119" stroke="black" stroke-width="4" stroke-linecap="round" stroke-linejoin="round" stroke-dasharray="1.1 2.2 1.1 2.2"/>
<path d="M344.84 120.219V120.719" stroke="black" stroke-width="4" stroke-linecap="round" stroke-linejoin="round"/>
</svg>
