<svg width="209" height="172" viewBox="0 0 209 172" fill="none" xmlns="http://www.w3.org/2000/svg">
<g clip-path="url(#clip0_1362_12295)">
<path d="M6.32227 38.327C6.32227 38.327 53.7859 28.1929 55.5103 26.8167C57.2346 25.4406 64.14 10.4055 64.14 10.4055C64.14 10.4055 97.4618 14.1069 104.619 14.1069C111.776 14.1069 144.223 10.4055 144.223 10.4055C144.223 10.4055 149.402 22.9466 150.438 24.3649C151.473 25.7833 161.483 29.2211 161.483 29.2211C161.483 29.2211 198.762 37.8103 202.56 38.3243C202.56 38.3243 185.992 53.9552 180.814 55.3314C175.635 56.7075 35.7609 55.3314 35.7609 55.3314C35.7609 55.3314 26.1723 55.2022 21.3409 50.9709C16.5095 46.7395 6.32491 38.3243 6.32491 38.3243L6.32227 38.327Z" fill="#413936"/>
<path d="M139.363 57.6593C99.6708 57.6593 44.9097 57.1373 35.7423 57.0476C35.3185 57.0424 25.4517 56.8578 20.2018 52.2627C15.442 48.0973 5.32623 39.7322 5.22293 39.6478C4.71701 39.2286 4.49451 38.559 4.65079 37.921C4.80707 37.283 5.31829 36.7926 5.96194 36.6556C23.3168 32.9489 51.5185 26.6928 54.4824 25.4274C55.6029 24.1567 59.5046 16.3821 62.5745 9.69636C62.8844 9.02409 63.5916 8.62337 64.3306 8.7051C64.6617 8.742 97.6392 12.396 104.619 12.396C111.598 12.396 143.702 8.74464 144.027 8.70773C144.793 8.62073 145.524 9.05046 145.815 9.75963C148.26 15.6782 151.131 22.2849 151.796 23.3157C152.67 24.075 157.695 26.1102 161.957 27.5786C174.851 30.5498 199.856 36.2364 202.791 36.6345C203.448 36.7241 203.993 37.1802 204.197 37.8076C204.401 38.4351 204.224 39.1232 203.742 39.5766C202.012 41.2059 186.699 55.5502 181.253 56.9949C179.36 57.4985 161.758 57.6645 139.363 57.6645V57.6593ZM10.1364 39.2603C13.511 42.068 19.2244 46.8424 22.4745 49.687C26.7655 53.4411 35.6946 53.6178 35.7847 53.6204C91.5946 54.1688 176.165 54.6354 180.379 53.6758C183.418 52.869 192.49 45.2342 198.908 39.3736C188.93 37.3041 162.402 31.1957 161.094 30.8952C161.035 30.882 160.977 30.8662 160.921 30.8451C160.818 30.8108 158.352 29.9619 155.714 28.9232C150.427 26.8405 149.497 25.9995 149.042 25.3747C148.085 24.0618 144.719 16.0895 143.127 12.2562C136.937 12.9522 111.058 15.8206 104.619 15.8206C98.1795 15.8206 71.3764 12.9259 65.1862 12.2457C62.8341 17.3207 58.2967 26.7957 56.5856 28.156C56.032 28.5963 55.1976 29.2606 30.646 34.76C22.5831 36.5659 14.5467 38.3085 10.1338 39.2603H10.1364Z" fill="black"/>
<path d="M7.44531 38.2349C7.44531 38.2349 23.8122 45.4505 30.8156 46.8241C37.819 48.1976 102.415 48.8857 102.415 48.8857C102.415 48.8857 166.574 48.8857 172.441 47.5121C178.308 46.1386 201.437 38.2349 201.437 38.2349C201.437 38.2349 168.645 30.3338 162.778 28.9576C156.911 27.5814 148.281 13.8408 148.281 13.8408C148.281 13.8408 121.012 18.6495 110.658 18.6495C100.304 18.6495 75.1033 20.3684 59.9152 13.8408C59.9152 13.8408 54.7368 24.8344 47.1427 28.2695C39.5486 31.7047 7.44531 38.2349 7.44531 38.2349Z" fill="#16457D"/>
<path d="M102.415 50.5993C99.7532 50.5703 37.5623 49.8954 30.4847 48.5061C23.3727 47.1114 7.42437 40.1014 6.74893 39.8035C6.06289 39.5003 5.65498 38.7938 5.73444 38.053C5.81391 37.3122 6.3675 36.7084 7.10122 36.5582C7.41907 36.4923 39.0986 30.0306 46.4304 26.7141C53.3491 23.5848 58.3076 13.2213 58.3553 13.1159C58.7499 12.2775 59.7432 11.9058 60.5961 12.2696C73.1673 17.6741 93.1312 17.2654 105.059 17.0203C107.22 16.9755 109.088 16.9385 110.656 16.9385C120.742 16.9385 147.71 12.2037 147.98 12.1562C148.671 12.035 149.368 12.3434 149.741 12.9339C152.936 18.0168 159.407 26.4083 163.173 27.2914C168.979 28.6518 201.517 36.4923 201.845 36.5714C202.59 36.7506 203.125 37.3965 203.159 38.1558C203.194 38.9151 202.722 39.6084 201.999 39.8562C201.051 40.1805 178.724 47.8022 172.839 49.181C166.844 50.5835 105.045 50.602 102.418 50.602L102.415 50.5993ZM13.1431 38.7964C18.491 41.0162 26.7844 44.2879 31.1469 45.1447C36.5637 46.2072 80.1442 46.9374 102.431 47.1747C120.202 47.1747 167.39 46.9348 172.044 45.846C175.98 44.9233 188.045 40.9371 195.261 38.5143C185.571 36.1812 166.664 31.6335 162.379 30.629C156.766 29.3135 149.683 19.1425 147.445 15.7285C142.113 16.6485 119.953 20.3684 110.65 20.3684C109.119 20.3684 107.268 20.4053 105.125 20.4501C93.367 20.6901 73.9831 21.0855 60.7233 16.0237C58.9751 19.2532 54.2894 26.9197 47.8502 29.8329C42.0122 32.4745 22.6681 36.7691 13.1405 38.7964H13.1431Z" fill="black"/>
<path d="M1.72168 80.7643C1.72168 80.7643 53.4711 79.6703 55.1981 78.6157C56.9251 77.5612 63.8278 66.0193 63.8278 66.0193C63.8278 66.0193 97.1496 68.8586 104.307 68.8586C111.464 68.8586 143.911 66.0193 143.911 66.0193C143.911 66.0193 149.09 75.6419 150.125 76.7334C151.161 77.8248 161.171 80.4612 161.171 80.4612C161.171 80.4612 203.483 81.8584 207.281 82.2539C207.281 82.2539 195.798 97.1175 187.741 101.301C187.153 101.607 177.034 105.037 172.595 105.137C142.107 105.81 35.4514 104.723 35.4514 104.723C35.4514 104.723 25.8627 104.623 21.0313 101.378C16.2 98.1325 1.72963 80.767 1.72963 80.767L1.72168 80.7643Z" fill="#413936"/>
<path d="M140.785 107.067C98.1001 107.067 36.2403 106.442 35.4271 106.434C35.0139 106.429 25.2611 106.289 20.0615 102.796C15.0818 99.4505 0.992885 82.5753 0.396907 81.8582C-0.0242501 81.352 -0.119606 80.6508 0.155868 80.0523C0.431341 79.4539 1.02467 79.0663 1.68422 79.0505C20.4323 78.6551 50.8696 77.7772 54.3845 77.0733C55.5526 75.9766 59.351 70.1529 62.3468 65.1438C62.6832 64.5797 63.3162 64.258 63.9731 64.3134C64.3069 64.3424 97.3028 67.1475 104.304 67.1475C111.304 67.1475 143.434 64.3424 143.757 64.3134C144.443 64.2501 145.1 64.606 145.426 65.2124C147.813 69.6467 150.626 74.6241 151.33 75.5073C152.294 76.1216 157.224 77.6454 161.419 78.7553C164.924 78.8713 203.734 80.1604 207.455 80.548C208.075 80.6139 208.613 81.0067 208.859 81.5761C209.106 82.1456 209.021 82.8047 208.642 83.2977C208.163 83.9172 196.831 98.5093 188.532 102.82C187.703 103.252 177.347 106.745 172.629 106.848C165.477 107.006 154.056 107.067 140.788 107.067H140.785ZM5.34749 82.3987C10.2954 88.1986 18.7769 97.8002 21.9845 99.9567C26.3259 102.872 35.3715 103.007 35.4616 103.01C36.5264 103.02 142.438 104.09 172.55 103.426C176.47 103.339 185.854 100.252 186.967 99.7695C192.619 96.8168 200.24 88.1248 203.85 83.7643C193.131 83.237 161.475 82.1904 161.107 82.1799C160.977 82.1746 160.85 82.1561 160.723 82.1245C153.767 80.2922 149.778 78.8765 148.867 77.9169C147.897 76.8966 144.711 71.1283 142.926 67.8303C137.04 68.3391 110.777 70.5773 104.301 70.5773C97.8246 70.5773 70.611 68.3154 64.7492 67.8224C62.0289 72.3279 57.7909 79.0426 56.0956 80.0787C55.4414 80.4794 54.6282 80.9777 27.8622 81.8002C18.9782 82.0744 10.1153 82.2879 5.34484 82.3987H5.34749ZM186.948 99.7774C186.948 99.7774 186.943 99.7801 186.94 99.7827C186.943 99.7827 186.946 99.7801 186.948 99.7774Z" fill="black"/>
<path d="M1.72168 81.6792C1.72168 81.6792 23.4974 92.641 30.5008 94.0172C37.5042 95.3934 102.1 96.0788 102.1 96.0788C102.1 96.0788 166.259 96.0788 172.126 94.7053C177.993 93.3318 207.276 83.2636 207.276 83.2636C207.276 83.2636 168.328 77.5269 162.461 76.1534C156.594 74.7799 147.964 61.0366 147.964 61.0366C147.964 61.0366 120.695 65.8453 110.341 65.8453C99.9864 65.8453 74.7859 67.5642 59.5977 61.0366C59.5977 61.0366 54.4193 72.0302 46.8252 75.4653C39.2312 78.9005 1.72168 81.6792 1.72168 81.6792Z" fill="#16457D"/>
<path d="M102.1 97.7896C99.438 97.7606 37.2471 97.0857 30.1695 95.6964C23.0151 94.2938 1.84335 83.6588 0.94541 83.208C0.256726 82.86 -0.116754 82.0981 0.0342273 81.3441C0.185208 80.5901 0.823566 80.0286 1.59436 79.9706C11.9432 79.2034 40.113 76.6198 46.1152 73.9044C53.0338 70.775 57.9924 60.4116 58.04 60.3061C58.4347 59.4704 59.428 59.0961 60.2809 59.4599C72.8521 64.8644 92.816 64.4557 104.743 64.2106C106.905 64.1657 108.772 64.1288 110.34 64.1288C120.427 64.1288 147.394 59.394 147.664 59.3465C148.356 59.2226 149.052 59.5337 149.426 60.1269C152.62 65.2097 159.091 73.6012 162.858 74.4844C168.59 75.8263 207.143 81.5102 207.53 81.5682C208.314 81.6842 208.918 82.3169 208.992 83.1052C209.066 83.8908 208.589 84.6264 207.84 84.8847C206.64 85.296 178.406 94.9977 172.521 96.3739C166.526 97.7764 104.728 97.7949 102.1 97.7949V97.7896ZM8.07065 82.8811C14.9496 86.1923 26.289 91.4413 30.8343 92.335C36.2511 93.3975 79.8316 94.1277 102.119 94.365C119.889 94.365 167.077 94.1251 171.731 93.0363C175.723 92.1004 191.049 86.9674 200.036 83.9198C188.511 82.1957 166.455 78.8475 162.066 77.822C156.453 76.5064 149.37 66.3354 147.132 62.9214C141.8 63.8415 119.64 67.5613 110.34 67.5613C108.809 67.5613 106.958 67.5982 104.815 67.6431C93.057 67.883 73.6732 68.2784 60.4134 63.2167C58.6652 66.4462 53.9795 74.1126 47.5402 77.0258C41.6202 79.7043 19.1638 81.9241 8.0733 82.8837L8.07065 82.8811Z" fill="black"/>
<path d="M69.8803 10.4055C69.8803 10.4055 107.678 17.6212 140.815 10.4055L142.367 14.7871V19.6828C142.367 19.6828 118.552 22.0028 103.666 22.5169C88.7794 23.0309 68.3254 20.4552 66.5137 19.6828L69.8803 10.4055Z" fill="white"/>
<path d="M99.5069 24.1673C85.0683 24.1673 67.8327 21.9659 65.8885 21.1355C65.115 20.8059 64.7336 19.9333 65.0197 19.145L68.3863 9.86776C68.6512 9.13749 69.4114 8.70513 70.1795 8.85277C70.5556 8.92395 108.052 15.9208 140.476 8.86068C141.26 8.69195 142.046 9.12695 142.314 9.87831L143.866 14.2599C143.927 14.4286 143.956 14.6079 143.956 14.7872V19.6828C143.956 20.4975 143.336 21.1777 142.521 21.2567C142.282 21.2805 118.485 23.5873 103.718 24.0987C102.354 24.1462 100.943 24.1673 99.5042 24.1673H99.5069ZM68.6114 18.5571C73.864 19.4904 90.9407 21.3727 103.61 20.9351C116.189 20.5001 135.409 18.7496 140.778 18.2434V15.0561L139.779 12.2405C110.55 18.2355 77.8689 13.3609 70.9185 12.193L68.6088 18.5571H68.6114Z" fill="black"/>
<path d="M61.0416 6.17165C61.0416 6.17165 60.2655 1.58179 65.1843 1.58179C69.8435 1.58179 69.8435 13.1896 66.22 19.8569C62.5965 26.5242 52.7589 36.0598 47.8401 33.4841C42.9213 30.9084 50.171 26.2685 50.171 26.2685C50.171 26.2685 61.3038 17.2495 61.0443 6.16902L61.0416 6.17165Z" fill="white"/>
<path d="M49.7102 35.5036C48.7619 35.5036 47.8878 35.2979 47.0985 34.884C45.0642 33.819 44.5848 32.4006 44.5424 31.3962C44.41 28.338 48.2401 25.6358 49.2255 24.9925C49.6334 24.6498 52.0888 22.5381 54.478 19.3639C56.801 16.2741 59.5452 11.5076 59.4551 6.29821C59.3756 5.69449 59.2141 3.50897 60.6497 1.81907C61.3543 0.988627 62.7157 0 65.1844 0C66.7393 0 68.0901 0.830447 68.9934 2.33843C71.3402 6.25603 70.6833 14.9665 67.616 20.6109C65.6586 24.2148 62.088 28.4329 58.5254 31.3592C55.1799 34.1063 52.1868 35.5036 49.7102 35.5036ZM65.1844 3.16361C64.1885 3.16361 63.4813 3.3956 63.0866 3.85169C62.5383 4.48705 62.5595 5.56004 62.6124 5.92122C62.6257 5.99503 62.631 6.05831 62.631 6.13476C62.7449 11.0252 60.7874 16.2768 56.9732 21.3253C54.139 25.0769 51.2915 27.3995 51.1723 27.4944C51.1273 27.5313 51.0796 27.5656 51.0293 27.5972C49.4321 28.6254 47.6786 30.3812 47.7183 31.2564C47.7342 31.6018 48.3249 31.9471 48.5792 32.079C50.134 32.8936 53.0954 31.7099 56.5043 28.9127C59.7782 26.2263 63.0442 22.3746 64.8215 19.1003C67.5154 14.144 67.865 6.62775 66.2625 3.95187C65.7857 3.15833 65.3645 3.15833 65.1818 3.15833L65.1844 3.16361Z" fill="black"/>
<path d="M147.839 6.17165C147.839 6.17165 148.615 1.58179 143.697 1.58179C139.037 1.58179 139.037 13.1896 142.661 19.8569C146.284 26.5268 156.122 36.0598 161.041 33.4841C165.96 30.9084 158.71 26.2685 158.71 26.2685C158.71 26.2685 147.577 17.2495 147.837 6.16902L147.839 6.17165Z" fill="white"/>
<path d="M159.171 35.5036C156.694 35.5036 153.701 34.1063 150.355 31.3592C146.79 28.4329 143.222 24.2148 141.265 20.6109C138.197 14.9665 137.541 6.25867 139.887 2.33843C140.791 0.830447 142.144 0 143.696 0C146.165 0 147.526 0.988627 148.231 1.81907C149.667 3.50897 149.502 5.69449 149.426 6.29821C149.338 11.5076 152.08 16.2741 154.403 19.3639C156.792 22.5381 159.247 24.6498 159.655 24.9925C160.638 25.6358 164.471 28.338 164.338 31.3962C164.293 32.398 163.817 33.8163 161.782 34.884C160.993 35.2979 160.119 35.5036 159.171 35.5036ZM143.699 3.16361C143.519 3.16361 143.095 3.16361 142.618 3.95714C141.016 6.63303 141.365 14.1466 144.059 19.1055C145.839 22.3799 149.103 26.2316 152.376 28.918C155.785 31.7152 158.747 32.8989 160.302 32.0842C160.556 31.9524 161.149 31.6044 161.162 31.2591C161.202 30.3311 159.261 28.5015 157.851 27.5998C157.801 27.5682 157.753 27.5339 157.708 27.497C157.229 27.1095 145.977 17.8559 146.25 6.13476C146.25 6.06358 146.258 5.9924 146.268 5.92122C146.321 5.56004 146.342 4.48705 145.794 3.85433C145.4 3.39824 144.692 3.16624 143.696 3.16624L143.699 3.16361Z" fill="black"/>
<path d="M73.3528 34.8892C73.2044 34.8892 73.0535 34.8708 72.9025 34.8286C71.9834 34.5808 71.4404 33.6422 71.6893 32.7274L74.8599 21.0537C75.1089 20.1389 76.0519 19.5985 76.971 19.8463C77.8902 20.0941 78.4332 21.0326 78.1842 21.9474L75.0136 33.6212C74.807 34.3857 74.1103 34.8892 73.3528 34.8892Z" fill="black"/>
<path d="M84.1234 35.6302C84.073 35.6302 84.0227 35.6302 83.9724 35.6249C83.0241 35.5432 82.3248 34.7127 82.4069 33.7689L83.3976 22.459C83.4797 21.5152 84.3141 20.8166 85.2623 20.9009C86.2106 20.9827 86.9099 21.8131 86.8278 22.7569L85.8371 34.0668C85.7577 34.9579 85.0081 35.6302 84.1234 35.6302Z" fill="black"/>
<path d="M94.4398 35.6302C94.3894 35.6302 94.3391 35.6302 94.2888 35.6249C93.3405 35.5432 92.6412 34.7127 92.7233 33.7689L93.714 22.459C93.7961 21.5152 94.6305 20.8166 95.5787 20.9009C96.527 20.9827 97.2263 21.8131 97.1442 22.7569L96.1535 34.0668C96.0741 34.9579 95.3245 35.6302 94.4398 35.6302Z" fill="black"/>
<path d="M104.129 34.8892C104.079 34.8892 104.029 34.8892 103.978 34.8839C103.03 34.8022 102.331 33.9718 102.413 33.028L103.223 23.785C103.305 22.8411 104.14 22.1425 105.088 22.2269C106.036 22.3086 106.736 23.139 106.654 24.0829L105.843 33.3259C105.764 34.2169 105.014 34.8892 104.129 34.8892Z" fill="black"/>
<path d="M112.849 35.9017C112.809 35.9017 112.769 35.9017 112.727 35.8964C111.779 35.8305 111.063 35.0132 111.127 34.0694L111.972 21.8895C112.038 20.9457 112.862 20.2313 113.808 20.2972C114.756 20.3631 115.471 21.1804 115.407 22.1242L114.562 34.3041C114.499 35.2083 113.744 35.899 112.846 35.899L112.849 35.9017Z" fill="black"/>
<path d="M123.028 35.9016C122.151 35.9016 121.402 35.2399 121.317 34.3515L120.22 23.0416C120.128 22.1004 120.821 21.262 121.767 21.1724C122.713 21.0828 123.555 21.7709 123.645 22.712L124.742 34.0219C124.834 34.9631 124.14 35.8014 123.195 35.8911C123.139 35.8964 123.084 35.899 123.028 35.899V35.9016Z" fill="black"/>
<path d="M132.906 34.8892C132.095 34.8892 131.375 34.3198 131.216 33.4972L128.938 21.6838C128.758 20.7532 129.369 19.8568 130.304 19.6775C131.237 19.4983 132.14 20.1073 132.32 21.0379L134.598 32.8513C134.778 33.782 134.166 34.6783 133.231 34.8576C133.123 34.8787 133.012 34.8892 132.906 34.8892Z" fill="black"/>
<path d="M180.089 55.1602H30.5273V79.251H180.089V55.1602Z" fill="white"/>
<path d="M180.088 80.701H30.5271C29.7219 80.701 29.0703 80.0525 29.0703 79.2511V55.1602C29.0703 54.3587 29.7219 53.7102 30.5271 53.7102H180.088C180.894 53.7102 181.545 54.3587 181.545 55.1602V79.2511C181.545 80.0525 180.894 80.701 180.088 80.701ZM31.984 77.8011H178.632V56.6102H31.984V77.8011Z" fill="black"/>
<path d="M180.089 105.356H30.5273V123.473H180.089V105.356Z" fill="white"/>
<path d="M180.088 124.923H30.5271C29.7219 124.923 29.0703 124.274 29.0703 123.473V105.356C29.0703 104.555 29.7219 103.906 30.5271 103.906H180.088C180.894 103.906 181.545 104.555 181.545 105.356V123.473C181.545 124.274 180.894 124.923 180.088 124.923ZM31.984 122.023H178.632V106.806H31.984V122.023Z" fill="black"/>
<path d="M172.932 105.242H38.3125V116.523H172.932V105.242Z" fill="#8C8480"/>
<path d="M172.932 117.578H38.3124C37.7271 117.578 37.2529 117.106 37.2529 116.523V105.243C37.2529 104.66 37.7271 104.188 38.3124 104.188H172.932C173.517 104.188 173.991 104.66 173.991 105.243V116.523C173.991 117.106 173.517 117.578 172.932 117.578ZM39.372 115.469H171.872V106.297H39.372V115.469Z" fill="black"/>
<path d="M195.727 152.433H11.043V170.55H195.727V152.433Z" fill="white"/>
<path d="M195.727 172H11.0428C10.2375 172 9.58594 171.351 9.58594 170.55V152.433C9.58594 151.632 10.2375 150.983 11.0428 150.983H195.727C196.532 150.983 197.184 151.632 197.184 152.433V170.55C197.184 171.351 196.532 172 195.727 172ZM12.4996 169.1H194.27V153.883H12.4996V169.1Z" fill="black"/>
<path d="M30.5273 70.4879V79.6096L180.089 79.6096V70.4879L30.5273 70.4879Z" fill="#726A67"/>
<path d="M180.088 81.0595H30.5271C29.7219 81.0595 29.0703 80.411 29.0703 79.6096V70.4878C29.0703 69.6864 29.7219 69.0378 30.5271 69.0378H180.088C180.894 69.0378 181.545 69.6864 181.545 70.4878V79.6096C181.545 80.411 180.894 81.0595 180.088 81.0595ZM31.984 78.1596H178.632V71.9378H31.984V78.1596Z" fill="black"/>
<path d="M170.924 118.237H40.7227C39.7718 118.237 39.001 117.47 39.001 116.523C39.001 115.577 39.7718 114.81 40.7227 114.81H170.924C171.875 114.81 172.646 115.577 172.646 116.523C172.646 117.47 171.875 118.237 170.924 118.237Z" fill="black"/>
<path d="M190.191 165.404H18.8089C18.2977 165.404 17.8818 164.99 17.8818 164.481C17.8818 163.972 18.2977 163.558 18.8089 163.558H190.191C190.702 163.558 191.118 163.972 191.118 164.481C191.118 164.99 190.702 165.404 190.191 165.404Z" fill="#595857"/>
<path d="M190.191 159.322H18.8089C18.2977 159.322 17.8818 158.908 17.8818 158.399C17.8818 157.89 18.2977 157.476 18.8089 157.476H190.191C190.702 157.476 191.118 157.89 191.118 158.399C191.118 158.908 190.702 159.322 190.191 159.322Z" fill="#595857"/>
<path d="M40.7195 55.9458H31.5547V79.2537H40.7195V55.9458Z" fill="#413936"/>
<path d="M40.7222 80.701H31.5574C30.7522 80.701 30.1006 80.0525 30.1006 79.251V55.9432C30.1006 55.1417 30.7522 54.4932 31.5574 54.4932H40.7222C41.5275 54.4932 42.1791 55.1417 42.1791 55.9432V79.251C42.1791 80.0525 41.5275 80.701 40.7222 80.701ZM33.0116 77.801H39.2627V57.3931H33.0116V77.801Z" fill="black"/>
<path d="M82.1687 55.9458H73.0039V79.2537H82.1687V55.9458Z" fill="#413936"/>
<path d="M82.1685 80.701H73.0037C72.1985 80.701 71.5469 80.0525 71.5469 79.251V55.9432C71.5469 55.1417 72.1985 54.4932 73.0037 54.4932H82.1685C82.9737 54.4932 83.6253 55.1417 83.6253 55.9432V79.251C83.6253 80.0525 82.9737 80.701 82.1685 80.701ZM74.4605 77.801H80.7117V57.3931H74.4605V77.801Z" fill="black"/>
<path d="M134.416 55.9458H125.251V79.2537H134.416V55.9458Z" fill="#413936"/>
<path d="M134.416 80.701H125.251C124.446 80.701 123.794 80.0525 123.794 79.251V55.9432C123.794 55.1417 124.446 54.4932 125.251 54.4932H134.416C135.221 54.4932 135.872 55.1417 135.872 55.9432V79.251C135.872 80.0525 135.221 80.701 134.416 80.701ZM126.708 77.801H132.959V57.3931H126.708V77.801Z" fill="black"/>
<path d="M180.089 55.9458H170.924V79.2537H180.089V55.9458Z" fill="#413936"/>
<path d="M180.088 80.701H170.924C170.118 80.701 169.467 80.0525 169.467 79.251V55.9432C169.467 55.1417 170.118 54.4932 170.924 54.4932H180.088C180.894 54.4932 181.545 55.1417 181.545 55.9432V79.251C181.545 80.0525 180.894 80.701 180.088 80.701ZM172.38 77.801H178.632V57.3931H172.38V77.801Z" fill="black"/>
<path d="M40.7195 105.356H31.5547V123.473H40.7195V105.356Z" fill="#413936"/>
<path d="M40.7222 124.923H31.5574C30.7522 124.923 30.1006 124.274 30.1006 123.473V105.356C30.1006 104.555 30.7522 103.906 31.5574 103.906H40.7222C41.5275 103.906 42.1791 104.555 42.1791 105.356V123.473C42.1791 124.274 41.5275 124.923 40.7222 124.923ZM33.0116 122.023H39.2627V106.806H33.0116V122.023Z" fill="black"/>
<path d="M82.1687 105.356H73.0039V123.473H82.1687V105.356Z" fill="#413936"/>
<path d="M82.1685 124.923H73.0037C72.1985 124.923 71.5469 124.274 71.5469 123.473V105.356C71.5469 104.555 72.1985 103.906 73.0037 103.906H82.1685C82.9737 103.906 83.6253 104.555 83.6253 105.356V123.473C83.6253 124.274 82.9737 124.923 82.1685 124.923ZM74.4605 122.023H80.7117V106.806H74.4605V122.023Z" fill="black"/>
<path d="M134.416 105.356H125.251V123.473H134.416V105.356Z" fill="#413936"/>
<path d="M134.416 124.923H125.251C124.446 124.923 123.794 124.274 123.794 123.473V105.356C123.794 104.555 124.446 103.906 125.251 103.906H134.416C135.221 103.906 135.872 104.555 135.872 105.356V123.473C135.872 124.274 135.221 124.923 134.416 124.923ZM126.708 122.023H132.959V106.806H126.708V122.023Z" fill="black"/>
<path d="M180.089 105.356H170.924V123.473H180.089V105.356Z" fill="#413936"/>
<path d="M180.088 124.923H170.924C170.118 124.923 169.467 124.274 169.467 123.473V105.356C169.467 104.555 170.118 103.906 170.924 103.906H180.088C180.894 103.906 181.545 104.555 181.545 105.356V123.473C181.545 124.274 180.894 124.923 180.088 124.923ZM172.38 122.023H178.632V106.806H172.38V122.023Z" fill="black"/>
<path d="M40.7195 122.492H31.5547V152.423H40.7195V122.492Z" fill="#413936"/>
<path d="M40.7222 153.873H31.5574C30.7522 153.873 30.1006 153.224 30.1006 152.423V122.492C30.1006 121.691 30.7522 121.042 31.5574 121.042H40.7222C41.5275 121.042 42.1791 121.691 42.1791 122.492V152.423C42.1791 153.224 41.5275 153.873 40.7222 153.873ZM33.0116 150.973H39.2627V123.942H33.0116V150.973Z" fill="black"/>
<path d="M82.1687 122.492H73.0039V152.423H82.1687V122.492Z" fill="#413936"/>
<path d="M82.1685 153.873H73.0037C72.1985 153.873 71.5469 153.224 71.5469 152.423V122.492C71.5469 121.691 72.1985 121.042 73.0037 121.042H82.1685C82.9737 121.042 83.6253 121.691 83.6253 122.492V152.423C83.6253 153.224 82.9737 153.873 82.1685 153.873ZM74.4605 150.973H80.7117V123.942H74.4605V150.973Z" fill="black"/>
<path d="M134.416 122.492H125.251V152.423H134.416V122.492Z" fill="#413936"/>
<path d="M134.416 153.873H125.251C124.446 153.873 123.794 153.224 123.794 152.423V122.492C123.794 121.691 124.446 121.042 125.251 121.042H134.416C135.221 121.042 135.872 121.691 135.872 122.492V152.423C135.872 153.224 135.221 153.873 134.416 153.873ZM126.708 150.973H132.959V123.942H126.708V150.973Z" fill="black"/>
<path d="M180.089 122.492H170.924V152.423H180.089V122.492Z" fill="#413936"/>
<path d="M180.088 153.873H170.924C170.118 153.873 169.467 153.224 169.467 152.423V122.492C169.467 121.691 170.118 121.042 170.924 121.042H180.088C180.894 121.042 181.545 121.691 181.545 122.492V152.423C181.545 153.224 180.894 153.873 180.088 153.873ZM172.38 150.973H178.632V123.942H172.38V150.973Z" fill="black"/>
<path d="M49.3789 70.7407H40.7227V79.3563H49.3789V70.7407Z" fill="#C9C1BC"/>
<path d="M49.3788 80.4109H40.7226C40.1372 80.4109 39.6631 79.939 39.6631 79.3564V70.7408C39.6631 70.1582 40.1372 69.6863 40.7226 69.6863H49.3788C49.9642 69.6863 50.4384 70.1582 50.4384 70.7408V79.3564C50.4384 79.939 49.9642 80.4109 49.3788 80.4109ZM41.7821 78.3018H48.3193V71.7954H41.7821V78.3018Z" fill="black"/>
<path d="M51.7204 116.523H40.7227V122.492H51.7204V116.523Z" fill="#C9C1BC"/>
<path d="M51.7204 123.547H40.7226C40.1372 123.547 39.6631 123.075 39.6631 122.492V116.524C39.6631 115.941 40.1372 115.469 40.7226 115.469H51.7204C52.3058 115.469 52.7799 115.941 52.7799 116.524V122.492C52.7799 123.075 52.3058 123.547 51.7204 123.547ZM41.7821 121.438H50.6609V117.578H41.7821V121.438Z" fill="black"/>
<path d="M62.7185 116.523H51.7207V122.492H62.7185V116.523Z" fill="#C9C1BC"/>
<path d="M62.7184 123.547H51.7206C51.1353 123.547 50.6611 123.075 50.6611 122.492V116.524C50.6611 115.941 51.1353 115.469 51.7206 115.469H62.7184C63.3038 115.469 63.7779 115.941 63.7779 116.524V122.492C63.7779 123.075 63.3038 123.547 62.7184 123.547ZM52.7802 121.438H61.6589V117.578H52.7802V121.438Z" fill="black"/>
<path d="M73.0036 116.523H62.0059V122.492H73.0036V116.523Z" fill="#C9C1BC"/>
<path d="M73.0036 123.547H62.0058C61.4204 123.547 60.9463 123.075 60.9463 122.492V116.524C60.9463 115.941 61.4204 115.469 62.0058 115.469H73.0036C73.589 115.469 74.0631 115.941 74.0631 116.524V122.492C74.0631 123.075 73.589 123.547 73.0036 123.547ZM63.0653 121.438H71.9441V117.578H63.0653V121.438Z" fill="black"/>
<path d="M97.1838 116.523H82.9863V122.492H97.1838V116.523Z" fill="#C9C1BC"/>
<path d="M97.1838 123.547H82.9863C82.4009 123.547 81.9268 123.075 81.9268 122.492V116.524C81.9268 115.941 82.4009 115.469 82.9863 115.469H97.1838C97.7692 115.469 98.2433 115.941 98.2433 116.524V122.492C98.2433 123.075 97.7692 123.547 97.1838 123.547ZM84.0458 121.438H96.1243V117.578H84.0458V121.438Z" fill="black"/>
<path d="M111.381 116.523H97.1836V122.492H111.381V116.523Z" fill="#C9C1BC"/>
<path d="M111.384 123.547H97.1865C96.6011 123.547 96.127 123.075 96.127 122.492V116.524C96.127 115.941 96.6011 115.469 97.1865 115.469H111.384C111.969 115.469 112.443 115.941 112.443 116.524V122.492C112.443 123.075 111.969 123.547 111.384 123.547ZM98.2433 121.438H110.322V117.578H98.2433V121.438Z" fill="black"/>
<path d="M124.66 116.523H110.463V122.492H124.66V116.523Z" fill="#C9C1BC"/>
<path d="M124.66 123.547H110.463C109.877 123.547 109.403 123.075 109.403 122.492V116.524C109.403 115.941 109.877 115.469 110.463 115.469H124.66C125.246 115.469 125.72 115.941 125.72 116.524V122.492C125.72 123.075 125.246 123.547 124.66 123.547ZM111.522 121.438H123.601V117.578H111.522V121.438Z" fill="black"/>
<path d="M147.511 116.523H135.731V122.492H147.511V116.523Z" fill="#C9C1BC"/>
<path d="M147.513 123.547H135.734C135.149 123.547 134.675 123.075 134.675 122.492V116.524C134.675 115.941 135.149 115.469 135.734 115.469H147.513C148.099 115.469 148.573 115.941 148.573 116.524V122.492C148.573 123.075 148.099 123.547 147.513 123.547ZM136.791 121.438H146.451V117.578H136.791V121.438Z" fill="black"/>
<path d="M159.293 116.523H147.514V122.492H159.293V116.523Z" fill="#C9C1BC"/>
<path d="M159.293 123.547H147.514C146.928 123.547 146.454 123.075 146.454 122.492V116.524C146.454 115.941 146.928 115.469 147.514 115.469H159.293C159.878 115.469 160.352 115.941 160.352 116.524V122.492C160.352 123.075 159.878 123.547 159.293 123.547ZM148.573 121.438H158.233V117.578H148.573V121.438Z" fill="black"/>
<path d="M170.307 116.523H158.527V122.492H170.307V116.523Z" fill="#C9C1BC"/>
<path d="M170.309 123.547H158.53C157.945 123.547 157.471 123.075 157.471 122.492V116.524C157.471 115.941 157.945 115.469 158.53 115.469H170.309C170.895 115.469 171.369 115.941 171.369 116.524V122.492C171.369 123.075 170.895 123.547 170.309 123.547ZM159.587 121.438H169.247V117.578H159.587V121.438Z" fill="black"/>
<path d="M73.1494 70.7407H64.4932V79.3563H73.1494V70.7407Z" fill="#C9C1BC"/>
<path d="M73.1494 80.4109H64.4931C63.9077 80.4109 63.4336 79.939 63.4336 79.3564V70.7408C63.4336 70.1582 63.9077 69.6863 64.4931 69.6863H73.1494C73.7347 69.6863 74.2089 70.1582 74.2089 70.7408V79.3564C74.2089 79.939 73.7347 80.4109 73.1494 80.4109ZM65.5526 78.3018H72.0898V71.7954H65.5526V78.3018Z" fill="black"/>
<path d="M91.6426 70.7407H82.9863V79.3563H91.6426V70.7407Z" fill="#C9C1BC"/>
<path d="M91.6425 80.4109H82.9863C82.4009 80.4109 81.9268 79.939 81.9268 79.3564V70.7408C81.9268 70.1582 82.4009 69.6863 82.9863 69.6863H91.6425C92.2279 69.6863 92.702 70.1582 92.702 70.7408V79.3564C92.702 79.939 92.2279 80.4109 91.6425 80.4109ZM84.0458 78.3018H90.583V71.7954H84.0458V78.3018Z" fill="black"/>
<path d="M124.66 70.7407H116.004V79.3563H124.66V70.7407Z" fill="#C9C1BC"/>
<path d="M124.66 80.4109H116.004C115.418 80.4109 114.944 79.939 114.944 79.3564V70.7408C114.944 70.1582 115.418 69.6863 116.004 69.6863H124.66C125.245 69.6863 125.72 70.1582 125.72 70.7408V79.3564C125.72 79.939 125.245 80.4109 124.66 80.4109ZM117.063 78.3018H123.601V71.7954H117.063V78.3018Z" fill="black"/>
<path d="M144.388 70.741H135.731V79.3565H144.388V70.741Z" fill="#C9C1BC"/>
<path d="M144.391 80.4109H135.734C135.149 80.4109 134.675 79.939 134.675 79.3564V70.7408C134.675 70.1582 135.149 69.6863 135.734 69.6863H144.391C144.976 69.6863 145.45 70.1582 145.45 70.7408V79.3564C145.45 79.939 144.976 80.4109 144.391 80.4109ZM136.791 78.3018H143.328V71.7954H136.791V78.3018Z" fill="black"/>
<path d="M170.921 70.741H162.265V79.3565H170.921V70.741Z" fill="#C9C1BC"/>
<path d="M170.924 80.4109H162.268C161.682 80.4109 161.208 79.939 161.208 79.3564V70.7408C161.208 70.1582 161.682 69.6863 162.268 69.6863H170.924C171.509 69.6863 171.983 70.1582 171.983 70.7408V79.3564C171.983 79.939 171.509 80.4109 170.924 80.4109ZM163.324 78.3018H169.862V71.7954H163.324V78.3018Z" fill="black"/>
</g>
<defs>
<clipPath id="clip0_1362_12295">
<rect width="209" height="172" fill="white"/>
</clipPath>
</defs>
</svg>
