<svg width="309" height="219" viewBox="0 0 309 219" fill="none" xmlns="http://www.w3.org/2000/svg">
<path d="M260.441 87.3398H46.8711V103.53H260.441V87.3398Z" fill="#8C8480" stroke="black" stroke-width="4" stroke-linecap="round" stroke-linejoin="round"/>
<path d="M6.69922 57.4996C6.69922 57.4996 58.8092 51.6896 80.1892 33.6696C82.9992 31.2996 93.3792 22.5996 93.3792 22.5996C93.3792 22.5996 144.329 29.4496 155.269 29.4496C166.209 29.4496 215.819 22.5996 215.819 22.5996C215.819 22.5996 223.739 26.4996 225.319 29.1296C226.899 31.7596 236.649 40.7096 241.539 43.0796C258.429 51.2896 297.489 56.5396 303.299 57.4896C303.299 57.4896 279.679 83.8796 271.769 86.4196C263.849 88.9596 49.9892 86.4196 49.9892 86.4196C49.9892 86.4196 35.3292 86.1796 27.9392 78.3496C20.5492 70.5196 6.69922 57.4796 6.69922 57.4796V57.4996Z" fill="#413936" stroke="black" stroke-width="4" stroke-linecap="round" stroke-linejoin="round"/>
<path d="M6.69922 56.6304C6.69922 56.6304 31.4692 67.5704 42.0792 69.6604C52.6792 71.7404 150.459 72.7904 150.459 72.7904C150.459 72.7904 247.579 72.7904 256.459 70.7104C265.339 68.6304 300.349 56.6404 300.349 56.6404C300.349 56.6404 250.709 44.6604 241.829 42.5704C232.949 40.4904 215.249 20.9104 215.249 20.9104C215.249 20.9104 178.609 26.9404 162.929 26.9404C147.249 26.9404 109.109 29.5504 86.1192 19.6504C86.1192 19.6504 78.2792 36.3204 66.7892 41.5304C55.2892 46.7404 6.69922 56.6404 6.69922 56.6404V56.6304Z" fill="#16457D" stroke="black" stroke-width="4" stroke-linecap="round" stroke-linejoin="round"/>
<path d="M102.919 14.6699C102.919 14.6699 156.919 25.0299 204.249 14.6699L206.469 20.9599V27.9899C206.469 27.9899 172.449 31.3199 151.179 32.0599C129.909 32.7999 100.699 29.0999 98.1094 27.9899L102.919 14.6799V14.6699Z" fill="white" stroke="black" stroke-width="4" stroke-linecap="round" stroke-linejoin="round"/>
<path d="M90.2902 7.5C90.2902 7.5 89.1802 2 96.2102 2C102.87 2 102.87 15.9 97.6902 23.88C92.5102 31.87 78.4602 43.28 71.4302 40.2C64.4002 37.11 74.7602 31.56 74.7602 31.56C74.7602 31.56 90.6602 20.76 90.2902 7.5Z" fill="white" stroke="black" stroke-width="4" stroke-linecap="round" stroke-linejoin="round"/>
<path d="M214.289 7.5C214.289 7.5 215.399 2 208.369 2C201.709 2 201.709 15.9 206.889 23.88C212.069 31.87 226.119 43.28 233.149 40.2C240.179 37.11 229.819 31.56 229.819 31.56C229.819 31.56 213.919 20.76 214.289 7.5Z" fill="white" stroke="black" stroke-width="4" stroke-linecap="round" stroke-linejoin="round"/>
<path d="M112.409 33.4805L107.879 50.2405" stroke="black" stroke-width="4" stroke-linecap="round" stroke-linejoin="round"/>
<path d="M124.682 35.0703L123.262 51.3003" stroke="black" stroke-width="4" stroke-linecap="round" stroke-linejoin="round"/>
<path d="M139.42 35.0703L138 51.3003" stroke="black" stroke-width="4" stroke-linecap="round" stroke-linejoin="round"/>
<path d="M153 36.9707L151.84 50.2407" stroke="black" stroke-width="4" stroke-linecap="round" stroke-linejoin="round"/>
<path d="M165.511 34.1992L164.301 51.6892" stroke="black" stroke-width="4" stroke-linecap="round" stroke-linejoin="round"/>
<path d="M177.281 35.4609L178.851 51.6909" stroke="black" stroke-width="4" stroke-linecap="round" stroke-linejoin="round"/>
<path d="M189.699 33.2793L192.949 50.2393" stroke="black" stroke-width="4" stroke-linecap="round" stroke-linejoin="round"/>
<path d="M250.712 103.529H198.262V174.099H250.712V103.529Z" fill="#828282" stroke="black" stroke-width="4" stroke-linecap="round" stroke-linejoin="round"/>
<path d="M47.1094 69.8301L47.9094 70.4401" stroke="black" stroke-width="4" stroke-linecap="round" stroke-linejoin="round"/>
<path d="M49.8711 71.9492L52.8211 74.2192" stroke="black" stroke-width="4" stroke-linecap="round" stroke-linejoin="round" stroke-dasharray="2.48 2.48"/>
<path d="M53.8008 74.9707L67.2108 85.3007" stroke="black" stroke-width="4" stroke-linecap="round" stroke-linejoin="round" stroke-dasharray="1.65 2.48 2.48 2.48"/>
<path d="M68.1875 86.0605L68.9875 86.6705" stroke="black" stroke-width="4" stroke-linecap="round" stroke-linejoin="round"/>
<path d="M250.191 70.5801L249.801 70.8901" stroke="black" stroke-width="4" stroke-linecap="round" stroke-linejoin="round"/>
<path d="M248.059 72.291L246.309 73.691" stroke="black" stroke-width="4" stroke-linecap="round" stroke-linejoin="round" stroke-dasharray="1.12 2.23"/>
<path d="M245.439 74.3809L230.629 86.2608" stroke="black" stroke-width="4" stroke-linecap="round" stroke-linejoin="round" stroke-dasharray="1.12 2.23 1.12 2.23"/>
<path d="M229.749 86.9609L229.359 87.271" stroke="black" stroke-width="4" stroke-linecap="round" stroke-linejoin="round"/>
<path d="M85.5703 72.7793V73.7793" stroke="black" stroke-width="4" stroke-linecap="round" stroke-linejoin="round"/>
<path d="M85.5703 75.5898V78.3098" stroke="black" stroke-width="4" stroke-linecap="round" stroke-linejoin="round" stroke-dasharray="1.81 1.81"/>
<path d="M85.5703 79.209V84.939" stroke="black" stroke-width="4" stroke-linecap="round" stroke-linejoin="round" stroke-dasharray="1.21 1.81 1.81 1.81"/>
<path d="M85.5703 85.8398V86.8398" stroke="black" stroke-width="4" stroke-linecap="round" stroke-linejoin="round"/>
<path d="M105.828 73.0801V74.0801" stroke="black" stroke-width="4" stroke-linecap="round" stroke-linejoin="round"/>
<path d="M105.828 75.9199V78.6699" stroke="black" stroke-width="4" stroke-linecap="round" stroke-linejoin="round" stroke-dasharray="1.84 1.84"/>
<path d="M105.828 79.5898V85.3998" stroke="black" stroke-width="4" stroke-linecap="round" stroke-linejoin="round" stroke-dasharray="1.22 1.84 1.84 1.84"/>
<path d="M105.828 86.3203V87.3203" stroke="black" stroke-width="4" stroke-linecap="round" stroke-linejoin="round"/>
<path d="M112.411 103.529H59.9609V174.099H112.411V103.529Z" fill="#828282" stroke="black" stroke-width="4" stroke-linecap="round" stroke-linejoin="round"/>
<path d="M125.371 73.5605V74.5605" stroke="black" stroke-width="4" stroke-linecap="round" stroke-linejoin="round"/>
<path d="M125.371 76.3203V78.9703" stroke="black" stroke-width="4" stroke-linecap="round" stroke-linejoin="round" stroke-dasharray="1.76 1.76"/>
<path d="M125.371 79.8496V85.4396" stroke="black" stroke-width="4" stroke-linecap="round" stroke-linejoin="round" stroke-dasharray="1.18 1.76 1.76 1.76"/>
<path d="M125.371 86.3203V87.3203" stroke="black" stroke-width="4" stroke-linecap="round" stroke-linejoin="round"/>
<path d="M178.148 73.4609V74.4609" stroke="black" stroke-width="4" stroke-linecap="round" stroke-linejoin="round"/>
<path d="M178.148 76.2402V78.9102" stroke="black" stroke-width="4" stroke-linecap="round" stroke-linejoin="round" stroke-dasharray="1.78 1.78"/>
<path d="M178.148 79.8008V85.4308" stroke="black" stroke-width="4" stroke-linecap="round" stroke-linejoin="round" stroke-dasharray="1.19 1.78 1.78 1.78"/>
<path d="M178.148 86.3203V87.3203" stroke="black" stroke-width="4" stroke-linecap="round" stroke-linejoin="round"/>
<path d="M198.262 73.5605V74.0605" stroke="black" stroke-width="4" stroke-linecap="round" stroke-linejoin="round"/>
<path d="M198.262 76.3809V78.7009" stroke="black" stroke-width="4" stroke-linecap="round" stroke-linejoin="round" stroke-dasharray="1.16 2.32"/>
<path d="M198.262 79.8613V85.6613" stroke="black" stroke-width="4" stroke-linecap="round" stroke-linejoin="round" stroke-dasharray="1.16 2.32 1.16 2.32"/>
<path d="M198.262 86.8203V87.3203" stroke="black" stroke-width="4" stroke-linecap="round" stroke-linejoin="round"/>
<path d="M217.121 73.1602V73.6602" stroke="black" stroke-width="4" stroke-linecap="round" stroke-linejoin="round"/>
<path d="M217.121 76.0508V78.4408" stroke="black" stroke-width="4" stroke-linecap="round" stroke-linejoin="round" stroke-dasharray="1.19 2.39"/>
<path d="M217.121 79.6309V85.6008" stroke="black" stroke-width="4" stroke-linecap="round" stroke-linejoin="round" stroke-dasharray="1.19 2.39 1.19 2.39"/>
<path d="M217.121 86.791V87.291" stroke="black" stroke-width="4" stroke-linecap="round" stroke-linejoin="round"/>
<path d="M59.9611 95.4297H46.8711V174.1H59.9611V95.4297Z" fill="#413936" stroke="black" stroke-width="4" stroke-linecap="round" stroke-linejoin="round"/>
<path d="M260.43 95.4297H247.34V174.1H260.43V95.4297Z" fill="#413936" stroke="black" stroke-width="4" stroke-linecap="round" stroke-linejoin="round"/>
<path d="M197.871 95.4297H184.781V174.1H197.871V95.4297Z" fill="#413936" stroke="black" stroke-width="4" stroke-linecap="round" stroke-linejoin="round"/>
<path d="M125.5 95.4297H112.41V174.1H125.5V95.4297Z" fill="#413936" stroke="black" stroke-width="4" stroke-linecap="round" stroke-linejoin="round"/>
<path d="M260.438 172.811H46.1484V216.961H260.438V172.811Z" fill="#E2E2E2" stroke="black" stroke-width="4" stroke-linecap="round" stroke-linejoin="round"/>
<path d="M46.15 172.811H2V216.961H46.15V172.811Z" fill="#E2E2E2" stroke="black" stroke-width="4" stroke-linecap="round" stroke-linejoin="round"/>
<path d="M306.67 172.811H260.84V216.961H306.67V172.811Z" fill="#E2E2E2" stroke="black" stroke-width="4" stroke-linecap="round" stroke-linejoin="round"/>
<path d="M53.4102 190.109H253.89" stroke="black" stroke-width="4" stroke-linecap="round" stroke-linejoin="round"/>
<path d="M53.4102 198.83H253.89" stroke="black" stroke-width="4" stroke-linecap="round" stroke-linejoin="round"/>
<path d="M53.4102 207.561H253.89" stroke="black" stroke-width="4" stroke-linecap="round" stroke-linejoin="round"/>
<path d="M53.4102 181.75H253.89" stroke="black" stroke-width="4" stroke-linecap="round" stroke-linejoin="round"/>
<ellipse cx="18" cy="51" rx="2" ry="3" fill="black"/>
<ellipse cx="262" cy="44" rx="2" ry="3" fill="black"/>
<ellipse cx="29" cy="48" rx="2" ry="3" fill="black"/>
<ellipse cx="273" cy="46" rx="2" ry="3" fill="black"/>
<ellipse cx="40" cy="46" rx="2" ry="3" fill="black"/>
<ellipse cx="284" cy="49" rx="2" ry="3" fill="black"/>
<ellipse cx="50" cy="44" rx="2" ry="3" fill="black"/>
<ellipse cx="294" cy="52" rx="2" ry="3" fill="black"/>
</svg>
