<svg width="40" height="29" viewBox="0 0 40 29" fill="none" xmlns="http://www.w3.org/2000/svg">
<path d="M7.10531 17H5V26.8001H7.10531V17Z" fill="#1B5CA6"/>
<path d="M34.4764 17H32.3711V26.8001H34.4764V17Z" fill="#1B5CA6"/>
<path d="M25.3514 17H23.2461V26.8001H25.3514V17Z" fill="#1B5CA6"/>
<path d="M15.5272 17H13.4219V26.8001H15.5272V17Z" fill="#1B5CA6"/>
<path d="M34.4743 26.8008H5V27.5008H34.4743V26.8008Z" stroke="#1B5CA6" stroke-width="2" stroke-linecap="round" stroke-linejoin="round"/>
<path d="M2.05859 7.35101C2.05859 7.35101 5.08436 8.70065 6.37853 8.95871C7.67383 9.21562 19.6137 9.34465 19.6137 9.34465C19.6137 9.34465 31.4743 9.34465 32.5588 9.08774C33.6433 8.83082 37.919 7.35215 37.919 7.35215C37.919 7.35215 31.8573 5.87348 30.7728 5.61657C29.6883 5.35966 28.0926 2.78711 28.0926 2.78711C28.0926 2.78711 23.052 3.68687 21.1379 3.68687C19.2239 3.68687 14.5651 4.00887 11.758 2.78711C11.758 2.78711 10.8005 4.84469 9.39749 5.48754C7.9934 6.13039 2.05973 7.35215 2.05973 7.35215L2.05859 7.35101Z" stroke="#1B5CA6" stroke-width="2" stroke-linecap="round" stroke-linejoin="round"/>
<path d="M1 13.3954C1 13.3954 10.6816 12.8393 11 12.6418C11.3196 12.4442 12.4809 10.6367 12.4809 10.6367C12.4809 10.6367 18.6412 11.1677 19.9637 11.1677C21.2862 11.1677 27.2845 10.6367 27.2845 10.6367C27.2845 10.6367 28.2421 12.4374 28.4336 12.6418C28.4336 12.6418 38.2974 13.6009 39 13.6751C39 13.6751 36.8774 16.4566 35.3872 17.2399C35.2784 17.297 33.4074 17.9387 32.587 17.9581C26.9513 18.0837 7.23398 17.8805 7.23398 17.8805C7.23398 17.8805 5.46159 17.8622 4.56859 17.2548C3.67559 16.6473 1 13.3977 1 13.3977V13.3954Z" stroke="#1B5CA6" stroke-width="2" stroke-linecap="round" stroke-linejoin="round"/>
<path d="M6.32422 11.4726V13.1797L33.972 13.1797V11.4726L6.32422 11.4726Z" fill="#1B5CA6" stroke="#1B5CA6" stroke-linecap="round" stroke-linejoin="round"/>
</svg>
