<svg width="44" height="24" viewBox="0 0 44 24" fill="none" xmlns="http://www.w3.org/2000/svg">
<path d="M37.0876 10.4004H7.61328V13.2004H37.0876V10.4004Z" stroke="#0F5734" stroke-width="2" stroke-linecap="round" stroke-linejoin="round"/>
<path d="M2 6.69474C2 6.69474 9.02765 5.91318 11.911 3.48913C12.29 3.17032 13.6898 2 13.6898 2C13.6898 2 20.561 2.92146 22.0364 2.92146C23.5118 2.92146 30.2023 2 30.2023 2C30.2023 2 31.2704 2.52463 31.4835 2.87841C31.6966 3.2322 33.0115 4.43615 33.6709 4.75496C35.9488 5.85937 41.2165 6.5656 42 6.69339C42 6.69339 38.8146 10.2434 37.7478 10.585C36.6797 10.9267 7.83817 10.585 7.83817 10.585C7.83817 10.585 5.86109 10.5528 4.86446 9.49947C3.86783 8.44618 2 6.69204 2 6.69204V6.69474Z" stroke="#0F5734" stroke-width="2.5" stroke-linecap="round" stroke-linejoin="round"/>
<path d="M10.1133 12.5H7.61328V22.3001H10.1133V12.5Z" fill="#0F5734"/>
<path d="M37.4844 12.5H34.9844V22.3001H37.4844V12.5Z" fill="#0F5734"/>
<path d="M28.3594 12.5H25.8594V22.3001H28.3594V12.5Z" fill="#0F5734"/>
<path d="M18.5352 12.5H16.0352V22.3001H18.5352V12.5Z" fill="#0F5734"/>
<path d="M37.0876 22.3008H7.61328V23.0008H37.0876V22.3008Z" stroke="#0F5734" stroke-width="2" stroke-linecap="round" stroke-linejoin="round"/>
</svg>
