<svg width="63" height="64" viewBox="0 0 63 64" fill="none" xmlns="http://www.w3.org/2000/svg">
<path d="M40.7675 50.7449C40.9504 50.9278 41.0955 51.145 41.1945 51.384C41.2935 51.623 41.3444 51.8791 41.3444 52.1378C41.3444 52.3965 41.2935 52.6526 41.1945 52.8916C41.0955 53.1306 40.9504 53.3478 40.7675 53.5307C40.5846 53.7136 40.3674 53.8587 40.1284 53.9577C39.8894 54.0567 39.6333 54.1077 39.3746 54.1077C39.1159 54.1077 38.8598 54.0567 38.6208 53.9577C38.3818 53.8587 38.1646 53.7136 37.9817 53.5307L18.2942 33.8432C18.1112 33.6604 17.9659 33.4432 17.8669 33.2042C17.7678 32.9652 17.7168 32.709 17.7168 32.4503C17.7168 32.1916 17.7678 31.9354 17.8669 31.6964C17.9659 31.4574 18.1112 31.2403 18.2942 31.0574L37.9817 11.3699C38.3511 11.0005 38.8522 10.793 39.3746 10.793C39.897 10.793 40.3981 11.0005 40.7675 11.3699C41.1369 11.7393 41.3444 12.2404 41.3444 12.7628C41.3444 13.2852 41.1369 13.7863 40.7675 14.1557L22.4704 32.4503L40.7675 50.7449Z" fill="#333333"/>
</svg>
