<svg width="227" height="145" viewBox="0 0 227 145" fill="none" xmlns="http://www.w3.org/2000/svg">
<g clip-path="url(#clip0_2078_16279)">
<path d="M221.421 12.99H14.0508V130.01H221.421V12.99Z" fill="#DBB052"/>
<path d="M220.921 13.49V129.51H14.5508V13.49H220.921ZM221.921 12.49H13.5508V130.51H221.921V12.49Z" fill="black"/>
<path d="M202.01 24.77H24.2598V118.25H202.01V24.77Z" fill="#EEDCAC"/>
<path d="M201.51 25.27V117.75H24.7598V25.27H201.51ZM202.51 24.27H23.7598V118.75H202.51V24.27Z" fill="black"/>
<path d="M2.4707 -1.52588e-05L2.4707 9.10999H12.5307V-1.52588e-05H2.4707Z" fill="black"/>
<path d="M2.98047 135.28L2.98047 144.39H13.0405V135.28H2.98047Z" fill="black"/>
<path d="M213.66 135.28V144.39H223.72V135.28H213.66Z" fill="black"/>
<path d="M213.74 -1.52588e-05V9.10999H223.8V-1.52588e-05H213.74Z" fill="black"/>
<path d="M15.35 7.82996H0.5V136.77H15.35V7.82996Z" fill="#E2AE7F"/>
<path d="M14.85 8.32996V136.27H1V8.32996H14.85ZM15.85 7.32996H0V137.27H15.85V7.32996Z" fill="black"/>
<path d="M226.219 7.82996H211.369V136.77H226.219V7.82996Z" fill="#E2AE7F"/>
<path d="M225.719 8.32996V136.27H211.869V8.32996H225.719ZM226.719 7.32996H210.869V137.27H226.719V7.32996Z" fill="black"/>
</g>
<defs>
<clipPath id="clip0_2078_16279">
<rect width="226.72" height="144.39" fill="white"/>
</clipPath>
</defs>
</svg>
