<svg width="125" height="125" viewBox="0 0 125 125" fill="none" xmlns="http://www.w3.org/2000/svg">
<path d="M64.9609 1V60.51H124.471C123.331 28.21 97.2709 2.15 64.9609 1ZM120.721 56.96H68.5209V4.75L71.0509 5.11C96.4509 8.75 116.721 29.02 120.361 54.42L120.721 56.95V56.96Z" fill="white" fill-opacity="0.6"/>
<path d="M64.9609 124.48C97.2609 123.33 123.321 97.26 124.471 64.96H64.9609V124.48ZM68.5209 68.51H120.721L120.361 71.05C116.721 96.45 96.4509 116.72 71.0509 120.36L68.5209 120.72V68.51Z" fill="white" fill-opacity="0.6"/>
<path d="M72.9609 9.93994V52.5099H115.531C111.401 31.0899 94.3809 14.0699 72.9609 9.93994ZM111.141 48.9599H76.5209V14.3299L79.4809 15.3799C93.8509 20.4599 105.011 31.6199 110.091 45.9899L111.141 48.9499V48.9599Z" fill="white" fill-opacity="0.6"/>
<path d="M115.531 72.96H72.9609V115.54C94.3809 111.41 111.401 94.38 115.531 72.96ZM79.4809 110.08L76.5209 111.13V76.51H111.141L110.091 79.48C105.011 93.85 93.8509 105.01 79.4809 110.08Z" fill="white" fill-opacity="0.6"/>
<path d="M80.9609 20.74V44.51H104.731C100.131 33.95 91.5209 25.35 80.9609 20.74ZM98.3009 40.51H84.9709V27.18L87.8109 29.31C90.9709 31.69 93.7809 34.5 96.1709 37.67L98.3009 40.51Z" fill="white" fill-opacity="0.6"/>
<path d="M80.9609 104.72C91.5209 100.12 100.121 91.5099 104.731 80.95H80.9609V104.72ZM84.9609 84.96H98.2909L96.1609 87.8C93.7809 90.96 90.9709 93.78 87.8009 96.16L84.9609 98.3V84.96Z" fill="white" fill-opacity="0.6"/>
<path d="M60.52 124.48V64.96H1C2.15 97.26 28.22 123.33 60.52 124.48ZM56.96 120.72L54.42 120.36C29.02 116.72 8.75 96.45 5.11 71.05L4.75 68.51H56.95V120.71L56.96 120.72Z" fill="white" fill-opacity="0.6"/>
<path d="M52.5195 115.53V72.95H9.93945C14.0795 94.3699 31.0995 111.39 52.5195 115.53ZM14.3395 76.51H48.9595V111.13L45.9995 110.08C31.6295 105 20.4595 93.84 15.3895 79.48L14.3395 76.51Z" fill="white" fill-opacity="0.6"/>
<path d="M52.5195 9.93994C31.0995 14.0799 14.0795 31.0899 9.93945 52.5099H52.5195V9.93994ZM48.9595 48.9599H14.3395L15.3895 45.9999C20.4695 31.6299 31.6295 20.4699 45.9995 15.3899L48.9595 14.3399V48.9599Z" fill="white" fill-opacity="0.6"/>
<path d="M44.52 104.72V80.95H20.75C25.35 91.5099 33.96 100.11 44.52 104.72ZM27.18 84.96H40.52V98.3L37.68 96.16C34.52 93.79 31.7 90.97 29.32 87.8L27.18 84.96Z" fill="white" fill-opacity="0.6"/>
<path d="M20.75 44.51H44.52V20.74C33.96 25.34 25.36 33.95 20.75 44.51ZM37.68 29.31L40.52 27.18V40.51H27.18L29.32 37.67C31.69 34.51 34.51 31.7 37.68 29.31Z" fill="white" fill-opacity="0.6"/>
<path d="M1 60.51H60.52V1C28.22 2.15 2.15 28.21 1 60.51ZM54.42 5.12L56.96 4.76V56.96H4.76L5.12 54.43C8.75 29.03 29.03 8.75 54.42 5.12Z" fill="white" fill-opacity="0.6"/>
<path d="M60.6201 64.8604V124.584L60.5166 124.58C28.4169 123.437 2.46037 97.7225 0.931641 65.7207L0.900391 64.9639L0.896484 64.8604H60.6201ZM124.574 64.8604L124.571 64.9639C123.419 97.316 97.317 123.428 64.9648 124.58L64.8613 124.584V64.8604H124.574ZM68.6211 120.604L71.0371 120.261L72.2217 120.078C97.021 115.993 116.685 95.9957 120.262 71.0361L120.605 68.6104H68.6211V120.604ZM5.20898 71.0361L5.3916 72.2207C9.47653 97.0202 29.4748 116.684 54.4346 120.261H54.4336L56.8496 120.603V68.6104H4.86523L5.20898 71.0361ZM115.652 72.8604L115.629 72.9785C111.491 94.4386 94.4397 111.5 72.9795 115.638L72.8613 115.661V72.8604H115.652ZM52.6191 72.8496V115.651L52.5 115.628C31.0401 111.48 13.9885 94.4287 9.84082 72.9688L9.81836 72.8496H52.6191ZM15.4834 79.4463L15.7256 80.1162C20.893 94.1247 31.9158 104.995 46.0332 109.985L48.8594 110.988V76.6104H14.4805L15.4834 79.4463ZM76.6211 110.988L79.4473 109.985L80.1172 109.744C94.1355 104.577 105.006 93.5639 109.997 79.4463L111 76.6104H76.6211V110.988ZM44.6201 80.8496V104.873L44.4805 104.812C33.8975 100.191 25.2683 91.5733 20.6582 80.9902L20.5977 80.8496H44.6201ZM104.884 80.8496L104.822 80.9902C100.202 91.5731 91.584 100.201 81.001 104.812L80.8613 104.873V80.8496H104.884ZM29.3994 87.7402H29.4004L29.8506 88.3291C32.1275 91.2525 34.785 93.8636 37.7402 96.0801L40.4199 98.0986V85.0596H27.3809L29.3994 87.7402ZM85.0605 98.0986L87.7412 96.0801L88.3301 95.6299C91.2523 93.353 93.8551 90.6956 96.0811 87.7402L98.0918 85.0596H85.0605V98.0986ZM60.6201 60.6104H0.896484L0.900391 60.5068C2.05226 28.1544 28.1642 2.05226 60.5166 0.900391L60.6201 0.896484V60.6104ZM64.9648 0.900391C97.3271 2.05244 123.429 28.1545 124.571 60.5068L124.574 60.6104H64.8613V0.896484L64.9648 0.900391ZM68.6211 56.8604H120.607L120.262 54.4346C116.685 29.4748 97.0212 9.47653 72.2217 5.3916L71.0371 5.20898L68.6211 4.86426V56.8604ZM54.4336 5.21777L54.4346 5.21875C29.4845 8.78585 9.47688 28.4598 5.40137 53.2598L5.21875 54.4443L4.875 56.8604H56.8604V4.875L54.4336 5.21777ZM52.6191 52.6104H9.81836L9.84082 52.4912C13.9885 31.0312 31.0401 13.9897 52.5 9.8418L52.6191 9.81836V52.6104ZM72.9795 9.8418C94.4396 13.9795 111.491 31.0311 115.629 52.4912L115.652 52.6104H72.8613V9.81836L72.9795 9.8418ZM76.6211 48.8604H111.003L109.997 46.0234C105.006 31.906 94.1354 20.8935 80.1172 15.7168L79.4473 15.4746L76.6211 14.4707V48.8604ZM46.0332 15.4844C31.9158 20.4751 20.9023 31.3451 15.7256 45.3633L15.4834 46.0332L14.4805 48.8604H48.8594V14.4814L46.0332 15.4844ZM44.6201 44.6104H20.5977L20.6582 44.4697C25.2783 33.8867 33.8973 25.2585 44.4805 20.6484L44.6201 20.5869V44.6104ZM81.001 20.6484C91.5839 25.2685 100.212 33.8867 104.822 44.4697L104.884 44.6104H80.8613V20.5869L81.001 20.6484ZM85.0713 40.4102H98.1006L96.0908 37.7305C93.8554 34.7655 91.2522 32.1158 88.3379 29.8398L87.751 29.3896L85.0713 27.3799V40.4102ZM37.7402 29.3896C34.5776 31.7741 31.7646 34.5782 29.4004 37.7305H29.3994L27.3809 40.4102H40.4199V27.3799L37.7402 29.3896Z" stroke="white" stroke-opacity="0.6" stroke-width="0.2"/>
</svg>
