<svg width="126" height="127" viewBox="0 0 126 127" fill="none" xmlns="http://www.w3.org/2000/svg">
<path d="M18.4673 87.0399C25.2025 91.1305 31.4456 92.1676 34.6559 92.4063C34.8979 95.6821 35.9062 102.028 39.8908 108.876C39.1246 108.925 38.3422 108.95 37.5436 108.95C32.833 108.95 27.469 108.086 21.4921 105.839C18.8948 98.6699 18.1608 92.3898 18.4592 87.0399M15.5473 81.4347L15.2408 86.8505C14.8779 93.2952 15.9668 100.069 18.4673 106.983L18.9835 108.407L20.3789 108.934C26.2188 111.131 31.9941 112.242 37.5436 112.242C38.3905 112.242 39.2456 112.218 40.0844 112.16L45.3677 111.831L42.6656 107.189C38.9955 100.884 38.084 95.0648 37.8743 92.1594L37.6646 89.328L34.8899 89.114C32.0345 88.9 26.3075 87.9699 20.1128 84.2003L15.5473 81.4183V81.4347Z" fill="white" fill-opacity="0.6"/>
<path d="M15.192 48.018C17.1117 55.7713 20.8141 61.0061 22.9274 63.5C20.8221 65.9939 17.1278 71.2286 15.192 78.982C11.2799 75.4181 7.44045 70.4385 4.31887 63.5C7.44852 56.5615 11.2799 51.5819 15.192 48.018ZM17.0149 41.952L13.0464 45.5653C8.32772 49.8617 4.39953 55.4339 1.38281 62.1337L0.761719 63.5082L1.38281 64.8828C4.39953 71.5826 8.31966 77.1548 13.0464 81.4512L17.0149 85.0562L18.3216 79.805C20.1042 72.6526 23.5001 67.8705 25.3714 65.6647L27.1863 63.5164L25.3714 61.3682C23.5001 59.1542 20.0962 54.3721 18.3216 47.2279L17.0149 41.9684V41.952Z" fill="white" fill-opacity="0.6"/>
<path d="M57.6435 65.7635L35.8892 87.97C33.5097 87.8876 26.4922 87.1963 19.0714 82.0685C20.7733 73.0724 25.25 67.5249 26.8713 65.7635H57.6435ZM25.4759 62.4712L24.516 63.5083C22.5398 65.6565 17.7405 71.7143 15.9014 81.443L15.4981 83.5748L17.2646 84.7929C25.2903 90.3322 32.8886 91.1635 35.7843 91.2622L37.1878 91.3116L65.4353 62.4712H25.4759Z" fill="white" fill-opacity="0.6"/>
<path d="M62.9917 104.398C65.4358 106.538 70.5497 110.3 78.0996 112.259C74.6069 116.284 69.7592 120.193 62.9917 123.378C56.192 120.185 51.3201 116.275 47.8194 112.283C55.4096 110.325 60.5477 106.547 62.9917 104.398ZM62.9917 100.061L60.8865 101.905C58.7086 103.814 54.0061 107.287 47.0209 109.09L41.8586 110.423L45.4076 114.473C49.6343 119.296 55.095 123.296 61.6366 126.366L62.9837 127L64.3307 126.366C70.8643 123.296 76.3089 119.28 80.5033 114.44L84.012 110.399L78.882 109.065C71.929 107.263 67.2506 103.798 65.0809 101.896L62.9756 100.053L62.9917 100.061Z" fill="white" fill-opacity="0.6"/>
<path d="M60.7727 68.9487V100.349C59.0546 101.954 53.5535 106.506 44.7534 108.259C39.7685 100.703 39.091 93.5833 39.0103 91.1552L60.7727 68.9487ZM63.9991 60.9979L35.7355 89.8383L35.7839 91.2704C35.8807 94.217 36.6873 101.937 42.0754 110.102L43.2692 111.913L45.3664 111.493C54.8602 109.6 60.8291 104.769 62.9505 102.777L63.9991 101.798V60.9979Z" fill="white" fill-opacity="0.6"/>
<path d="M107.517 87.0399C107.816 92.3898 107.082 98.6699 104.485 105.839C98.4188 108.119 93.0065 108.991 88.2797 108.991C87.5215 108.991 86.7875 108.966 86.0616 108.925C90.0704 102.053 91.0867 95.6821 91.3207 92.4063C94.539 92.1594 100.782 91.1305 107.509 87.0399M110.437 81.4348L105.872 84.2167C99.6772 87.9864 93.9502 88.9165 91.0948 89.1305L88.3201 89.3445L88.1104 92.1758C87.9006 95.0895 86.9892 100.933 83.2949 107.255L80.5686 111.913L85.876 112.226C86.6665 112.275 87.4731 112.3 88.2797 112.3C93.8534 112.3 99.6852 111.172 105.606 108.942L107.001 108.415L107.517 106.991C110.018 100.077 111.107 93.3117 110.744 86.8588L110.437 81.443V81.4348Z" fill="white" fill-opacity="0.6"/>
<path d="M65.2099 68.957L86.9641 91.1552C86.8674 93.5339 86.1333 100.711 81.1162 108.3C72.3484 106.555 66.936 102.012 65.2099 100.357V68.957ZM61.9834 61.0143V101.789L62.9997 102.761C65.0969 104.769 71.0013 109.65 80.4951 111.534L82.5923 111.954L83.7861 110.144C89.1985 101.954 90.0615 94.2335 90.1825 91.2952L90.239 89.8548L61.9753 61.0143H61.9834Z" fill="white" fill-opacity="0.6"/>
<path d="M99.1111 65.7635C100.74 67.5331 105.217 73.0806 106.911 82.0685C99.4821 87.2045 92.4646 87.8876 90.0932 87.97L68.3389 65.7635H99.1111ZM100.507 62.4712H60.5551L88.8026 91.3116L90.2061 91.2622C93.1018 91.1635 100.708 90.3322 108.726 84.7929L110.492 83.5748L110.089 81.443C108.25 71.7061 103.451 65.6565 101.466 63.5083L100.507 62.4712Z" fill="white" fill-opacity="0.6"/>
<path d="M110.792 48.018C114.704 51.5819 118.543 56.5615 121.665 63.5C118.535 70.4385 114.704 75.4181 110.792 78.982C108.864 71.2287 105.17 65.9939 103.057 63.5C105.162 61.0061 108.856 55.7714 110.792 48.018ZM108.977 41.952L107.67 47.2032C105.888 54.3557 102.492 59.1377 100.621 61.3436L98.8057 63.4918L100.621 65.64C102.492 67.8541 105.888 72.6279 107.67 79.7804L108.977 85.0316L112.946 81.4265C117.664 77.1301 121.592 71.5579 124.609 64.8581L125.23 63.4836L124.609 62.109C121.592 55.4092 117.672 49.837 112.946 45.5406L108.977 41.9355V41.952Z" fill="white" fill-opacity="0.6"/>
<path d="M88.2874 18.0006C93.0222 18.0006 98.4265 18.8731 104.492 21.153C107.09 28.3302 107.824 34.6102 107.525 39.9602C100.79 35.8695 94.5467 34.8242 91.3364 34.5855C91.0944 31.3014 90.0861 24.9309 86.0773 18.0664C86.8032 18.0253 87.5373 18.0006 88.2955 18.0006M88.2874 14.7083C87.4889 14.7083 86.6742 14.733 85.8837 14.7824L80.5762 15.0952L83.3026 19.7537C86.9968 26.0749 87.9083 31.9187 88.118 34.8324L88.3277 37.6638L91.1025 37.8778C93.9579 38.0918 99.6687 39.0219 105.88 42.7998L110.445 45.5817L110.752 40.1659C111.114 33.7213 110.034 26.9474 107.525 20.0254L107.009 18.6014L105.613 18.0747C99.6929 15.8442 93.8691 14.7165 88.2955 14.7165L88.2874 14.7083Z" fill="white" fill-opacity="0.6"/>
<path d="M90.0932 39.0383C92.4727 39.1206 99.4821 39.812 106.911 44.9398C105.209 53.9359 100.732 59.4834 99.1111 61.2448H68.3389L90.0932 39.0383ZM88.8026 35.6967L60.5551 64.5371H100.507L101.466 63.5C103.443 61.3518 108.242 55.294 110.081 45.5653L110.484 43.4335L108.718 42.2154C100.684 36.6761 93.0938 35.853 90.198 35.7543L88.7945 35.7049L88.8026 35.6967Z" fill="white" fill-opacity="0.6"/>
<path d="M35.8887 39.0383L57.6429 61.2448H26.8788C25.2898 59.4917 20.8454 53.8865 19.1273 44.8986C26.532 39.812 33.5092 39.1206 35.8887 39.0383ZM37.1792 35.6967L35.7757 35.746C32.8881 35.8448 25.3221 36.6679 17.3205 42.166L15.5459 43.3841L15.9573 45.5241C17.8125 55.2528 22.5554 61.3189 24.4993 63.4753L25.4592 64.5371H65.4187L37.1712 35.6967H37.1792Z" fill="white" fill-opacity="0.6"/>
<path d="M37.7528 17.9924C38.4949 17.9924 39.2127 18.0171 39.9226 18.05C35.9137 24.9309 34.8974 31.3014 34.6635 34.5773C31.4531 34.8242 25.2342 35.853 18.5151 39.919C18.2086 34.5608 18.9265 28.289 21.4996 21.1447C27.5814 18.8566 33.0099 17.9841 37.7528 17.9841M37.7528 14.7001C32.1549 14.7001 26.307 15.8359 20.3784 18.0664L18.9829 18.5932L18.4667 20.0171C15.9824 26.898 14.9176 33.6554 15.2887 40.1248L15.6032 45.5241L20.1606 42.7668C26.3473 39.0136 32.05 38.0918 34.8974 37.8778L37.6721 37.6638L37.8818 34.8324C38.0915 31.9187 39.003 26.0749 42.6973 19.7455L45.4236 15.0787L40.1081 14.7741C39.3337 14.733 38.5432 14.7083 37.7608 14.7083L37.7528 14.7001Z" fill="white" fill-opacity="0.6"/>
<path d="M81.1803 18.6837C86.2136 26.2642 86.8831 33.4249 86.9637 35.8448L65.2014 58.043V26.6428C66.9356 24.9802 72.3721 20.4122 81.1803 18.6837ZM82.6645 15.0375L80.5754 15.4491C71.0332 17.3257 65.1046 22.2229 62.9993 24.2477L61.983 25.2189V65.9857L90.2466 37.1535L90.1982 35.7213C90.1014 32.7665 89.2868 25.0049 83.8583 16.8236L82.6645 15.0211V15.0375Z" fill="white" fill-opacity="0.6"/>
<path d="M62.9909 3.62152C69.7907 6.81504 74.6706 10.7246 78.1633 14.7165C70.565 16.6837 65.435 20.4533 62.9909 22.6098C60.5469 20.4616 55.4169 16.6919 47.8186 14.7165C51.3112 10.7246 56.1912 6.8068 62.9909 3.62152ZM62.9909 0L61.6439 0.633765C55.0781 3.71205 49.6173 7.71218 45.4068 12.5354L41.8739 16.5849L47.02 17.9183C54.0376 19.7373 58.7159 23.2024 60.8776 25.1119L62.9829 26.9638L65.0881 25.1119C67.2498 23.2024 71.9362 19.7373 78.9457 17.9183L84.0919 16.5849L80.5589 12.5354C76.3484 7.72041 70.8876 3.71205 64.3218 0.633765L62.9748 0H62.9909Z" fill="white" fill-opacity="0.6"/>
</svg>
