<svg width="116" height="116" viewBox="0 0 116 116" fill="none" xmlns="http://www.w3.org/2000/svg">
<mask id="path-1-outside-1_1803_943" maskUnits="userSpaceOnUse" x="0" y="0" width="116" height="116" fill="black">
<rect fill="white" width="116" height="116"/>
<path d="M58 4C87.8234 4 112 28.1766 112 58C112 87.8234 87.8234 112 58 112C28.1766 112 4 87.8234 4 58C4 28.1766 28.1766 4 58 4ZM44 39C41.2386 39 39 41.2386 39 44V72C39 74.7614 41.2386 77 44 77H72C74.7614 77 77 74.7614 77 72V44C77 41.2386 74.7614 39 72 39H44Z"/>
</mask>
<path d="M44 39V35.5V39ZM39 72H35.5H39ZM72 77V80.5V77ZM77 44H80.5H77ZM58 4V7.5C85.8904 7.5 108.5 30.1096 108.5 58H112H115.5C115.5 26.2436 89.7564 0.5 58 0.5V4ZM112 58H108.5C108.5 85.8904 85.8904 108.5 58 108.5V112V115.5C89.7564 115.5 115.5 89.7564 115.5 58H112ZM58 112V108.5C30.1096 108.5 7.5 85.8904 7.5 58H4H0.5C0.5 89.7564 26.2436 115.5 58 115.5V112ZM4 58H7.5C7.5 30.1096 30.1096 7.5 58 7.5V4V0.5C26.2436 0.5 0.5 26.2436 0.5 58H4ZM44 39V35.5C39.3056 35.5 35.5 39.3056 35.5 44H39H42.5C42.5 43.1716 43.1716 42.5 44 42.5V39ZM39 44H35.5V72H39H42.5V44H39ZM39 72H35.5C35.5 76.6944 39.3056 80.5 44 80.5V77V73.5C43.1716 73.5 42.5 72.8284 42.5 72H39ZM44 77V80.5H72V77V73.5H44V77ZM72 77V80.5C76.6944 80.5 80.5 76.6944 80.5 72H77H73.5C73.5 72.8284 72.8284 73.5 72 73.5V77ZM77 72H80.5V44H77H73.5V72H77ZM77 44H80.5C80.5 39.3056 76.6944 35.5 72 35.5V39V42.5C72.8284 42.5 73.5 43.1716 73.5 44H77ZM72 39V35.5H44V39V42.5H72V39Z" fill="white" fill-opacity="0.6" mask="url(#path-1-outside-1_1803_943)"/>
<circle cx="57.5" cy="57.5" r="45.75" stroke="white" stroke-opacity="0.6" stroke-width="3.5"/>
</svg>
