<svg width="214" height="34" viewBox="0 0 214 34" fill="none" xmlns="http://www.w3.org/2000/svg">
<rect x="197" y="17" width="16" height="16" rx="8" stroke="#0F5734" stroke-width="2"/>
<rect x="199" width="12" height="30" rx="6" fill="#0F5734"/>
<rect x="169" y="17" width="16" height="16" rx="8" stroke="#0F5734" stroke-width="2"/>
<rect x="171" width="12" height="30" rx="6" fill="#0F5734"/>
<rect x="141" y="17" width="16" height="16" rx="8" stroke="#0F5734" stroke-width="2"/>
<rect x="143" width="12" height="30" rx="6" fill="#0F5734"/>
<rect x="113" y="17" width="16" height="16" rx="8" stroke="#0F5734" stroke-width="2"/>
<rect x="115" width="12" height="30" rx="6" fill="#0F5734"/>
<rect x="85" y="17" width="16" height="16" rx="8" stroke="#0F5734" stroke-width="2"/>
<rect x="87" width="12" height="30" rx="6" fill="#0F5734"/>
<rect x="57" y="17" width="16" height="16" rx="8" stroke="#0F5734" stroke-width="2"/>
<rect x="59" width="12" height="30" rx="6" fill="#0F5734"/>
<rect x="29" y="17" width="16" height="16" rx="8" stroke="#0F5734" stroke-width="2"/>
<rect x="31" width="12" height="30" rx="6" fill="#0F5734"/>
<rect x="1" y="17" width="16" height="16" rx="8" stroke="#0F5734" stroke-width="2"/>
<rect x="3" width="12" height="30" rx="6" fill="#0F5734"/>
</svg>
