<svg width="100" height="100" viewBox="0 0 100 100" fill="none" xmlns="http://www.w3.org/2000/svg">
<g style="mix-blend-mode:soft-light" clip-path="url(#clip0_1906_15969)">
<path d="M70.6892 0.133789H29.284L0 29.3769V70.7433L29.284 99.9998H70.6892L99.9732 70.7433V29.3769L70.6892 0.133789ZM95.9372 31.038V48.9081H92.089V32.6321L67.4309 7.98376H57.4417V4.13915H69.0131L95.9372 31.038ZM48.1496 92.1365V95.9811H44.2746V92.1365H48.1496ZM51.5017 92.1365H55.4304V95.9811H51.5017V92.1365ZM33.6417 89.4573L29.9142 85.7333H70.0188L66.2912 89.4573H33.6283H33.6417ZM26.5755 82.3977L17.9271 73.7574V57.9235H21.6278C25.0872 70.3414 36.4843 79.464 49.9732 79.464C63.4621 79.464 74.8726 70.3414 78.3186 57.9369H82.6227V73.1679L73.2904 82.4915V82.3977H26.5755ZM51.6626 7.98376V4.13915H55.4304V7.98376H51.6626ZM48.3105 7.98376H44.2746V4.13915H48.3105V7.98376ZM66.318 10.6629L70.0322 14.3736H29.9276L33.6417 10.6629H66.318ZM26.5755 17.7359H73.3843L82.6227 26.9657V42.4513H78.399C75.0335 29.9262 63.5693 20.6696 49.9732 20.6696C36.377 20.6696 24.9128 29.9262 21.5473 42.4513H17.9136V26.3763L26.5621 17.7359H26.5755ZM76.723 50.0601C76.723 64.7955 64.7224 76.7848 49.9732 76.7848C35.2239 76.7848 23.2234 64.7955 23.2234 50.0601C23.2234 35.3247 35.2239 23.3354 49.9732 23.3354C64.7224 23.3354 76.723 35.3247 76.723 50.0601ZM21.0244 55.2443H17.9271V45.117H20.9708C20.7026 46.7245 20.5417 48.3722 20.5417 50.0467C20.5417 51.815 20.7026 53.543 21.011 55.2309H21.0244V55.2443ZM14.575 45.1304V55.2309H10.5524V45.1304H14.575ZM78.9354 55.2577C79.2438 53.5698 79.4047 51.8418 79.4047 50.0601C79.4047 48.2785 79.2572 46.7245 78.9756 45.1304H82.6227V55.2577H78.9354ZM89.4208 42.4513H85.9882V30.3146L89.4208 33.744V42.4513ZM14.575 42.4513H10.5524V33.744L14.575 29.7252V42.4513ZM10.5524 57.8833H14.575V70.4084L10.5524 66.3897V57.8967V57.8833ZM85.9748 57.9369H89.4073V66.3897L85.9748 69.819V57.9369ZM89.4208 55.2577H85.9882V45.1304H89.4208V55.2577ZM30.9466 4.15254H42.2633V7.99715H32.5422L7.87074 32.6321V48.9081H4.02253V31.038L30.9466 4.15254ZM4.02253 69.0822V51.6006H7.87074V67.5015L32.5422 92.1499H42.2633V95.9945H30.9466L4.02253 69.0822ZM69.0131 95.9811H57.4417V92.1365H67.4309L92.1024 67.4881V51.5872H95.9507V69.0688L69.0265 95.9677L69.0131 95.9811Z" fill="white"/>
<path d="M58.6216 40.4424C58.863 39.4511 58.796 38.5268 58.4339 37.656C58.0585 36.7987 57.4819 36.0753 56.6774 35.4859C55.8863 34.8965 54.8941 34.441 53.7276 34.0927C52.561 33.7578 51.3006 33.5837 49.9464 33.5837C48.3508 33.5837 46.7686 33.9052 45.2132 34.575C43.6579 35.2314 42.2634 36.2093 41.0298 37.5221C39.7962 38.8215 38.804 40.4558 38.0531 42.4116C37.2888 44.3674 36.9134 46.658 36.9134 49.2568C36.9134 51.4672 37.262 53.4497 37.9593 55.218C38.6565 56.9862 39.5683 58.4866 40.6946 59.7458C41.8209 60.9916 43.1215 61.9561 44.5964 62.6393C46.0714 63.3225 47.5865 63.6574 49.1419 63.6574C51.0995 63.6574 53.1242 63.4296 55.2025 62.9876C57.2808 62.5455 59.0239 61.9293 60.4586 61.139C60.4586 59.5314 60.4586 58.0445 60.4854 56.6379C60.4988 55.2448 60.5122 53.731 60.5122 52.0834C59.4396 52.1503 58.4339 52.2307 57.4953 52.3245C56.5568 52.4183 55.6316 52.5522 54.7198 52.7264C54.0226 52.8737 53.3924 52.9943 52.8426 53.1014C52.2929 53.2086 51.8102 53.2622 51.3945 53.2622C50.9788 53.2622 50.6168 53.1014 50.295 52.8067C49.9732 52.512 49.6112 52.1503 49.2492 51.7619C48.5921 51.0117 47.9888 50.2213 47.3988 49.3774C46.8222 48.5469 46.3261 47.8503 45.9239 47.3144C47.439 47.502 49.0614 47.6091 50.7777 47.6895C52.494 47.7699 54.2773 47.7967 56.1277 47.7967C57.978 47.7967 59.7614 47.7565 61.5045 47.6627C63.2475 47.569 64.9772 47.435 66.6935 47.2609L66.8678 47.2073H66.9349C67.2298 47.1671 67.5382 47.2475 67.86 47.4216C68.1818 47.5958 68.4902 47.8369 68.7584 48.145C69.0266 48.4397 69.2411 48.788 69.4422 49.1631C69.63 49.5381 69.7238 49.8864 69.7238 50.2079C69.6434 50.7438 69.4825 51.2796 69.2679 51.8154C69.04 52.3513 68.9059 52.9005 68.8657 53.4765C68.7852 55.2984 68.7852 57.0398 68.8657 58.7143C68.9461 60.3888 69.0266 62.0901 69.107 63.8047C69.107 64.5549 68.8523 65.2515 68.3428 65.8945C67.8332 66.5375 67.136 67.0867 66.2779 67.5288C65.4197 67.9708 64.4543 68.3191 63.395 68.5469C62.3224 68.788 61.2363 68.855 60.1368 68.788L59.52 68.4129C59.8954 67.8101 60.1368 67.2742 60.2575 66.8054C60.3781 66.3365 60.4318 65.9882 60.4318 65.7337V64.1798C59.7748 64.7558 59.0239 65.3185 58.1658 65.8677C57.3076 66.4169 56.369 66.9126 55.3634 67.3412C54.3578 67.7699 53.2985 68.1182 52.199 68.3861C51.0995 68.654 49.9866 68.788 48.8737 68.788C46.2457 68.788 43.6981 68.3593 41.2175 67.502C38.737 66.6446 36.5246 65.3988 34.5803 63.7645C32.6361 62.1302 31.0807 60.0941 29.9142 57.6694C28.7477 55.2448 28.1577 52.445 28.1577 49.2836C28.1577 46.1222 28.7879 43.0813 30.0617 40.5093C31.3221 37.9507 32.9982 35.7806 35.0362 34.0124C37.0877 32.2441 39.394 30.9179 41.955 29.9936C44.516 29.0827 47.1172 28.6406 49.7319 28.6406C51.1666 28.6406 52.7488 28.788 54.5053 29.0961C56.2484 29.3908 57.8842 29.8596 59.3859 30.4893C60.9011 31.1189 62.1883 31.8958 63.2341 32.8469C64.28 33.798 64.8163 34.9233 64.8566 36.2495C64.8566 36.8523 64.6822 37.4149 64.3068 37.9106C63.9314 38.4062 63.4621 38.8483 62.8587 39.2367C62.2553 39.6252 61.5983 39.9333 60.834 40.1477C60.0698 40.362 59.3189 40.4692 58.5948 40.4692L58.6216 40.4424Z" fill="white"/>
</g>
<defs>
<clipPath id="clip0_1906_15969">
<rect width="100" height="100" fill="white"/>
</clipPath>
</defs>
</svg>
