<svg width="150" height="156" viewBox="0 0 150 156" fill="none" xmlns="http://www.w3.org/2000/svg">
<g clip-path="url(#clip0_1906_16000)">
<g clip-path="url(#clip1_1906_16000)">
<path d="M52.6349 97.9971C47.8056 100.857 47.2232 96.8783 46.2277 93.4164C42.9128 81.8065 39.8416 70.1227 36.1349 58.6395C34.3875 53.2251 36.1667 51.3886 41.2078 50.2487C58.0361 46.4069 74.2607 40.3064 91.2161 36.8023C99.0954 35.177 106.721 32.2112 114.378 29.6253C117.894 28.4432 119.482 29.2348 120.531 32.9394C130.994 69.8694 141.563 106.778 152.27 143.635C153.361 147.381 152.239 148.595 148.797 149.545C126.98 155.603 105.217 161.841 83.4427 168.015C79.6936 169.081 75.9022 170.031 72.1956 171.256C69.5691 172.121 68.4889 171.213 67.7899 168.712C63.2784 152.5 58.7033 136.299 54.0329 120.13C53.3974 117.945 53.5669 116.457 55.0707 114.599C56.977 112.235 58.6397 109.501 59.6776 106.662C61.3191 102.166 57.7713 97.8176 52.6561 98.0182L52.6349 97.9971ZM127.192 94.2819C127.086 93.5325 127.076 93.1209 126.959 92.7304C122.14 76.3182 117.311 59.8955 112.514 43.4833C112.217 42.4701 111.984 41.193 110.904 41.098C106.286 40.7075 101.923 42.1429 98.0364 44.2855C95.1664 45.8686 97.3162 48.8766 97.8775 50.977C101.817 65.7532 106 80.4556 110.152 95.179C111.063 98.4087 112.418 100.646 116.676 99.2847C119.355 98.4192 122.278 98.3031 124.915 97.0155C126.334 96.3189 127.51 95.8017 127.192 94.303V94.2819Z" fill="#FFAE5C"/>
<path d="M71.1986 176.89C65.3208 176.89 60.0785 172.963 58.4582 167.348L28.6459 64.5585C27.661 61.1811 28.0635 57.6137 29.7791 54.5212C31.4948 51.4288 34.3013 49.1807 37.6902 48.2097L109.123 27.6285C110.32 27.2802 111.548 27.1113 112.787 27.1113C118.665 27.1113 123.907 31.0376 125.538 36.6526L155.351 139.453C156.336 142.83 155.933 146.398 154.218 149.49C152.502 152.583 149.695 154.831 146.306 155.802L74.8735 176.372C73.6768 176.721 72.4482 176.89 71.2092 176.89H71.1986Z" fill="#FFAE5C"/>
<path d="M112.8 28.2218C117.735 28.2218 122.141 31.5148 123.507 36.2326L153.319 139.033C154.145 141.872 153.806 144.87 152.366 147.466C150.926 150.062 148.564 151.952 145.715 152.775L74.2822 173.345C73.2761 173.63 72.2382 173.778 71.2003 173.778C66.2652 173.778 61.8595 170.485 60.4934 165.767L30.6811 62.967C29.855 60.1279 30.1939 57.1304 31.6342 54.534C33.0745 51.9376 35.4362 50.0484 38.2851 49.2251L109.718 28.6545C110.724 28.3695 111.762 28.2218 112.8 28.2218ZM112.8 24C111.36 24 109.93 24.2005 108.542 24.6016L37.1095 45.1722C33.1805 46.3016 29.9186 48.9085 27.9276 52.4865C25.9365 56.0855 25.4706 60.2229 26.6143 64.1491L56.4266 166.939C58.3117 173.451 64.3907 178 71.2109 178C72.6512 178 74.081 177.799 75.4683 177.398L146.901 156.828C150.841 155.698 154.092 153.091 156.083 149.503C158.074 145.914 158.54 141.777 157.396 137.851L127.574 35.0611C125.688 28.549 119.61 24 112.789 24H112.8Z" fill="black"/>
<path d="M117.788 142.156C111 142.156 109.146 135.581 108.352 132.763L105.81 123.771C99.5302 101.532 93.0382 78.5341 86.9805 55.821C86.8004 55.1455 86.4827 54.3433 86.1544 53.499C84.8729 50.2693 82.7443 44.8549 88.2831 41.7941C95.4105 37.8573 102.411 35.873 109.072 35.873C110.015 35.873 110.957 35.9153 111.889 35.9891C115.035 36.253 115.882 39.3032 116.39 41.1186L116.539 41.6569C122.003 60.3383 127.479 79.0091 132.964 97.6799L141.68 127.359C141.86 127.971 141.924 128.552 141.998 129.227C142.03 129.533 142.072 129.882 142.136 130.293C142.962 134.367 139.668 135.982 137.254 137.154L137.021 137.27C133.981 138.758 130.836 139.402 127.796 140.035C125.901 140.425 124.121 140.795 122.406 141.344C120.701 141.893 119.197 142.156 117.809 142.156H117.788Z" fill="#F8EDE2"/>
<path d="M109.061 37.9843C109.93 37.9843 110.809 38.016 111.698 38.0898C113.573 38.2482 113.975 40.4857 114.494 42.2377C122.85 70.8192 131.249 99.3795 139.636 127.95C139.837 128.626 139.848 129.354 140.039 130.652C140.6 133.259 138.556 134.156 136.078 135.37C131.471 137.618 126.398 137.829 121.738 139.328C120.224 139.814 118.921 140.035 117.788 140.035C113.404 140.035 111.656 136.658 110.396 132.183C103.173 106.578 95.8868 80.9831 89.0348 55.2725C88.0605 51.6312 84.3114 46.3856 89.3101 43.6415C95.3361 40.3168 102.008 37.9843 109.072 37.9843M109.061 33.7625C102.04 33.7625 94.7007 35.8417 87.245 39.9474C80.0858 43.8948 82.9452 51.1668 84.1737 54.2698C84.4809 55.0614 84.7774 55.8108 84.9257 56.3596C90.9728 79.0306 97.4542 101.986 103.724 124.182L106.308 133.333C107.155 136.32 109.39 144.257 117.777 144.257C119.398 144.257 121.113 143.962 123.03 143.339C124.64 142.822 126.366 142.463 128.209 142.083C131.376 141.428 134.659 140.753 137.942 139.149L138.175 139.033C140.505 137.903 145.323 135.55 144.211 129.924C144.158 129.555 144.127 129.238 144.095 128.964C144.01 128.225 143.925 127.539 143.703 126.758C140.812 116.9 137.921 107.032 135.019 97.1737C129.618 78.7772 124.036 59.7687 118.561 41.0556C118.508 40.8868 118.466 40.7179 118.413 40.549C117.894 38.6703 116.665 34.2691 112.048 33.8786C111.063 33.7942 110.057 33.752 109.061 33.752V33.7625Z" fill="black"/>
<path d="M102.135 61.5105L101.711 60.3706C101.552 60.0856 101.341 59.9062 101.087 59.7268C101.012 59.6107 100.959 59.4207 100.959 59.2729C101.139 59.1251 101.383 58.9774 101.648 58.8824C102.315 58.7241 103.046 58.5763 103.766 58.5235C103.967 58.6713 104.094 58.8402 104.179 59.0724C104.232 59.3996 104.38 59.9484 104.528 60.4972C104.772 60.3284 105.047 60.17 105.323 59.9906C105.217 59.1674 104.963 58.1225 104.571 56.6871C102.22 57.8797 99.9639 59.2307 98.3436 60.55C97.5705 60.4022 96.988 59.9062 96.4902 59.1568C99.625 57.257 103.014 55.5366 106.011 54.1223C107.271 53.5313 108.754 52.9402 110.184 52.4442C110.893 52.4336 111.645 52.5708 112.196 52.8241C112.344 53.0458 112.408 53.2885 112.397 53.5418C112.207 53.964 111.698 54.4601 111.444 54.5129C109.919 54.7345 108.246 55.1356 106.763 55.6844C106.975 55.7899 107.113 55.9272 107.155 56.0644L107.335 57.1726C107.398 57.5631 107.293 58.0591 107.07 58.5024C106.869 58.8824 106.594 59.2201 106.329 59.4312C107.314 58.9352 108.32 58.4813 109.188 58.1753C109.802 58.1753 110.544 58.3019 111.042 58.5341C111.179 58.7241 111.232 58.9457 111.222 59.1885C111.073 59.5368 110.682 60.0856 110.417 60.1595C108.352 60.6872 106.159 61.4788 104.338 62.302C103.448 62.3232 102.707 62.0804 102.103 61.4999L102.135 61.5105ZM102.717 49.9111C101.32 50.576 100.027 51.3465 98.9366 52.1064C98.333 51.9903 97.8035 51.5259 97.4646 51.0299C100.271 49.1195 103.671 47.4308 106.594 46.4704C107.197 46.4704 107.864 46.6498 108.32 46.8292C108.447 46.977 108.489 47.1458 108.489 47.3464C108.256 47.7369 107.759 48.0957 107.515 48.1591C106.53 48.4124 105.556 48.7185 104.613 49.0773L104.825 49.1829L104.92 49.5206L105.185 49.4467C106.255 49.2778 107.578 49.7211 107.811 50.5444C108.119 51.6526 106.509 53.6368 105.026 54.2279C103.459 54.8612 101.097 54.5023 100.758 53.278C100.525 52.4547 101.383 51.2199 102.728 49.9006L102.717 49.9111ZM104.698 45.6788C104.825 45.8477 104.899 46.0271 104.889 46.2382C104.719 46.5654 104.401 46.882 104.158 46.9875C103.332 47.378 101.891 47.8952 101.087 48.0746C100.229 47.8213 99.4873 47.1564 98.9896 46.2382C100.483 46.1326 101.997 45.7738 102.972 45.4255C103.459 45.4149 104.137 45.531 104.687 45.6788H104.698ZM104.401 50.6394L104.242 50.8082C103.649 51.5154 103.353 52.0642 103.448 52.4231C103.522 52.708 104.126 52.7397 104.55 52.5814C105.016 52.4125 105.471 51.6526 105.365 51.2621C105.291 50.9771 105.037 50.8821 104.73 50.7871C104.581 50.7449 104.475 50.6921 104.401 50.6394Z" fill="black"/>
<path d="M111.73 76.4031C111.656 76.6458 111.497 76.973 111.296 77.1735C110.004 77.4479 108.373 78.0601 107.335 78.6723C107.272 79.0944 107.039 79.5694 106.604 79.8438C106.043 79.9388 105.503 79.6222 105.217 79.1578L102.76 75.0732C102.569 74.8199 102.209 74.5771 101.945 74.4294C101.828 74.3027 101.754 74.1127 101.722 74.0072C101.849 73.8067 102.04 73.5534 102.241 73.4584C102.898 73.2578 103.893 73.1101 104.793 73.2051C105.005 73.2895 105.185 73.4584 105.323 73.6272C105.598 74.3872 106.244 76.002 106.784 77.2791C107.229 76.8147 108.172 76.2025 108.934 75.9387L108.172 72.8884C107.865 73.1523 107.24 73.4689 106.594 73.7117C106.075 73.6694 105.545 73.3739 105.069 72.9729C106.128 71.6008 107.716 70.482 108.585 70.1759C109.432 70.292 110.353 70.6825 110.957 71.1258C111.095 71.4108 111.19 71.7485 111.211 72.0441C111.179 73.1839 111.01 74.4716 110.798 75.4637C111.042 75.5376 111.423 75.7381 111.603 75.8859C111.688 76.0442 111.741 76.2131 111.73 76.4136V76.4031ZM109.411 83.6117L108.585 81.2264C108.447 80.9626 108.182 80.6671 107.928 80.4771C107.843 80.3399 107.801 80.171 107.801 80.0232C107.981 79.8544 108.225 79.7066 108.479 79.6116C109.21 79.4533 110.11 79.3266 110.904 79.2844C111.084 79.4322 111.264 79.696 111.349 79.9282C111.465 80.4243 111.783 81.5536 111.974 82.3135C113.276 81.5114 115.246 80.5404 116.888 80.0021C117.523 80.0021 118.265 80.1921 118.762 80.4349C118.9 80.6248 118.963 80.8676 118.953 81.1103C118.826 81.5114 118.413 82.0286 118.148 82.1025C116.072 82.6091 113.372 83.4956 111.529 84.3506C110.777 84.34 109.94 84.055 109.411 83.6012V83.6117ZM110.883 67.0096C111.063 66.8407 111.37 66.6507 111.561 66.5769C112.217 66.5346 113.414 66.7352 114.219 67.0835C114.399 67.2312 114.579 67.4951 114.664 67.7273C114.717 68.1178 114.823 68.6772 114.929 69.0572C115.32 70.6298 116.231 74.1761 116.591 75.8542C116.697 76.3714 116.676 76.9624 116.517 77.659C116.348 78.3134 115.988 79.1367 115.68 79.39C115.395 79.5905 114.833 79.8649 114.431 80.0338C114.568 79.7172 114.6 79.2528 114.505 78.6195C114.42 77.9334 114.177 76.8463 113.975 76.1286L111.751 68.1917C111.582 67.9384 111.296 67.664 110.999 67.4634C110.925 67.3262 110.872 67.1574 110.872 67.0096H110.883Z" fill="black"/>
<path d="M116.496 91.9497C116.623 92.0974 116.697 92.4035 116.697 92.604C116.464 93.0895 116.062 93.67 115.797 93.7439C115.331 93.8917 114.738 94.1133 114.102 94.3877C114.547 94.5038 114.971 94.6727 115.352 94.8521C115.49 95.0421 115.574 95.3588 115.574 95.6015C115.437 95.9604 115.246 96.3403 115.077 96.7308C115.913 96.6781 116.75 96.7519 117.491 96.9314C117.83 97.2797 118.116 97.7335 118.275 98.219C118.212 98.5145 118.063 98.8628 117.841 99.1267C117.481 99.3061 116.909 99.4433 116.464 99.38C115.807 98.9895 115.098 98.4829 114.462 97.8813C113.848 98.9789 113.107 100.098 112.313 101.132C111.73 101.681 110.851 102.24 110.375 102.441C110.131 102.367 109.951 102.219 109.813 102.008C109.909 101.681 110.057 101.269 110.216 100.963C111.275 99.2322 112.238 97.1847 112.673 95.6015L112.546 95.1266C111.995 95.4221 111.476 95.7282 111.01 96.0342C110.205 95.9287 109.432 95.4115 108.945 94.6199C110.692 93.3112 113.012 92.0447 114.717 91.4536C115.352 91.4853 116.019 91.6858 116.496 91.9391V91.9497ZM117.28 100.625L117.131 100.077C117.11 99.9183 117.142 99.7494 117.205 99.6122C117.449 99.5278 117.735 99.4644 117.957 99.4433C118.519 99.4961 119.196 99.665 119.726 99.8866C119.8 100.066 119.842 100.319 119.821 100.509C119.811 100.53 119.821 100.552 119.821 100.573C120.065 100.446 120.383 100.383 120.616 100.372H120.753C120.753 100.15 120.753 99.9077 120.7 99.6016C120.616 98.9156 120.372 97.8285 120.171 97.1108L119.588 95.0843C118.921 95.3904 118.264 95.7915 117.767 96.1926C117.142 95.9181 116.581 95.2849 116.189 94.5988L119.143 93.459L118.201 90.0499C118.031 89.7966 117.746 89.5221 117.449 89.3216C117.364 89.1844 117.322 89.0155 117.322 88.8678C117.502 88.6989 117.809 88.5089 118 88.435C118.656 88.3928 119.811 88.6039 120.626 88.9522C120.806 89.1 120.986 89.3638 121.071 89.596C121.113 89.9865 121.23 90.5459 121.336 90.9259C121.728 92.4985 122.384 95.1582 122.755 96.8364C122.861 97.3535 122.84 97.9446 122.681 98.6412C122.511 99.2956 122.151 100.108 121.844 100.372C121.781 100.435 121.717 100.488 121.622 100.53C122.384 100.763 123.041 101.238 123.21 101.871C123.613 103.306 122.204 105.491 120.33 106.093C118.434 106.715 115.924 106.177 115.458 104.499C115.161 103.422 116.083 101.85 117.29 100.615L117.28 100.625ZM119.451 101.406C119.366 101.554 119.249 101.702 119.112 101.86C118.487 102.62 118.021 103.275 118.159 103.771C118.286 104.224 119.228 104.488 119.864 104.277C120.478 104.066 120.923 103.053 120.796 102.557C120.711 102.24 120.361 102.029 120.022 101.839C119.768 101.723 119.588 101.575 119.451 101.406Z" fill="black"/>
<path d="M116.422 125.671C115.649 125.523 115.003 124.869 114.537 124.141C117.661 122.209 121.039 120.447 124.026 118.99C125.275 118.378 126.737 117.692 128.156 117.164C128.855 117.111 129.628 117.322 130.179 117.576C130.327 117.797 130.401 118.082 130.391 118.325C130.2 118.747 129.702 119.307 129.448 119.338C127.499 119.634 125.318 120.352 123.634 121.164C120.923 122.462 118.275 124.12 116.422 125.66V125.671ZM123.846 126.769C124.555 126.325 125.318 125.998 126.038 125.734L125.657 123.687C125.35 123.908 124.619 124.278 124.005 124.489C123.348 124.32 122.691 123.856 122.247 123.37C123.528 122.716 124.862 121.945 125.879 121.133C126.747 121.323 127.69 121.713 128.347 122.199C128.484 122.462 128.558 122.726 128.58 123.022C128.474 123.655 128.188 124.668 127.87 125.302C128.156 125.386 128.516 125.587 128.707 125.755C128.791 125.914 128.834 126.083 128.834 126.283C128.738 126.537 128.537 126.769 128.336 126.969C126.896 127.201 125.392 127.645 124.185 128.12C124.174 128.141 124.153 128.172 124.163 128.183C123.994 128.595 123.75 128.964 123.38 129.165C122.945 129.228 122.405 129.027 122.098 128.521L120.203 125.418C120.033 125.164 119.715 124.901 119.44 124.732C119.366 124.594 119.313 124.405 119.313 124.278C119.472 124.109 119.737 123.961 119.97 123.877C120.51 123.771 121.272 123.676 122.098 123.697C122.31 123.824 122.511 124.014 122.649 124.215C122.945 124.837 123.369 125.777 123.835 126.748L123.846 126.769ZM119.758 113.301C119.726 112.985 119.641 112.731 119.472 112.425C119.451 112.267 119.504 112.098 119.567 111.95C119.79 111.866 120.16 111.813 120.308 111.824C120.965 111.929 121.685 112.151 122.204 112.436C122.257 112.541 122.331 112.805 122.395 113.037C122.416 113.111 122.427 113.164 122.427 113.227C122.712 113.09 123.03 112.995 123.274 112.995C124.29 112.995 125.413 113.808 125.646 114.652C126.006 115.929 124.481 118.283 122.691 119.032C120.912 119.803 118.445 119.032 118 117.523C117.703 116.51 118.603 114.726 119.758 113.291V113.301ZM121.939 114.135L121.653 114.557C121.092 115.402 120.573 116.172 120.7 116.605C120.838 117.09 121.611 117.407 122.13 117.206C122.712 116.964 123.327 115.866 123.178 115.359C123.083 115 122.776 114.716 122.416 114.515C122.204 114.409 122.066 114.283 121.95 114.135H121.939Z" fill="black"/>
</g>
</g>
<defs>
<clipPath id="clip0_1906_16000">
<rect width="150" height="156" fill="white"/>
</clipPath>
<clipPath id="clip1_1906_16000">
<rect width="132" height="154" fill="white" transform="translate(26 24)"/>
</clipPath>
</defs>
</svg>
